<svg width="81" height="52" viewBox="0 0 81 52" fill="none" xmlns="http://www.w3.org/2000/svg">
<path d="M23.7408 36.5394C25.4012 36.5394 26.7164 37.0244 27.6864 37.9943C28.6563 38.9478 29.1413 40.3863 29.1413 42.3098V49.8557H26.0588V42.7043C26.0588 41.5535 25.804 40.6904 25.2944 40.115C24.7847 39.5232 24.0531 39.2273 23.0997 39.2273C22.064 39.2273 21.2337 39.5725 20.609 40.263C19.9843 40.937 19.672 41.907 19.672 43.1728V49.8557H16.5895V42.7043C16.5895 41.5535 16.3346 40.6904 15.825 40.115C15.3154 39.5232 14.5838 39.2273 13.6303 39.2273C12.5781 39.2273 11.7397 39.5643 11.115 40.2383C10.5067 40.9124 10.2026 41.8905 10.2026 43.1728V49.8557H7.12012V36.6873H10.0546V38.3642C10.5478 37.7724 11.1643 37.3203 11.9041 37.0079C12.6439 36.6955 13.4659 36.5394 14.3701 36.5394C15.3565 36.5394 16.2278 36.7284 16.984 37.1065C17.7567 37.4682 18.365 38.0108 18.8089 38.7341C19.3514 38.0436 20.0501 37.5093 20.9049 37.1312C21.7598 36.7366 22.7051 36.5394 23.7408 36.5394ZM45.8294 36.6873V49.8557H42.8949V48.1788C42.4017 48.7706 41.7852 49.231 41.0454 49.5597C40.3056 49.8721 39.5083 50.0283 38.6534 50.0283C36.8944 50.0283 35.5052 49.5433 34.4859 48.5733C33.4831 47.587 32.9816 46.132 32.9816 44.2086V36.6873H36.0641V43.7893C36.0641 44.973 36.3272 45.8608 36.8532 46.4526C37.3957 47.028 38.1602 47.3157 39.1466 47.3157C40.2481 47.3157 41.1194 46.9787 41.7605 46.3046C42.4181 45.6142 42.7469 44.6278 42.7469 43.3455V36.6873H45.8294ZM53.9342 50.0283C52.8656 50.0283 51.8217 49.8885 50.8024 49.6091C49.7832 49.3296 48.9694 48.9761 48.3611 48.5487L49.5448 46.206C50.1366 46.6006 50.8435 46.9211 51.6655 47.1677C52.5039 47.3979 53.3259 47.513 54.1314 47.513C55.9729 47.513 56.8933 47.028 56.8933 46.058C56.8933 45.5977 56.6548 45.2771 56.1782 45.0963C55.7177 44.9155 54.9699 44.7429 53.9342 44.5785C52.8492 44.414 51.9614 44.225 51.271 44.0113C50.5969 43.7975 50.0051 43.4277 49.4955 42.9016C49.0023 42.3591 48.7557 41.6111 48.7557 40.6576C48.7557 39.4081 49.2735 38.4135 50.3092 37.6737C51.3614 36.9175 52.7752 36.5394 54.5507 36.5394C55.455 36.5394 56.3589 36.6462 57.2632 36.8599C58.1676 37.0572 58.9074 37.3285 59.4826 37.6737L58.2989 40.0164C57.1812 39.3588 55.9236 39.03 54.526 39.03C53.6216 39.03 52.9314 39.1698 52.4546 39.4492C51.9943 39.7123 51.7641 40.0657 51.7641 40.5096C51.7641 41.0028 52.0107 41.3562 52.5039 41.57C53.0136 41.7672 53.7942 41.9563 54.8466 42.1371C55.8989 42.3016 56.762 42.4906 57.4359 42.7043C58.1097 42.9181 58.6855 43.2797 59.162 43.7893C59.6552 44.299 59.9018 45.0223 59.9018 45.9594C59.9018 47.1924 59.3674 48.1788 58.2989 48.9186C57.2305 49.6584 55.7756 50.0283 53.9342 50.0283ZM68.8201 47.4143C70.2504 47.4143 71.4421 46.9376 72.3958 45.9841L74.0233 47.8829C73.4481 48.5898 72.7083 49.1241 71.8039 49.4858C70.8996 49.8475 69.8805 50.0283 68.7461 50.0283C67.2992 50.0283 66.0255 49.7406 64.9239 49.1652C63.8222 48.5898 62.9677 47.7924 62.3592 46.7732C61.7674 45.7375 61.4715 44.5703 61.4715 43.2715C61.4715 41.9892 61.7594 40.8384 62.3346 39.8191C62.9264 38.7834 63.7321 37.9778 64.7512 37.4025C65.7869 36.8271 66.954 36.5394 68.2529 36.5394C69.4859 36.5394 70.6036 36.8106 71.6067 37.3531C72.6257 37.8792 73.4315 38.6437 74.0233 39.6465C74.6152 40.6329 74.9111 41.7919 74.9111 43.1235L64.8252 45.0963C65.1377 45.8526 65.639 46.4279 66.3295 46.8225C67.0199 47.2171 67.8503 47.4143 68.8201 47.4143ZM68.2529 39.0053C67.1186 39.0053 66.1981 39.3752 65.491 40.115C64.8006 40.8548 64.4553 41.8494 64.4553 43.0989V43.1235L71.9026 41.6933C71.6887 40.8877 71.2534 40.2383 70.5956 39.7451C69.9544 39.2519 69.1734 39.0053 68.2529 39.0053Z" fill="black"/>
<path d="M27.5249 5.39617L18.0131 25.4179C16.6508 28.2855 18.0371 31.2579 21.1096 32.0571C24.1821 32.8562 27.7772 31.1795 29.1395 28.3119L38.6513 8.29014C40.0136 5.42258 38.6272 2.45013 35.5548 1.65099C32.4823 0.851841 28.8872 2.52862 27.5249 5.39617Z" fill="url(#paint0_linear_1432_3673)"/>
<path d="M39.6047 5.09418L45.4962 17.4937C46.8329 20.3071 45.4729 23.2234 42.4584 24.0076C39.444 24.7917 35.9167 23.1467 34.5799 20.3334L28.6885 7.93386C27.3517 5.1205 28.7118 2.20414 31.7262 1.41998C34.7406 0.635827 38.268 2.28082 39.6047 5.09418Z" fill="url(#paint1_linear_1432_3673)"/>
<path d="M41.5411 5.11088L35.6654 17.477C34.3243 20.2996 35.6888 23.2255 38.7131 24.0122C41.7375 24.799 45.2764 23.1486 46.6175 20.326L52.4931 7.95988C53.8342 5.1373 52.4697 2.21137 49.4454 1.42464C46.4211 0.637912 42.8822 2.2883 41.5411 5.11088Z" fill="url(#paint2_linear_1432_3673)"/>
<path d="M54.0848 5.20132L63.6892 25.4179C65.0515 28.2855 63.6651 31.2579 60.5926 32.0571C57.5201 32.8562 53.925 31.1795 52.5627 28.3119L42.9583 8.09529C41.596 5.22773 42.9824 2.25528 46.0549 1.45614C49.1274 0.65699 52.7225 2.33377 54.0848 5.20132Z" fill="url(#paint3_linear_1432_3673)"/>
<defs>
<linearGradient id="paint0_linear_1432_3673" x1="20.3712" y1="31.8469" x2="40.9694" y2="5.5321" gradientUnits="userSpaceOnUse">
<stop stop-color="#69DEC6"/>
<stop offset="1" stop-color="#49C2D4"/>
</linearGradient>
<linearGradient id="paint1_linear_1432_3673" x1="30.831" y1="1.87645" x2="53.8395" y2="28.2984" gradientUnits="userSpaceOnUse">
<stop stop-color="#48C2D4"/>
<stop offset="1" stop-color="#1595EA"/>
</linearGradient>
<linearGradient id="paint2_linear_1432_3673" x1="37.5258" y1="23.8558" x2="68.5273" y2="-10.6861" gradientUnits="userSpaceOnUse">
<stop stop-color="#1695EA"/>
<stop offset="1" stop-color="#548CE7"/>
</linearGradient>
<linearGradient id="paint3_linear_1432_3673" x1="46.7975" y1="1.02786" x2="67.5246" y2="28.5573" gradientUnits="userSpaceOnUse">
<stop stop-color="#518DE7"/>
<stop offset="1" stop-color="#7687E5"/>
</linearGradient>
</defs>
</svg>
