<svg width="41" height="42" viewBox="0 0 41 42" fill="none" xmlns="http://www.w3.org/2000/svg">
<path d="M31.2625 15.8156C30.1469 14.0438 27.7844 13.5188 26.0125 14.6344L25.6188 14.8969L25.8813 15.2906C26.9969 17.0625 29.3594 17.5875 31.1313 16.4719L31.525 16.2094L31.2625 15.8156ZM26.8 11.1563C26.8 11.0906 26.7344 11.0906 26.7344 11.025L26.5375 10.7625L26.275 10.9594C25.8813 11.1563 25.6188 11.4844 25.4219 11.8125C24.8969 12.6656 24.8969 13.7156 25.4219 14.5688L25.6188 14.8313L25.8813 14.6344C27.0625 13.9125 27.4563 12.4031 26.8 11.1563ZM14.6594 0.984375L14.1344 0.65625L13.8063 1.11563C12.4282 3.21563 13.0188 5.97188 15.1188 7.35L15.5782 7.67813L15.9063 7.21875C17.2844 5.11875 16.6938 2.3625 14.6594 0.984375Z" fill="#06D506"/>
<path d="M10.9188 8.33437L10.7219 8.6625L11.05 8.85937C12.4938 9.84375 14.4625 9.38437 15.3813 7.94062L15.5782 7.6125L15.25 7.41562C13.8719 6.49687 11.9032 6.89062 10.9188 8.33437Z" fill="#06D506"/>
<path d="M26.9312 2.75635C25.75 2.75635 24.8312 3.54385 24.5031 4.59385C24.4375 4.79072 24.4375 5.05322 24.4375 5.2501V5.57822C24.8969 5.57822 25.5531 5.44697 25.9469 5.31572C26.7344 4.92197 27.2594 4.06885 27.2594 3.08447V2.75635H26.9312Z" fill="#06D506"/>
<path d="M22.8626 17.325C22.8626 16.6687 22.6657 16.2094 22.3376 15.8156C22.0094 15.4219 21.4188 15.0938 20.5657 14.7656C19.7126 14.4375 18.9907 14.1094 18.4001 13.8469C17.8094 13.5188 17.2844 13.1906 16.8251 12.7969C16.3657 12.4031 16.0376 11.9437 15.7751 11.3531C15.5126 10.8281 15.3813 10.1719 15.3813 9.38438C15.3813 8.07188 15.7751 7.02187 16.6282 6.16875C17.4813 5.31562 18.5969 4.85625 19.9751 4.725V3.21563C19.9751 2.69063 20.3688 2.29688 20.8938 2.29688C21.4188 2.29688 21.8126 2.69063 21.8126 3.21563V4.79063C23.1907 4.9875 24.2407 5.57812 25.0282 6.49687C25.8157 7.41562 26.2094 8.6625 26.2094 10.1719H22.8626C22.8626 9.25313 22.6657 8.53125 22.2719 8.07188C21.8782 7.6125 21.3532 7.41563 20.7626 7.41563C20.1063 7.41563 19.6469 7.6125 19.3188 7.94063C18.9907 8.26875 18.7938 8.79375 18.7938 9.45C18.7938 10.0406 18.9907 10.5 19.3188 10.8281C19.6469 11.1562 20.3032 11.55 21.2219 11.9438C22.1407 12.3375 22.9282 12.6656 23.5188 12.9937C24.1094 13.3219 24.6344 13.7156 25.0282 14.1094C25.4219 14.5031 25.7501 14.9625 25.9469 15.4875C26.1438 16.0125 26.2751 16.6031 26.2751 17.325C26.2751 18.6375 25.8813 19.6875 25.0282 20.5406C24.2407 21.3281 23.0594 21.8531 21.6813 21.9844V27.9562H19.8438V21.9844C18.2688 21.7875 17.0219 21.2625 16.1688 20.2781C15.3157 19.2937 14.8563 18.0469 14.8563 16.4719H18.2032C18.2032 17.3906 18.4001 18.1125 18.8594 18.5719C19.3188 19.0312 19.9094 19.2937 20.7626 19.2937C21.4188 19.2937 21.9438 19.0969 22.3376 18.7688C22.6657 18.4406 22.8626 17.9156 22.8626 17.325Z" fill="#FECB4D"/>
<path d="M14.0032 30.2529L15.0532 39.5061C15.1845 40.5561 16.0376 41.3436 17.1532 41.3436H23.9126C24.9626 41.3436 25.8813 40.5561 26.0126 39.5061L27.0626 30.2529C27.1938 29.0061 26.2095 27.9561 24.9626 27.9561H16.1032C14.8563 27.9561 13.872 29.0061 14.0032 30.2529Z" fill="#FF5892"/>
<path fill-rule="evenodd" clip-rule="evenodd" d="M13.5137 30.3045C13.3507 28.7557 14.5756 27.4639 16.1032 27.4639H24.9626C26.4902 27.4639 27.7151 28.7557 27.5521 30.3045L27.5519 30.3064L26.5013 39.5643L26.501 39.5671C26.3381 40.8699 25.2042 41.8357 23.9126 41.8357H17.1532C15.7864 41.8357 14.7265 40.8604 14.5648 39.5671L14.5645 39.5643L13.5139 30.3064L13.5137 30.3045ZM14.4925 30.1996C14.4926 30.2002 14.4926 30.2008 14.4927 30.2014L15.5419 39.4476C15.6438 40.253 16.2897 40.8514 17.1532 40.8514H23.9126C24.7201 40.8514 25.423 40.2436 25.5239 39.4476L26.5731 30.2014C26.5732 30.2007 26.5732 30.2001 26.5733 30.1994C26.6715 29.2553 25.9281 28.4482 24.9626 28.4482H16.1032C15.1377 28.4482 14.3942 29.2554 14.4925 30.1996Z" fill="#2A3C65"/>
<path d="M14.7907 16.2095C14.7907 15.8157 14.7251 15.4876 14.5282 15.1595C14.1344 14.4376 13.4126 13.9126 12.4938 13.9126H12.2313V14.1751C12.2313 15.0938 12.8219 15.947 13.6094 16.2751C13.8719 16.4063 14.2001 16.472 14.4626 16.472H14.7251V16.2095H14.7907Z" fill="#06D506"/>
<path fill-rule="evenodd" clip-rule="evenodd" d="M11.9032 13.9126C11.9032 13.7314 12.0501 13.5845 12.2313 13.5845H12.4938C13.5477 13.5845 14.37 14.1885 14.8131 14.9965C15.0457 15.3869 15.1188 15.7761 15.1188 16.2095C15.1188 16.2834 15.0944 16.3515 15.0532 16.4064V16.472C15.0532 16.6532 14.9063 16.8001 14.7251 16.8001H14.4626C14.1586 16.8001 13.7841 16.7268 13.4729 16.5737C12.5684 16.1916 11.9032 15.2223 11.9032 14.1751V13.9126ZM14.4563 16.0212C14.4312 16.057 14.413 16.0981 14.4038 16.1425C14.1967 16.1335 13.9493 16.0782 13.7562 15.9816C13.7495 15.9782 13.7426 15.9751 13.7357 15.9722C13.0893 15.7029 12.5885 15.0026 12.5607 14.2418C13.3103 14.2663 13.9049 14.7019 14.2401 15.3166C14.2423 15.3205 14.2445 15.3244 14.2468 15.3283C14.3757 15.543 14.4377 15.7587 14.4563 16.0212Z" fill="#2A3C65"/>
<path d="M35.5282 4.4625L38.2844 2.29688ZM37.6938 9.12187H40.4501ZM35.5282 13.8469L38.2844 15.9469ZM5.47192 13.8469L2.71567 15.9469ZM3.3063 9.12187H0.550049ZM5.47192 4.4625L2.71567 2.29688Z" fill="black"/>
<path fill-rule="evenodd" clip-rule="evenodd" d="M2.45766 2.09417C2.56962 1.95167 2.7759 1.92692 2.9184 2.03888L5.67465 4.2045C5.81714 4.31646 5.8419 4.52274 5.72993 4.66524C5.61797 4.80773 5.4117 4.83249 5.2692 4.72052L2.51295 2.5549C2.37046 2.44294 2.3457 2.23666 2.45766 2.09417ZM38.5424 2.09417C38.6544 2.23666 38.6296 2.44294 38.4871 2.5549L35.7309 4.72052C35.5884 4.83249 35.3821 4.80773 35.2702 4.66524C35.1582 4.52274 35.183 4.31646 35.3255 4.2045L38.0817 2.03888C38.2242 1.92692 38.4305 1.95167 38.5424 2.09417ZM0.221924 9.12189C0.221924 8.94067 0.36883 8.79376 0.550049 8.79376H3.3063C3.48752 8.79376 3.63442 8.94067 3.63442 9.12189C3.63442 9.30311 3.48752 9.45001 3.3063 9.45001H0.550049C0.36883 9.45001 0.221924 9.30311 0.221924 9.12189ZM37.3657 9.12189C37.3657 8.94067 37.5126 8.79376 37.6938 8.79376H40.4501C40.6313 8.79376 40.7782 8.94067 40.7782 9.12189C40.7782 9.30311 40.6313 9.45001 40.4501 9.45001H37.6938C37.5126 9.45001 37.3657 9.30311 37.3657 9.12189ZM5.73293 13.648C5.84275 13.7922 5.81493 13.9981 5.67078 14.1079L2.91453 16.2079C2.77038 16.3177 2.5645 16.2899 2.45467 16.1457C2.34485 16.0016 2.37267 15.7957 2.51682 15.6859L5.27307 13.5859C5.41721 13.4761 5.6231 13.5039 5.73293 13.648ZM35.2672 13.648C35.377 13.5039 35.5829 13.4761 35.727 13.5859L38.4833 15.6859C38.6274 15.7957 38.6553 16.0016 38.5454 16.1457C38.4356 16.2899 38.2297 16.3177 38.0856 16.2079L35.3293 14.1079C35.1852 13.9981 35.1573 13.7922 35.2672 13.648Z" fill="#2A3C65"/>
</svg>
