<svg width="43" height="42" viewBox="0 0 43 42" fill="none" xmlns="http://www.w3.org/2000/svg">
<path d="M33.9234 7.40489C34.7354 8.21692 34.7354 9.53721 33.9234 10.3492C33.1114 11.1613 31.7926 11.1598 30.9806 10.3477C30.1685 9.53557 29.0278 5.45361 29.0278 5.45361C29.0278 5.45361 33.1113 6.59278 33.9234 7.40489Z" fill="#0E9C4A"/>
<path d="M35.6017 12.4594C35.4867 12.4595 35.3765 12.414 35.2951 12.3328L33.616 10.6563C33.6068 10.6467 33.5979 10.6369 33.5894 10.6267L30.7977 7.8349C30.6284 7.66559 30.6284 7.39119 30.7977 7.22188C30.967 7.05257 31.2414 7.05257 31.4107 7.22188L34.2291 10.0403C34.2385 10.0497 34.2473 10.0593 34.2554 10.0691L35.9082 11.719C35.9895 11.8004 36.0352 11.9106 36.0353 12.0256C36.0353 12.1406 35.9898 12.251 35.9086 12.3324C35.8683 12.3728 35.8205 12.4047 35.7678 12.4265C35.7151 12.4483 35.6587 12.4595 35.6017 12.4594ZM37.2782 7.40489C36.4662 8.21692 36.4662 9.53721 37.2782 10.3492C38.0902 11.1613 39.409 11.1598 40.221 10.3477C41.0331 9.53557 42.1738 5.45361 42.1738 5.45361C42.1738 5.45361 38.0904 6.59278 37.2782 7.40489Z" fill="#0E9C4A"/>
<path d="M35.6017 12.4593C35.5131 12.4594 35.4267 12.4325 35.3539 12.382C35.2812 12.3316 35.2256 12.2601 35.1946 12.1771C35.1636 12.0942 35.1588 12.0038 35.1807 11.918C35.2026 11.8322 35.2502 11.7552 35.3172 11.6973L36.9459 10.0689C36.9544 10.0588 36.9628 10.0495 36.9722 10.0401L39.7906 7.22171C39.9599 7.0524 40.2343 7.0524 40.4036 7.22171C40.5729 7.39102 40.5729 7.66542 40.4036 7.83473L37.6114 10.6269C37.6031 10.6369 37.5944 10.6465 37.5852 10.6557L35.9082 12.3323C35.868 12.3726 35.8202 12.4045 35.7676 12.4263C35.715 12.4481 35.6586 12.4593 35.6017 12.4593Z" fill="#0E9C4A"/>
<path d="M35.6017 15.3142C35.5447 15.3142 35.4883 15.303 35.4357 15.2813C35.3831 15.2595 35.3353 15.2276 35.295 15.1873C35.2548 15.147 35.2228 15.0992 35.2011 15.0466C35.1793 14.994 35.1681 14.9376 35.1681 14.8807V12.0258C35.1681 11.7862 35.3621 11.5923 35.6017 11.5923C35.8413 11.5923 36.0352 11.7862 36.0352 12.0258V14.8806C36.0353 14.9375 36.0241 14.9939 36.0023 15.0466C35.9805 15.0992 35.9486 15.147 35.9083 15.1873C35.8681 15.2275 35.8203 15.2595 35.7676 15.2813C35.715 15.303 35.6586 15.3142 35.6017 15.3142ZM19.8226 14.6434C20.6346 15.4555 20.6346 16.7758 19.8226 17.5878C19.0105 18.3998 17.6918 18.3983 16.8798 17.5862C16.0677 16.7741 14.9269 12.6922 14.9269 12.6922C14.9269 12.6922 19.0104 13.8313 19.8226 14.6434Z" fill="#0E9C4A"/>
<path d="M21.5008 19.6982C21.3859 19.6983 21.2756 19.6527 21.1943 19.5716L19.5152 17.8946C19.5068 17.8858 19.4986 17.8768 19.4906 17.8676L16.6968 15.0738C16.5275 14.9044 16.5275 14.63 16.6968 14.4607C16.8661 14.2914 17.1405 14.2914 17.3098 14.4607L20.1283 17.2792C20.1367 17.2876 20.1448 17.2966 20.1524 17.3054L21.8074 18.9578C21.8886 19.0392 21.9343 19.1495 21.9344 19.2645C21.9345 19.3795 21.8889 19.4898 21.8078 19.5713C21.7675 19.6116 21.7196 19.6435 21.6669 19.6653C21.6143 19.6871 21.5578 19.6983 21.5008 19.6982ZM23.1775 14.6434C22.3654 15.4554 22.3654 16.7757 23.1775 17.5878C23.9895 18.3998 25.3082 18.3983 26.1202 17.5862C26.9324 16.7741 28.0731 12.6921 28.0731 12.6921C28.0731 12.6921 23.9896 13.8313 23.1775 14.6434Z" fill="#0E9C4A"/>
<path d="M21.5008 19.6983C21.4438 19.6984 21.3874 19.6872 21.3347 19.6655C21.2821 19.6437 21.2342 19.6118 21.1939 19.5715C21.1535 19.5313 21.1215 19.4835 21.0997 19.4308C21.0778 19.3782 21.0665 19.3218 21.0665 19.2648C21.0665 19.1336 21.1241 19.0158 21.2159 18.9363L22.8472 17.3054C22.8548 17.2961 22.8629 17.2876 22.8713 17.2792L25.6897 14.4607C25.8591 14.2914 26.1335 14.2914 26.3028 14.4607C26.4721 14.63 26.4721 14.9044 26.3028 15.0737L23.5085 17.868C23.501 17.8771 23.4929 17.8859 23.4844 17.8942L21.8075 19.5712C21.7672 19.6115 21.7194 19.6435 21.6668 19.6653C21.6142 19.6871 21.5578 19.6984 21.5008 19.6983Z" fill="#0E9C4A"/>
<path d="M21.5008 22.5531C21.4439 22.5532 21.3875 22.542 21.3349 22.5202C21.2823 22.4984 21.2345 22.4665 21.1942 22.4262C21.1539 22.386 21.122 22.3382 21.1002 22.2855C21.0784 22.2329 21.0673 22.1765 21.0673 22.1196V19.2648C21.0673 19.0252 21.2612 18.8313 21.5008 18.8313C21.7404 18.8313 21.9344 19.0252 21.9344 19.2648V22.1196C21.9344 22.1766 21.9232 22.233 21.9015 22.2856C21.8797 22.3382 21.8478 22.386 21.8075 22.4263C21.7672 22.4665 21.7194 22.4985 21.6668 22.5202C21.6142 22.542 21.5578 22.5532 21.5008 22.5531ZM5.72178 21.4923C6.53381 22.3043 6.53381 23.6246 5.72178 24.4367C4.90975 25.2487 3.59102 25.2472 2.77899 24.4351C1.96688 23.623 0.826157 19.541 0.826157 19.541C0.826157 19.541 4.90959 20.6801 5.72178 21.4923Z" fill="#0E9C4A"/>
<path d="M7.39997 26.5468C7.28506 26.5469 7.1748 26.5014 7.09342 26.4202L5.41433 24.7437C5.40509 24.7341 5.3962 24.7243 5.38767 24.7141L2.59598 21.9224C2.42667 21.7531 2.42667 21.4787 2.59598 21.3094C2.76529 21.1401 3.03969 21.1401 3.209 21.3094L6.02743 24.1278C6.03678 24.1371 6.04564 24.1468 6.05368 24.1566L7.70653 25.8065C7.7878 25.8878 7.83349 25.9981 7.83356 26.1131C7.83364 26.2281 7.7881 26.3384 7.70694 26.4199C7.66663 26.4602 7.61877 26.4922 7.5661 26.5139C7.51342 26.5357 7.45697 26.5469 7.39997 26.5468ZM9.07661 21.4923C8.26458 22.3043 8.26458 23.6246 9.07661 24.4366C9.88864 25.2487 11.2074 25.2472 12.0194 24.4351C12.8315 23.623 13.9722 19.541 13.9722 19.541C13.9722 19.541 9.88872 20.6801 9.07661 21.4923Z" fill="#0E9C4A"/>
<path d="M7.39998 26.5467C7.31144 26.5468 7.225 26.5199 7.15224 26.4694C7.07948 26.419 7.02389 26.3475 6.99293 26.2645C6.96196 26.1816 6.95711 26.0912 6.97902 26.0054C7.00093 25.9196 7.04855 25.8426 7.11549 25.7847L8.74422 24.1563C8.75267 24.1462 8.76112 24.1369 8.77047 24.1275L11.5889 21.3091C11.7582 21.1398 12.0326 21.1398 12.2019 21.3091C12.3712 21.4784 12.3712 21.7528 12.2019 21.9221L9.40974 24.7143C9.40145 24.7243 9.39269 24.7339 9.38349 24.7431L7.70653 26.4197C7.6663 26.46 7.61851 26.4919 7.56591 26.5137C7.51331 26.5355 7.45692 26.5467 7.39998 26.5467Z" fill="#0E9C4A"/>
<path d="M7.39998 29.4015C7.34304 29.4016 7.28665 29.3904 7.23404 29.3686C7.18142 29.3468 7.13362 29.3149 7.09335 29.2746C7.05309 29.2344 7.02116 29.1866 6.99938 29.1339C6.9776 29.0813 6.96641 29.0249 6.96645 28.968V26.1132C6.96645 25.8736 7.16037 25.6797 7.39998 25.6797C7.63959 25.6797 7.83352 25.8736 7.83352 26.1132V28.968C7.83355 29.0249 7.82236 29.0813 7.80058 29.1339C7.77881 29.1866 7.74687 29.2344 7.70661 29.2746C7.66634 29.3149 7.61854 29.3468 7.56593 29.3686C7.51331 29.3904 7.45692 29.4016 7.39998 29.4015Z" fill="#0E9C4A"/>
<path d="M13.6745 40.2347C13.6745 40.8651 13.1634 41.3762 12.533 41.3762H3.69192C3.06151 41.3762 2.55045 40.8651 2.55045 40.2347C2.55045 39.6043 3.06151 39.0933 3.69192 39.0933H12.5329C13.1634 39.0933 13.6745 39.6043 13.6745 40.2347Z" fill="#F78721"/>
<path d="M12.2479 37.9518C12.2479 38.5822 11.7368 39.0932 11.1064 39.0932H2.2654C1.63499 39.0932 1.12393 38.5822 1.12393 37.9518C1.12393 37.3214 1.63499 36.8103 2.2654 36.8103H11.1064C11.7368 36.8103 12.2479 37.3214 12.2479 37.9518Z" fill="#FDCF17"/>
<path d="M13.6745 35.6691C13.6745 36.2995 13.1634 36.8105 12.533 36.8105H3.69192C3.06151 36.8105 2.55045 36.2995 2.55045 35.6691C2.55045 35.0386 3.06151 34.5276 3.69192 34.5276H12.5329C13.1634 34.5276 13.6745 35.0386 13.6745 35.6691Z" fill="#F78721"/>
<path d="M12.2479 33.3861C12.2479 34.0165 11.7368 34.5276 11.1064 34.5276H2.2654C1.63499 34.5276 1.12393 34.0165 1.12393 33.3861C1.12393 32.7557 1.63499 32.2446 2.2654 32.2446H11.1064C11.7368 32.2446 12.2479 32.7557 12.2479 33.3861Z" fill="#FDCF17"/>
<path d="M13.6744 40.2337V40.2356C13.6744 40.8651 13.1634 41.3761 12.5339 41.3761H9.81383C10.4433 41.3761 10.9563 40.8651 10.9563 40.2356V40.2337C10.9563 39.6042 10.4433 39.0932 9.81383 39.0932H12.5339C13.1634 39.0932 13.6744 39.6041 13.6744 40.2337ZM12.2483 37.9508V37.9527C12.2483 38.5822 11.7374 39.0932 11.1059 39.0932H8.38779C9.0173 39.0932 9.52827 38.5822 9.52827 37.9527V37.9508C9.52827 37.3213 9.0173 36.8103 8.38779 36.8103H11.1059C11.7374 36.8103 12.2483 37.3213 12.2483 37.9508Z" fill="black" fill-opacity="0.0705882"/>
<path d="M13.6744 35.668V35.6699C13.6744 36.2994 13.1634 36.8104 12.5339 36.8104H9.81383C10.4433 36.8104 10.9563 36.2994 10.9563 35.6699V35.668C10.9563 35.0385 10.4433 34.5276 9.81383 34.5276H12.5339C13.1634 34.5275 13.6744 35.0384 13.6744 35.668ZM12.2483 33.3851V33.387C12.2483 34.0165 11.7374 34.5275 11.1059 34.5275H8.38779C9.0173 34.5275 9.52827 34.0165 9.52827 33.387V33.3851C9.52827 32.7556 9.0173 32.2446 8.38779 32.2446H11.1059C11.7374 32.2446 12.2483 32.7556 12.2483 33.3851Z" fill="black" fill-opacity="0.0705882"/>
<path d="M13.6745 31.1031C13.6745 31.7335 13.1634 32.2446 12.533 32.2446H3.69192C3.06151 32.2446 2.55045 31.7335 2.55045 31.1031C2.55045 30.4727 3.06151 29.9617 3.69192 29.9617H12.5329C13.1634 29.9617 13.6745 30.4727 13.6745 31.1031Z" fill="#F78721"/>
<path d="M12.2479 28.8204C12.2479 29.4508 11.7368 29.9619 11.1064 29.9619H2.2654C1.63499 29.9619 1.12393 29.4508 1.12393 28.8204C1.12393 28.19 1.63499 27.679 2.2654 27.679H11.1064C11.7368 27.679 12.2479 28.19 12.2479 28.8204Z" fill="#FDCF17"/>
<path d="M13.6744 31.1024V31.1043C13.6744 31.7338 13.1634 32.2447 12.5339 32.2447H9.81383C10.4433 32.2447 10.9563 31.7338 10.9563 31.1043V31.1024C10.9563 30.4729 10.4433 29.9619 9.81383 29.9619H12.5339C13.1634 29.9618 13.6744 30.4728 13.6744 31.1024ZM12.2483 28.8194V28.8213C12.2483 29.4508 11.7374 29.9618 11.1059 29.9618H8.38779C9.0173 29.9618 9.52827 29.4508 9.52827 28.8213V28.8194C9.52827 28.1899 9.0173 27.679 8.38779 27.679H11.1059C11.7374 27.679 12.2483 28.1899 12.2483 28.8194Z" fill="black" fill-opacity="0.0705882"/>
<path d="M27.7752 40.2347C27.7752 40.8651 27.2642 41.3762 26.6338 41.3762H17.7928C17.1623 41.3762 16.6513 40.8651 16.6513 40.2347C16.6513 39.6043 17.1623 39.0933 17.7928 39.0933H26.6338C27.2642 39.0933 27.7752 39.6043 27.7752 40.2347Z" fill="#F78721"/>
<path d="M26.3487 37.9518C26.3487 38.5822 25.8376 39.0932 25.2072 39.0932H16.3661C15.7357 39.0932 15.2247 38.5822 15.2247 37.9518C15.2247 37.3214 15.7357 36.8103 16.3661 36.8103H25.2071C25.8376 36.8103 26.3487 37.3214 26.3487 37.9518Z" fill="#FDCF17"/>
<path d="M27.7752 35.6691C27.7752 36.2995 27.2642 36.8105 26.6338 36.8105H17.7928C17.1623 36.8105 16.6513 36.2995 16.6513 35.6691C16.6513 35.0386 17.1623 34.5276 17.7928 34.5276H26.6338C27.2642 34.5276 27.7752 35.0386 27.7752 35.6691Z" fill="#F78721"/>
<path d="M26.3487 33.3861C26.3487 34.0165 25.8376 34.5276 25.2072 34.5276H16.3661C15.7357 34.5276 15.2247 34.0165 15.2247 33.3861C15.2247 32.7557 15.7357 32.2446 16.3661 32.2446H25.2071C25.8376 32.2446 26.3487 32.7557 26.3487 33.3861Z" fill="#FDCF17"/>
<path d="M27.7752 40.2337V40.2356C27.7752 40.8651 27.2643 41.3761 26.6347 41.3761H23.9147C24.5442 41.3761 25.0571 40.8651 25.0571 40.2356V40.2337C25.0571 39.6042 24.5442 39.0932 23.9147 39.0932H26.6347C27.2643 39.0932 27.7752 39.6041 27.7752 40.2337ZM26.3491 37.9508V37.9527C26.3491 38.5822 25.8381 39.0932 25.2067 39.0932H22.4886C23.1181 39.0932 23.629 38.5822 23.629 37.9527V37.9508C23.629 37.3213 23.1181 36.8103 22.4886 36.8103H25.2067C25.8381 36.8103 26.3491 37.3213 26.3491 37.9508Z" fill="black" fill-opacity="0.0705882"/>
<path d="M27.7752 35.668V35.6699C27.7752 36.2994 27.2643 36.8104 26.6347 36.8104H23.9147C24.5442 36.8104 25.0571 36.2994 25.0571 35.6699V35.668C25.0571 35.0385 24.5442 34.5276 23.9147 34.5276H26.6347C27.2643 34.5275 27.7752 35.0384 27.7752 35.668ZM26.3491 33.3851V33.387C26.3491 34.0165 25.8381 34.5275 25.2067 34.5275H22.4886C23.1181 34.5275 23.629 34.0165 23.629 33.387V33.3851C23.629 32.7556 23.1181 32.2446 22.4886 32.2446H25.2067C25.8381 32.2446 26.3491 32.7556 26.3491 33.3851Z" fill="black" fill-opacity="0.0705882"/>
<path d="M27.7752 31.1031C27.7752 31.7335 27.2642 32.2446 26.6338 32.2446H17.7928C17.1623 32.2446 16.6513 31.7335 16.6513 31.1031C16.6513 30.4727 17.1623 29.9617 17.7928 29.9617H26.6338C27.2642 29.9617 27.7752 30.4727 27.7752 31.1031Z" fill="#F78721"/>
<path d="M26.3487 28.8204C26.3487 29.4508 25.8376 29.9619 25.2072 29.9619H16.3661C15.7357 29.9619 15.2247 29.4508 15.2247 28.8204C15.2247 28.19 15.7357 27.679 16.3661 27.679H25.2071C25.8376 27.679 26.3487 28.19 26.3487 28.8204Z" fill="#FDCF17"/>
<path d="M27.7752 31.1024V31.1043C27.7752 31.7338 27.2643 32.2447 26.6347 32.2447H23.9147C24.5442 32.2447 25.0571 31.7338 25.0571 31.1043V31.1024C25.0571 30.4729 24.5442 29.9619 23.9147 29.9619H26.6347C27.2643 29.9618 27.7752 30.4728 27.7752 31.1024ZM26.3491 28.8194V28.8213C26.3491 29.4508 25.8381 29.9618 25.2067 29.9618H22.4886C23.1181 29.9618 23.629 29.4508 23.629 28.8213V28.8194C23.629 28.1899 23.1181 27.679 22.4886 27.679H25.2067C25.8381 27.679 26.3491 28.1899 26.3491 28.8194Z" fill="black" fill-opacity="0.0705882"/>
<path d="M27.7752 26.5375C27.7752 27.1679 27.2642 27.6789 26.6338 27.6789H17.7928C17.1623 27.6789 16.6513 27.1679 16.6513 26.5375C16.6513 25.9071 17.1623 25.396 17.7928 25.396H26.6338C27.2642 25.396 27.7752 25.9071 27.7752 26.5375Z" fill="#F78721"/>
<path d="M26.3487 24.2545C26.3487 24.8849 25.8376 25.396 25.2072 25.396H16.3661C15.7357 25.396 15.2247 24.8849 15.2247 24.2545C15.2247 23.6241 15.7357 23.113 16.3661 23.113H25.2071C25.8376 23.113 26.3487 23.6241 26.3487 24.2545Z" fill="#FDCF17"/>
<path d="M27.7752 21.9715C27.7752 22.602 27.2642 23.113 26.6338 23.113H17.7928C17.1623 23.113 16.6513 22.602 16.6513 21.9715C16.6513 21.3411 17.1623 20.8301 17.7928 20.8301H26.6338C27.2642 20.8301 27.7752 21.3411 27.7752 21.9715Z" fill="#F78721"/>
<path d="M27.7752 26.5364V26.5383C27.7752 27.1678 27.2643 27.6788 26.6347 27.6788H23.9147C24.5442 27.6788 25.0571 27.1678 25.0571 26.5383V26.5364C25.0571 25.9069 24.5442 25.396 23.9147 25.396H26.6347C27.2643 25.3959 27.7752 25.9069 27.7752 26.5364ZM26.3491 24.2535V24.2554C26.3491 24.8849 25.8381 25.3959 25.2067 25.3959H22.4886C23.1181 25.3959 23.629 24.8849 23.629 24.2554V24.2535C23.629 23.624 23.1181 23.113 22.4886 23.113H25.2067C25.8381 23.113 26.3491 23.624 26.3491 24.2535Z" fill="black" fill-opacity="0.0705882"/>
<path d="M27.7752 21.9708V21.9727C27.7752 22.6022 27.2643 23.1132 26.6347 23.1132H23.9147C24.5442 23.1132 25.0571 22.6022 25.0571 21.9727V21.9708C25.0571 21.3413 24.5442 20.8303 23.9147 20.8303H26.6347C27.2643 20.8302 27.7752 21.3412 27.7752 21.9708Z" fill="black" fill-opacity="0.0705882"/>
<path d="M41.8761 40.2347C41.8761 40.8651 41.365 41.3762 40.7346 41.3762H31.8936C31.2632 41.3762 30.7521 40.8651 30.7521 40.2347C30.7521 39.6043 31.2632 39.0933 31.8936 39.0933H40.7346C41.365 39.0933 41.8761 39.6043 41.8761 40.2347Z" fill="#F78721"/>
<path d="M40.4495 37.9518C40.4495 38.5822 39.9384 39.0932 39.308 39.0932H30.467C29.8366 39.0932 29.3255 38.5822 29.3255 37.9518C29.3255 37.3214 29.8366 36.8103 30.467 36.8103H39.308C39.9384 36.8103 40.4495 37.3214 40.4495 37.9518Z" fill="#FDCF17"/>
<path d="M41.8761 35.6691C41.8761 36.2995 41.365 36.8105 40.7346 36.8105H31.8936C31.2632 36.8105 30.7521 36.2995 30.7521 35.6691C30.7521 35.0386 31.2632 34.5276 31.8936 34.5276H40.7346C41.365 34.5276 41.8761 35.0386 41.8761 35.6691Z" fill="#F78721"/>
<path d="M40.4495 33.3861C40.4495 34.0165 39.9384 34.5276 39.308 34.5276H30.467C29.8366 34.5276 29.3255 34.0165 29.3255 33.3861C29.3255 32.7557 29.8366 32.2446 30.467 32.2446H39.308C39.9384 32.2446 40.4495 32.7557 40.4495 33.3861Z" fill="#FDCF17"/>
<path d="M41.8761 40.2337V40.2356C41.8761 40.8651 41.3651 41.3761 40.7356 41.3761H38.0155C38.645 41.3761 39.158 40.8651 39.158 40.2356V40.2337C39.158 39.6042 38.645 39.0932 38.0155 39.0932H40.7356C41.3651 39.0932 41.8761 39.6041 41.8761 40.2337ZM40.45 37.9508V37.9527C40.45 38.5822 39.939 39.0932 39.3075 39.0932H36.5894C37.2189 39.0932 37.7299 38.5822 37.7299 37.9527V37.9508C37.7299 37.3213 37.2189 36.8103 36.5894 36.8103H39.3075C39.939 36.8103 40.45 37.3213 40.45 37.9508Z" fill="black" fill-opacity="0.0705882"/>
<path d="M41.8761 35.668V35.6699C41.8761 36.2994 41.3651 36.8104 40.7356 36.8104H38.0155C38.645 36.8104 39.158 36.2994 39.158 35.6699V35.668C39.158 35.0385 38.645 34.5276 38.0155 34.5276H40.7356C41.3651 34.5275 41.8761 35.0384 41.8761 35.668ZM40.45 33.3851V33.387C40.45 34.0165 39.939 34.5275 39.3075 34.5275H36.5894C37.2189 34.5275 37.7299 34.0165 37.7299 33.387V33.3851C37.7299 32.7556 37.2189 32.2446 36.5894 32.2446H39.3075C39.939 32.2446 40.45 32.7556 40.45 33.3851Z" fill="black" fill-opacity="0.0705882"/>
<path d="M41.8761 31.1031C41.8761 31.7335 41.365 32.2446 40.7346 32.2446H31.8936C31.2632 32.2446 30.7521 31.7335 30.7521 31.1031C30.7521 30.4727 31.2632 29.9617 31.8936 29.9617H40.7346C41.365 29.9617 41.8761 30.4727 41.8761 31.1031Z" fill="#F78721"/>
<path d="M40.4495 28.8204C40.4495 29.4508 39.9384 29.9619 39.308 29.9619H30.467C29.8366 29.9619 29.3255 29.4508 29.3255 28.8204C29.3255 28.19 29.8366 27.679 30.467 27.679H39.308C39.9384 27.679 40.4495 28.19 40.4495 28.8204Z" fill="#FDCF17"/>
<path d="M41.8761 31.1024V31.1043C41.8761 31.7338 41.3651 32.2447 40.7356 32.2447H38.0155C38.645 32.2447 39.158 31.7338 39.158 31.1043V31.1024C39.158 30.4729 38.645 29.9619 38.0155 29.9619H40.7356C41.3651 29.9618 41.8761 30.4728 41.8761 31.1024ZM40.45 28.8194V28.8213C40.45 29.4508 39.939 29.9618 39.3075 29.9618H36.5894C37.2189 29.9618 37.7299 29.4508 37.7299 28.8213V28.8194C37.7299 28.1899 37.2189 27.679 36.5894 27.679H39.3075C39.939 27.679 40.45 28.1899 40.45 28.8194Z" fill="black" fill-opacity="0.0705882"/>
<path d="M41.8761 26.5375C41.8761 27.1679 41.365 27.6789 40.7346 27.6789H31.8936C31.2632 27.6789 30.7521 27.1679 30.7521 26.5375C30.7521 25.9071 31.2632 25.396 31.8936 25.396H40.7346C41.365 25.396 41.8761 25.9071 41.8761 26.5375Z" fill="#F78721"/>
<path d="M40.4495 24.2545C40.4495 24.8849 39.9384 25.396 39.308 25.396H30.467C29.8366 25.396 29.3255 24.8849 29.3255 24.2545C29.3255 23.6241 29.8366 23.113 30.467 23.113H39.308C39.9384 23.113 40.4495 23.6241 40.4495 24.2545Z" fill="#FDCF17"/>
<path d="M41.8761 21.9715C41.8761 22.602 41.365 23.113 40.7346 23.113H31.8936C31.2632 23.113 30.7521 22.602 30.7521 21.9715C30.7521 21.3411 31.2632 20.8301 31.8936 20.8301H40.7346C41.365 20.8301 41.8761 21.3411 41.8761 21.9715Z" fill="#F78721"/>
<path d="M40.4495 19.6888C40.4495 20.3192 39.9384 20.8303 39.308 20.8303H30.467C29.8366 20.8303 29.3255 20.3192 29.3255 19.6888C29.3255 19.0584 29.8366 18.5474 30.467 18.5474H39.308C39.9384 18.5474 40.4495 19.0584 40.4495 19.6888Z" fill="#FDCF17"/>
<path d="M41.8761 26.5364V26.5383C41.8761 27.1678 41.3651 27.6788 40.7356 27.6788H38.0155C38.645 27.6788 39.158 27.1678 39.158 26.5383V26.5364C39.158 25.9069 38.645 25.396 38.0155 25.396H40.7356C41.3651 25.3959 41.8761 25.9069 41.8761 26.5364ZM40.45 24.2535V24.2554C40.45 24.8849 39.939 25.3959 39.3075 25.3959H36.5894C37.2189 25.3959 37.7299 24.8849 37.7299 24.2554V24.2535C37.7299 23.624 37.2189 23.113 36.5894 23.113H39.3075C39.939 23.113 40.45 23.624 40.45 24.2535Z" fill="black" fill-opacity="0.0705882"/>
<path d="M41.8761 21.9708V21.9727C41.8761 22.6022 41.3651 23.1131 40.7356 23.1131H38.0155C38.645 23.1131 39.158 22.6022 39.158 21.9727V21.9708C39.158 21.3413 38.645 20.8303 38.0155 20.8303H40.7356C41.3651 20.8302 41.8761 21.3412 41.8761 21.9708ZM40.45 19.6878V19.6897C40.45 20.3192 39.939 20.8302 39.3075 20.8302H36.5894C37.2189 20.8302 37.7299 20.3192 37.7299 19.6897V19.6878C37.7299 19.0583 37.2189 18.5474 36.5894 18.5474H39.3075C39.939 18.5474 40.45 19.0583 40.45 19.6878Z" fill="black" fill-opacity="0.0705882"/>
<path d="M41.8761 17.4059C41.8761 18.0363 41.365 18.5473 40.7346 18.5473H31.8936C31.2632 18.5473 30.7521 18.0363 30.7521 17.4059C30.7521 16.7755 31.2632 16.2644 31.8936 16.2644H40.7346C41.365 16.2644 41.8761 16.7755 41.8761 17.4059Z" fill="#F78721"/>
<path d="M40.4495 15.1229C40.4495 15.7533 39.9384 16.2644 39.308 16.2644H30.467C29.8366 16.2644 29.3255 15.7533 29.3255 15.1229C29.3255 14.4925 29.8366 13.9814 30.467 13.9814H39.308C39.9384 13.9814 40.4495 14.4925 40.4495 15.1229Z" fill="#FDCF17"/>
<path d="M41.8761 17.4049V17.4067C41.8761 18.0362 41.3651 18.5472 40.7356 18.5472H38.0155C38.645 18.5472 39.158 18.0362 39.158 17.4067V17.4049C39.158 16.7753 38.645 16.2644 38.0155 16.2644H40.7356C41.3651 16.2643 41.8761 16.7753 41.8761 17.4049ZM40.45 15.1219V15.1238C40.45 15.7533 39.939 16.2643 39.3075 16.2643H36.5894C37.2189 16.2643 37.7299 15.7533 37.7299 15.1238V15.1219C37.7299 14.4924 37.2189 13.9814 36.5894 13.9814H39.3075C39.939 13.9814 40.45 14.4924 40.45 15.1219Z" fill="black" fill-opacity="0.0705882"/>
<path d="M3.35723 6.13483H5.32745V13.7203C5.32745 14.8639 6.25457 15.7911 7.39817 15.7911C8.54177 15.7911 9.46888 14.8639 9.46888 13.7203V6.13458H11.4388C11.7847 6.13458 11.971 5.72861 11.7455 5.46636L7.70332 0.764816C7.66535 0.720641 7.61827 0.685191 7.56532 0.660891C7.51238 0.636592 7.45481 0.624016 7.39655 0.624023C7.33829 0.624031 7.28073 0.636623 7.22779 0.660937C7.17484 0.685251 7.12778 0.720713 7.08981 0.764898L3.05027 5.46652C2.82493 5.72886 3.0113 6.13483 3.35723 6.13483Z" fill="#F14F4A"/>
</svg>
