<svg width="43" height="40" viewBox="0 0 43 40" fill="none" xmlns="http://www.w3.org/2000/svg">
<path fill-rule="evenodd" clip-rule="evenodd" d="M8.69122 2.61572H12.5504C12.8113 2.61572 13.0247 2.82917 13.0247 3.09003V12.7733C13.0247 13.0342 12.8112 13.2477 12.5504 13.2477H8.69122C8.43028 13.2477 8.21692 13.0343 8.21692 12.7733V3.09011C8.21692 2.82917 8.43036 2.61572 8.69122 2.61572Z" fill="#8D9CA8"/>
<path fill-rule="evenodd" clip-rule="evenodd" d="M11.4297 2.61572H12.5505C12.8114 2.61572 13.0248 2.82917 13.0248 3.09003V12.7733C13.0248 13.0342 12.8113 13.2477 12.5505 13.2477H11.4297C11.6905 13.2477 11.904 13.0343 11.904 12.7733V3.09011C11.904 2.82917 11.6905 2.61572 11.4297 2.61572Z" fill="#7A8C98"/>
<path fill-rule="evenodd" clip-rule="evenodd" d="M7.06087 13.5368L21.7166 3.35938L35.9393 14.0826V35.7068C35.9393 36.6642 35.1585 37.4451 34.2011 37.4451H8.79903C7.84148 37.4451 7.06079 36.6642 7.06079 35.7068V13.5368H7.06087Z" fill="#64B5F6"/>
<path fill-rule="evenodd" clip-rule="evenodd" d="M20.8624 3.95246L21.7165 3.35938L35.9392 14.0826V35.7068C35.9392 36.6642 35.1584 37.4451 34.201 37.4451H32.5603C33.5179 37.4451 34.2986 36.6641 34.2986 35.7068V14.0826L20.8624 3.95246Z" fill="#42A5F5"/>
<path fill-rule="evenodd" clip-rule="evenodd" d="M20.2316 1.51662C20.9612 0.964053 21.9904 0.951748 22.7481 1.5021L40.8844 14.6788C41.8333 15.3684 42.0458 16.6965 41.3576 17.6465C40.6688 18.5971 39.338 18.81 38.3882 18.1199L21.4999 5.84975L4.61174 18.1199C3.6619 18.81 2.33103 18.5971 1.64238 17.6465C0.954135 16.6965 1.1666 15.3684 2.11553 14.6788L20.2316 1.51662Z" fill="#FFDA2D"/>
<path fill-rule="evenodd" clip-rule="evenodd" d="M41.5549 15.4851C41.878 16.1647 41.8299 16.9948 41.3576 17.6469C40.6688 18.5975 39.3381 18.8103 38.3882 18.1203L21.4999 5.85014L4.61177 18.1203C3.66193 18.8103 2.33105 18.5975 1.6424 17.6469C1.16998 16.9948 1.12191 16.1647 1.44511 15.4851C1.50077 15.6014 1.5668 15.7123 1.6424 15.8167C2.33113 16.7673 3.66193 16.9801 4.61177 16.2901L21.4999 4.02002L38.3881 16.2902C39.338 16.9802 40.6688 16.7673 41.3575 15.8168C41.4331 15.7124 41.4992 15.6014 41.5549 15.4851Z" fill="#FFC700"/>
<path fill-rule="evenodd" clip-rule="evenodd" d="M25.3624 16.8817V18.4307C29.3043 22.1086 32.7573 27.4242 29.3782 31.8495C28.0239 33.6231 26.1037 34.573 23.8722 34.573H19.1276C16.8958 34.573 14.9752 33.6228 13.6211 31.8488C10.2429 27.4231 13.6958 22.1082 17.6374 18.4307V16.8817C17.3979 16.2419 17.2736 16.0027 16.6054 15.049C15.4449 13.3925 15.6801 12.8313 18.5149 13.8791C19.7047 14.319 19.2038 12.1714 21.4999 12.1714C23.7961 12.1714 23.2951 14.3189 24.485 13.8791C27.3197 12.8313 27.555 13.3925 26.3945 15.049C25.7263 16.0027 25.6019 16.2419 25.3624 16.8817Z" fill="#72D561"/>
<path fill-rule="evenodd" clip-rule="evenodd" d="M25.3625 16.8816V18.4306C29.3043 22.1085 32.7574 27.4241 29.3783 31.8495C28.0241 33.6231 26.1038 34.5729 23.8723 34.5729H22.5725C24.8041 34.5729 26.7244 33.6231 28.0786 31.8495C31.4577 27.4241 28.0046 22.1085 24.0628 18.4306V16.8816C24.3023 16.2419 24.4267 16.0026 25.0949 15.0489C25.6421 14.2678 25.8789 13.7303 25.6791 13.4903C27.359 13.0461 27.364 13.6653 26.3946 15.0489C25.7264 16.0027 25.602 16.2419 25.3625 16.8816ZM16.0212 13.4903C16.2158 13.2562 16.8253 13.3047 17.966 13.6854C17.7889 13.9037 17.5827 14.0149 17.2152 13.8789C16.7484 13.7064 16.3525 13.5778 16.0212 13.4903ZM20.8502 12.2403C22.408 12.6039 22.1236 14.2716 23.1854 13.879C23.3807 13.8068 23.5633 13.7425 23.7343 13.6855C23.3379 13.197 23.087 12.1714 21.5 12.1714C21.2528 12.1714 21.0381 12.1964 20.8502 12.2403Z" fill="#57CA5A"/>
<path fill-rule="evenodd" clip-rule="evenodd" d="M17.2488 16.7017H25.7512C26.2761 16.7017 26.7056 17.1311 26.7056 17.656C26.7056 18.1809 26.276 18.6104 25.7512 18.6104H17.2488C16.7241 18.6104 16.2946 18.1809 16.2946 17.656C16.2946 17.1311 16.7239 16.7017 17.2488 16.7017Z" fill="#FFDA2D"/>
<path fill-rule="evenodd" clip-rule="evenodd" d="M17.2488 16.7017H25.7511C26.2548 16.7017 26.6704 17.0971 26.7033 17.5928C26.6822 17.5914 26.6612 17.5906 26.6401 17.5906H18.1378C17.6129 17.5906 17.1835 18.0201 17.1835 18.545C17.1835 18.5662 17.1843 18.5872 17.1857 18.6081C16.69 18.5753 16.2946 18.1597 16.2946 17.656C16.2946 17.1311 16.7239 16.7017 17.2488 16.7017Z" fill="#FFC700"/>
<path d="M21.5 31.7561C24.4017 31.7561 26.754 29.4038 26.754 26.5021C26.754 23.6004 24.4017 21.248 21.5 21.248C18.5983 21.248 16.246 23.6004 16.246 26.5021C16.246 29.4038 18.5983 31.7561 21.5 31.7561Z" fill="#FDB800"/>
<path fill-rule="evenodd" clip-rule="evenodd" d="M21.5 21.2476C23.1598 21.2476 24.6397 22.0174 25.6025 23.2194C24.7031 22.499 23.5622 22.0679 22.3203 22.0679C19.4185 22.0679 17.0663 24.4202 17.0663 27.3219C17.0663 28.5638 17.4974 29.7048 18.2178 30.6041C17.0159 29.6412 16.246 28.1615 16.246 26.5016C16.246 23.5999 18.5983 21.2476 21.5 21.2476Z" fill="#F4A40E"/>
<path fill-rule="evenodd" clip-rule="evenodd" d="M21.6641 23.8984C21.6641 23.7244 21.7333 23.5575 21.8563 23.4344C21.9794 23.3113 22.1463 23.2422 22.3204 23.2422C22.4944 23.2422 22.6613 23.3113 22.7844 23.4344C22.9075 23.5575 22.9766 23.7244 22.9766 23.8984V24.2331C23.1018 24.266 23.2223 24.3126 23.3365 24.3713C23.5834 24.4974 23.7971 24.68 23.9602 24.9042C24.0596 25.0451 24.0995 25.2194 24.0712 25.3895C24.043 25.5595 23.9489 25.7116 23.8093 25.8128C23.6697 25.9139 23.4959 25.956 23.3255 25.9299C23.1551 25.9038 23.0018 25.8116 22.8989 25.6733C22.8558 25.6135 22.8018 25.5659 22.7418 25.5351C22.685 25.506 22.6174 25.4895 22.5425 25.4895H22.1981C22.0784 25.4895 21.969 25.539 21.8894 25.6186C21.8097 25.6983 21.7603 25.8076 21.7603 25.9273C21.7603 26.047 21.8097 26.1563 21.8894 26.236C21.969 26.3157 22.0784 26.3651 22.1981 26.3651H22.4427C22.9247 26.3651 23.3624 26.5618 23.6793 26.8788C23.9962 27.1957 24.1929 27.6334 24.1929 28.1154C24.1929 28.5974 23.9962 29.0352 23.6793 29.3521C23.4825 29.5492 23.2417 29.6966 22.9766 29.7822V30.1442C22.9766 30.3183 22.9075 30.4852 22.7844 30.6083C22.6613 30.7313 22.4944 30.8005 22.3204 30.8005C22.1463 30.8005 21.9794 30.7313 21.8563 30.6083C21.7333 30.4852 21.6641 30.3183 21.6641 30.1442V29.8095C21.5395 29.7767 21.4189 29.7305 21.3043 29.6715C21.0574 29.5453 20.8437 29.3627 20.6806 29.1385C20.5787 28.9978 20.5368 28.8223 20.5642 28.6507C20.5916 28.4791 20.686 28.3254 20.8267 28.2234C20.9675 28.1214 21.1429 28.0795 21.3146 28.1069C21.4862 28.1343 21.6399 28.2287 21.7419 28.3695C21.785 28.4291 21.839 28.4768 21.8991 28.5076C21.9558 28.5367 22.0233 28.5532 22.0983 28.5532H22.4428C22.5624 28.5532 22.6718 28.5038 22.7514 28.4241C22.8311 28.3444 22.8806 28.2351 22.8806 28.1154C22.8806 27.9957 22.8311 27.8864 22.7514 27.8067C22.6718 27.7271 22.5624 27.6776 22.4428 27.6776H22.1981C21.7161 27.6776 21.2784 27.4809 20.9614 27.164C20.6445 26.8471 20.4478 26.4093 20.4478 25.9273C20.4478 25.4453 20.6445 25.0075 20.9614 24.6906C21.1582 24.4935 21.3991 24.3461 21.6641 24.2605V23.8984Z" fill="#F4A40E"/>
<path d="M33.9291 38.9042C37.5382 38.9042 40.464 35.9784 40.464 32.3693C40.464 28.7602 37.5382 25.8345 33.9291 25.8345C30.32 25.8345 27.3943 28.7602 27.3943 32.3693C27.3943 35.9784 30.32 38.9042 33.9291 38.9042Z" fill="#FC685B"/>
<path fill-rule="evenodd" clip-rule="evenodd" d="M33.9293 25.8345C35.9426 25.8345 37.7431 26.7453 38.9419 28.177C37.8071 27.227 36.3453 26.6548 34.7496 26.6548C31.1405 26.6548 28.2147 29.5805 28.2147 33.1896C28.2147 34.7853 28.7869 36.2472 29.737 37.3819C28.3052 36.1832 27.3944 34.3827 27.3944 32.3693C27.3944 28.7602 30.3202 25.8345 33.9293 25.8345Z" fill="#F35244"/>
<path fill-rule="evenodd" clip-rule="evenodd" d="M35.8416 30.3494C35.9026 30.2885 35.9749 30.2401 36.0545 30.2072C36.1341 30.1742 36.2194 30.1572 36.3056 30.1572C36.3918 30.1572 36.4771 30.1742 36.5567 30.2072C36.6363 30.2401 36.7087 30.2885 36.7696 30.3494C36.8305 30.4103 36.8789 30.4827 36.9118 30.5623C36.9448 30.6419 36.9618 30.7272 36.9618 30.8134C36.9618 30.8996 36.9448 30.9849 36.9118 31.0645C36.8789 31.1441 36.8305 31.2164 36.7696 31.2774L32.0168 36.0301C31.9559 36.091 31.8835 36.1394 31.8039 36.1723C31.7243 36.2053 31.639 36.2223 31.5528 36.2223C31.4666 36.2223 31.3813 36.2053 31.3017 36.1723C31.2221 36.1394 31.1498 36.091 31.0888 36.0301C31.0279 35.9692 30.9796 35.8968 30.9466 35.8172C30.9136 35.7376 30.8966 35.6523 30.8966 35.5661C30.8966 35.4799 30.9136 35.3946 30.9466 35.315C30.9796 35.2354 31.0279 35.1631 31.0888 35.1021L35.8416 30.3494ZM31.7936 29.1528C31.5439 29.1525 31.2965 29.2016 31.0658 29.2972C30.8351 29.3927 30.6256 29.5329 30.4492 29.7097C30.1052 30.0539 29.8923 30.5292 29.8923 31.0541C29.8923 31.579 30.1052 32.0544 30.4492 32.3985C30.7933 32.7425 31.2687 32.9554 31.7936 32.9554C32.3185 32.9554 32.7939 32.7425 33.1379 32.3985C33.3147 32.2221 33.4549 32.0126 33.5505 31.7818C33.6461 31.5511 33.6951 31.3038 33.6948 31.0541C33.6948 30.5292 33.4819 30.0538 33.1379 29.7097C32.7939 29.3657 32.3185 29.1528 31.7936 29.1528ZM32.21 30.6378C32.1035 30.5313 31.9562 30.4653 31.7936 30.4653C31.6309 30.4653 31.4837 30.5312 31.3772 30.6378C31.2707 30.7442 31.2048 30.8915 31.2048 31.0542C31.2048 31.2168 31.2706 31.3641 31.3772 31.4705C31.4837 31.577 31.6309 31.643 31.7936 31.643C31.9562 31.643 32.1034 31.5771 32.21 31.4705C32.2647 31.4159 32.3081 31.351 32.3377 31.2796C32.3673 31.2081 32.3825 31.1315 32.3824 31.0542C32.3825 30.9768 32.3673 30.9002 32.3377 30.8288C32.3081 30.7573 32.2647 30.6924 32.21 30.6378ZM36.0649 33.4243C35.54 33.4243 35.0646 33.6372 34.7206 33.9812C34.3766 34.3252 34.1637 34.8006 34.1637 35.3255C34.1637 35.8504 34.3766 36.3258 34.7206 36.6698C35.0647 37.0139 35.54 37.2268 36.0649 37.2268C36.5899 37.2268 37.0652 37.0139 37.4093 36.6698C37.7533 36.3258 37.9662 35.8504 37.9662 35.3255C37.9662 34.8006 37.7533 34.3252 37.4093 33.9812C37.2329 33.8044 37.0234 33.6641 36.7927 33.5686C36.562 33.473 36.3147 33.4239 36.0649 33.4243ZM36.4813 34.9091C36.4267 34.8544 36.3618 34.811 36.2903 34.7814C36.2189 34.7518 36.1423 34.7366 36.0649 34.7367C35.9876 34.7366 35.911 34.7518 35.8395 34.7814C35.7681 34.811 35.7032 34.8544 35.6485 34.9091C35.5421 35.0156 35.4761 35.1629 35.4761 35.3255C35.4761 35.4882 35.542 35.6354 35.6485 35.7419C35.755 35.8484 35.9023 35.9143 36.0649 35.9143C36.2276 35.9143 36.3748 35.8485 36.4813 35.7419C36.5361 35.6873 36.5795 35.6224 36.6091 35.5509C36.6387 35.4795 36.6539 35.4029 36.6538 35.3255C36.6538 35.2482 36.6387 35.1716 36.6091 35.1001C36.5795 35.0287 36.5361 34.9638 36.4813 34.9091Z" fill="#F35244"/>
<path fill-rule="evenodd" clip-rule="evenodd" d="M31.2048 30.2321C31.205 30.076 31.2671 29.9263 31.3775 29.8159C31.4879 29.7055 31.6375 29.6435 31.7937 29.6433C32.1183 29.6433 32.3825 29.9075 32.3825 30.2321C32.3825 30.5571 32.1183 30.8214 31.7937 30.8214C31.4687 30.8214 31.2048 30.5571 31.2048 30.2321ZM33.6949 30.2321C33.6949 29.184 32.8418 28.3309 31.7937 28.3309C30.7452 28.3309 29.8921 29.184 29.8921 30.2321C29.8921 31.2806 30.7452 32.1337 31.7937 32.1337C32.8418 32.1337 33.6949 31.2806 33.6949 30.2321ZM36.6538 34.5038C36.6538 34.8284 36.39 35.0926 36.065 35.0926C35.74 35.0926 35.4758 34.8284 35.4758 34.5038C35.4759 34.3476 35.5381 34.1978 35.6485 34.0873C35.759 33.9769 35.9088 33.9147 36.065 33.9146C36.39 33.9145 36.6538 34.1788 36.6538 34.5038ZM34.1634 34.5038C34.1634 35.5519 35.0165 36.4054 36.0649 36.4054C37.1131 36.4054 37.9665 35.5519 37.9665 34.5038C37.9665 33.4554 37.113 32.6023 36.0649 32.6023C35.0165 32.6023 34.1634 33.4553 34.1634 34.5038ZM31.0888 34.2805C30.8323 34.5363 30.8323 34.9522 31.0888 35.2083C31.1497 35.2693 31.2221 35.3176 31.3018 35.3505C31.3815 35.3835 31.4668 35.4003 31.5531 35.4002C31.6391 35.4003 31.7244 35.3835 31.804 35.3505C31.8835 35.3176 31.9558 35.2693 32.0165 35.2083L36.7695 30.4553C37.0256 30.1996 37.0264 29.7837 36.7695 29.5276C36.7086 29.4666 36.6363 29.4182 36.5567 29.3852C36.4771 29.3522 36.3918 29.3352 36.3056 29.3352C36.2194 29.3352 36.1341 29.3522 36.0545 29.3852C35.9749 29.4182 35.9026 29.4666 35.8417 29.5276L31.0888 34.2805ZM21.5004 31.098C18.9647 31.098 16.9025 29.0355 16.9025 26.5001C16.9025 23.9652 18.9647 21.9026 21.5004 21.9026C24.0349 21.9026 26.0975 23.9651 26.0975 26.5001C26.0974 29.0355 24.0349 31.098 21.5004 31.098ZM21.5004 20.5899C18.2412 20.5899 15.5902 23.2417 15.5902 26.5001C15.5902 29.7589 18.2412 32.4103 21.5004 32.4103C24.7588 32.4103 27.4098 29.7589 27.4098 26.5001C27.4097 23.2417 24.7588 20.5899 21.5004 20.5899ZM23.3722 27.5942C23.3722 26.6293 22.5871 25.8444 21.6226 25.8444H21.3773C21.1402 25.8444 20.9402 25.6435 20.9402 25.4064C20.9402 25.1696 21.1402 24.9684 21.3773 24.9684H21.7217C21.8613 24.9684 21.994 25.0373 22.0769 25.1522C22.2897 25.4459 22.6998 25.512 22.9934 25.3C23.2871 25.0872 23.3536 24.6771 23.1408 24.3835C22.9011 24.0516 22.553 23.814 22.1565 23.7118V23.3779C22.1565 23.0154 21.8621 22.7218 21.5004 22.7218C21.4142 22.7217 21.3289 22.7387 21.2492 22.7717C21.1696 22.8046 21.0973 22.853 21.0363 22.9139C20.9754 22.9748 20.9271 23.0472 20.8941 23.1268C20.8611 23.2064 20.8442 23.2917 20.8442 23.3779V23.7397C20.1385 23.9653 19.6274 24.6272 19.6274 25.4064C19.6274 26.3709 20.4125 27.1571 21.3773 27.1571H21.6226C21.8598 27.1571 22.0598 27.3571 22.0598 27.5943C22.0598 27.8322 21.8598 28.0323 21.6226 28.0323H21.2779C21.1386 28.0323 21.0056 27.9635 20.9227 27.8485C20.7103 27.5549 20.3002 27.4883 20.0065 27.7011C19.7128 27.9135 19.6463 28.3237 19.8587 28.6173C20.0986 28.9494 20.4473 29.187 20.8441 29.2889V29.6228C20.8441 29.9853 21.1378 30.2794 21.5003 30.2794C21.8621 30.2794 22.1565 29.9854 22.1565 29.6228V29.261C22.861 29.0355 23.3722 28.3735 23.3722 27.5942ZM40.8261 17.2603C40.7131 17.4171 40.57 17.5499 40.4052 17.6509C40.2405 17.752 40.0573 17.8194 39.8663 17.8491C39.6759 17.8801 39.4813 17.8729 39.2937 17.828C39.1062 17.7831 38.9294 17.7014 38.7737 17.5876L21.8857 5.3176C21.7735 5.2361 21.6384 5.19221 21.4998 5.19221C21.3611 5.19221 21.226 5.2361 21.1138 5.3176L4.22632 17.5876C4.0706 17.7014 3.89383 17.7831 3.70627 17.828C3.51871 17.8729 3.3241 17.88 3.13374 17.8491C2.74451 17.7872 2.40441 17.5782 2.1739 17.2603C1.69877 16.6049 1.84577 15.6845 2.5012 15.2082L20.6179 2.04644C20.621 2.04373 20.624 2.04102 20.6276 2.03873C20.881 1.84685 21.187 1.75129 21.4946 1.75129C21.7991 1.75129 22.1048 1.84456 22.3624 2.03175L40.4989 15.2083C41.1542 15.6845 41.3008 16.6049 40.8261 17.2603ZM35.2831 25.3053V16.6738L21.5004 6.65979L7.71765 16.6738V35.7055C7.71765 36.3017 8.20246 36.7872 8.79866 36.7872H28.2607C27.7353 36.1159 27.3339 35.3563 27.0752 34.544C26.0963 34.9975 25.0235 35.2281 23.8717 35.2281H19.128C16.708 35.2281 14.5669 34.1684 13.0998 32.2455C11.4385 30.07 11.1456 27.5424 12.2277 24.7355C13.1087 22.4501 14.7658 20.3953 16.2232 18.8957C15.8665 18.5997 15.6386 18.1536 15.6386 17.6545C15.6386 17.0038 16.0274 16.4436 16.5834 16.1897C16.4635 15.997 16.3037 15.7598 16.0684 15.424C15.4826 14.5879 15.0076 13.7275 15.495 13.0957C16.0116 12.4256 17.1207 12.6624 18.7427 13.2621C18.7485 13.264 18.7539 13.2663 18.7589 13.2679C18.8099 13.2044 18.8804 13.0907 18.9345 13.0021C19.2796 12.4454 19.858 11.5137 21.5004 11.5137C23.1427 11.5137 23.72 12.4454 24.0655 13.0021C24.1205 13.0907 24.1908 13.2045 24.2411 13.2679C24.2457 13.2663 24.2515 13.264 24.2574 13.2621C25.8792 12.6624 26.9881 12.426 27.505 13.0957C27.9921 13.7275 27.5174 14.5879 26.9316 15.424C26.6971 15.7598 26.5362 15.997 26.4163 16.1897C26.9726 16.4435 27.3614 17.0038 27.3614 17.6545C27.3614 18.1532 27.1335 18.5997 26.7765 18.8952C28.5163 20.6816 30.3908 23.1012 31.1062 25.7541C31.9982 25.3721 32.9586 25.1756 33.929 25.1765C34.3834 25.1764 34.8368 25.2196 35.2831 25.3053ZM17.2488 17.3567C17.0871 17.3567 16.9508 17.4932 16.9508 17.6546C16.9508 17.8163 17.087 17.9529 17.2488 17.9529H25.7512C25.9128 17.9529 26.0491 17.8163 26.0491 17.6546C26.0491 17.4932 25.9129 17.3567 25.7512 17.3567H17.2488ZM25.8568 14.6708C26.0565 14.3868 26.181 14.1791 26.2596 14.0309C25.9826 14.0785 25.5067 14.1996 24.7128 14.4932C23.6818 14.8743 23.2058 14.1063 22.9497 13.6939C22.6487 13.2091 22.4115 12.8261 21.5004 12.8261C20.5881 12.8261 20.351 13.2091 20.0499 13.6939C19.7942 14.1063 19.3183 14.8743 18.2872 14.4932C17.4929 14.1995 17.0175 14.0785 16.74 14.0309C16.8186 14.1791 16.9435 14.3868 17.1428 14.6708C17.6055 15.3308 17.8269 15.6772 18.0017 16.0442H24.9979C25.1728 15.6771 25.3945 15.3308 25.8568 14.6708ZM26.7382 32.3677C26.7382 32.6571 26.756 32.9419 26.7888 33.2224C25.9145 33.6824 24.9353 33.9153 23.8717 33.9153H19.128C17.0979 33.9153 15.3743 33.0622 14.1428 31.4489C12.7771 29.6607 12.5449 27.5606 13.4522 25.2079C14.3669 22.8355 16.234 20.6959 17.7104 19.2652H25.2885C27.7817 21.6802 29.4066 24.1908 29.9158 26.4038C28.0005 27.6968 26.7382 29.8878 26.7382 32.3677ZM39.8082 32.3677C39.8082 29.1263 37.1707 26.4893 33.9289 26.4893C30.6879 26.4893 28.0505 29.1263 28.0505 32.3677C28.0505 35.6095 30.688 38.2466 33.9289 38.2466C37.1707 38.2466 39.8082 35.6095 39.8082 32.3677ZM8.87331 3.27059V8.95675L12.3685 6.41714V3.27059H8.87331ZM41.2699 14.1465L23.1335 0.969694C22.1534 0.257827 20.8005 0.265538 19.841 0.987905L13.6812 5.46353V3.08832C13.6812 2.46504 13.174 1.95776 12.5507 1.95776H8.69103C8.06776 1.95776 7.56089 2.46496 7.56089 3.08832V9.91044L1.73003 14.1465C0.489632 15.0477 0.212202 16.7898 1.11061 18.0302C1.54701 18.6326 2.19276 19.0284 2.9267 19.1456C3.07347 19.169 3.22186 19.1808 3.37049 19.1808C3.95233 19.1804 4.5172 18.9978 4.99733 18.6496L6.40482 17.627V35.7055C6.40482 37.0264 7.47845 38.1 8.79858 38.1H29.5926C30.7985 39.0154 32.3013 39.5593 33.9289 39.5593C37.8942 39.5593 41.1205 36.333 41.1205 32.3677C41.1205 29.3437 39.2445 26.7508 36.5958 25.6896V17.6275L38.0025 18.6496C38.603 19.086 39.3389 19.2621 40.0728 19.1456C40.8072 19.0284 41.4528 18.6326 41.8893 18.0302C42.7877 16.7898 42.5103 15.0477 41.2699 14.1465Z" fill="black"/>
</svg>
