<svg width="41" height="40" viewBox="0 0 41 40" fill="none" xmlns="http://www.w3.org/2000/svg">
<path d="M25.9246 21.9143C25.9246 29.3305 20.4501 30.9134 13.6967 30.9134C6.94319 30.9134 1.46875 29.3305 1.46875 21.9143C1.46875 14.498 6.94319 7.49316 13.6967 7.49316C20.4501 7.49316 25.9246 14.498 25.9246 21.9143Z" fill="#9CCC65"/>
<path d="M2.78125 23.2268C2.78125 15.8112 8.25569 8.80574 15.0092 8.80574C17.6433 8.80574 20.0813 9.87543 22.077 11.6151C19.8884 9.11287 16.9412 7.4939 13.6967 7.4939C6.94384 7.49324 1.46875 14.4974 1.46875 21.9137C1.46875 25.2153 2.55812 27.356 4.35756 28.7203C3.35875 27.3999 2.78125 25.6208 2.78125 23.2268Z" fill="#7CB342"/>
<path d="M29.6875 39.0312C35.1241 39.0312 39.5312 34.6241 39.5312 29.1875C39.5312 23.7509 35.1241 19.3438 29.6875 19.3438C24.2509 19.3438 19.8438 23.7509 19.8438 29.1875C19.8438 34.6241 24.2509 39.0312 29.6875 39.0312Z" fill="#FFE081"/>
<path d="M21.1562 30.5C21.1562 25.0636 25.5636 20.6563 31 20.6563C33.3842 20.6563 35.5695 21.5041 37.2731 22.9144C36.3505 21.7964 35.1919 20.8965 33.8804 20.2791C32.5689 19.6618 31.137 19.3424 29.6875 19.3438C24.2511 19.3438 19.8438 23.7511 19.8438 29.1875C19.8438 32.2397 21.2337 34.9671 23.4137 36.7731C21.9515 35.01 21.1528 32.7906 21.1562 30.5Z" fill="#FFCB29"/>
<path d="M10.6792 7.97028C11.6439 7.66119 12.6552 7.49319 13.6967 7.49319C14.7381 7.49319 15.7494 7.66119 16.7148 7.97028L19.9803 4.70478C20.3375 4.34755 20.5382 3.86303 20.5382 3.35783C20.5382 2.85262 20.3375 2.36811 19.9803 2.01087C19.623 1.65364 19.1385 1.45295 18.6333 1.45295C18.1281 1.45295 17.6436 1.65364 17.2863 2.01087L16.069 3.22887C16.0027 1.97084 14.9711 0.96875 13.6967 0.96875C12.4222 0.96875 11.3913 1.97084 11.3256 3.22887L10.1076 2.01087C9.75039 1.65373 9.26591 1.45312 8.76077 1.45318C8.25563 1.45324 7.77119 1.65397 7.41405 2.0112C7.0569 2.36844 6.85629 2.85292 6.85635 3.35806C6.85642 3.8632 7.05714 4.34763 7.41438 4.70478L10.6792 7.97028Z" fill="#7CB342"/>
<path d="M16.9038 30.1069C15.9417 30.208 14.8923 30.2572 13.6967 30.2572C5.58541 30.2572 2.125 27.7621 2.125 21.9143C2.125 14.5813 7.5325 8.14944 13.6967 8.14944C18.3711 8.14944 22.8382 11.9452 24.5596 17.3789C24.584 17.463 24.6249 17.5413 24.6801 17.6093C24.7352 17.6772 24.8034 17.7335 24.8806 17.7747C24.9578 17.816 25.0424 17.8414 25.1296 17.8494C25.2167 17.8574 25.3046 17.8479 25.388 17.8215C25.4714 17.7951 25.5487 17.7522 25.6154 17.6954C25.682 17.6387 25.7366 17.5692 25.7759 17.491C25.8153 17.4128 25.8386 17.3276 25.8445 17.2403C25.8504 17.1529 25.8388 17.0653 25.8104 16.9826C24.4126 12.5699 21.4535 9.21912 17.898 7.715L20.4442 5.16875C20.924 4.68806 21.1934 4.03665 21.1934 3.3575C21.1934 2.67835 20.924 2.02694 20.4442 1.54625C19.9636 1.06668 19.3123 0.797356 18.6333 0.797356C17.9543 0.797356 17.303 1.06668 16.8224 1.54625L16.3978 1.9715C15.8944 0.983187 14.8707 0.3125 13.6967 0.3125C12.5226 0.3125 11.4989 0.983187 10.9962 1.97084L10.5709 1.54691C10.0902 1.0677 9.43912 0.79861 8.76034 0.79861C8.08157 0.79861 7.43048 1.0677 6.94975 1.54691C6.71104 1.78415 6.52176 2.0664 6.3929 2.37731C6.26403 2.68822 6.19812 3.0216 6.199 3.35816C6.199 4.04197 6.46544 4.68509 6.94975 5.16809L9.50781 7.72747C4.55838 9.86094 0.8125 15.5788 0.8125 21.9136C0.8125 30.4724 7.69787 31.5697 13.6967 31.5697C14.9389 31.5697 16.0329 31.5185 17.0409 31.4122C17.1266 31.4031 17.2097 31.3773 17.2854 31.3361C17.3611 31.295 17.428 31.2393 17.4822 31.1723C17.5364 31.1053 17.5769 31.0283 17.6013 30.9456C17.6258 30.863 17.6337 30.7763 17.6246 30.6906C17.6156 30.6049 17.5898 30.5219 17.5486 30.4461C17.5074 30.3704 17.4518 30.3035 17.3848 30.2493C17.3178 30.1951 17.2407 30.1547 17.1581 30.1302C17.0754 30.1058 16.9888 30.0979 16.9031 30.1069H16.9038ZM7.87769 4.24016C7.7614 4.12463 7.66916 3.9872 7.6063 3.83581C7.54345 3.68442 7.51123 3.52208 7.5115 3.35816C7.5115 3.02347 7.64144 2.71044 7.87769 2.47484C8.1122 2.24153 8.42954 2.11056 8.76034 2.11056C9.09115 2.11056 9.40849 2.24153 9.643 2.47484L10.861 3.69219C10.9504 3.78251 11.0642 3.84486 11.1885 3.87162C11.3128 3.89839 11.4421 3.88841 11.5608 3.84291C11.6795 3.79741 11.7824 3.71835 11.8569 3.61538C11.9315 3.5124 11.9744 3.38997 11.9806 3.263C12.0278 2.34425 12.7818 1.625 13.6967 1.625C14.6115 1.625 15.3655 2.34491 15.4134 3.26366C15.4207 3.39007 15.4643 3.5117 15.539 3.61393C15.6137 3.71617 15.7163 3.79467 15.8345 3.83999C15.9527 3.88531 16.0815 3.89554 16.2054 3.86944C16.3293 3.84333 16.4431 3.78201 16.533 3.69284L17.751 2.47484C17.9852 2.24105 18.3027 2.10975 18.6336 2.10975C18.9646 2.10975 19.282 2.24105 19.5163 2.47484C20.0026 2.96178 20.0026 3.75453 19.5163 4.24016L16.5271 7.23003C15.6057 6.97156 14.6536 6.83932 13.6967 6.83694C12.7352 6.83694 11.7909 6.98 10.8768 7.23987L7.87769 4.24016Z" fill="black"/>
<path d="M13.6967 15.9221C14.4198 15.9221 15.0092 16.5114 15.0092 17.2346C15.0092 17.4087 15.0783 17.5756 15.2014 17.6986C15.3244 17.8217 15.4914 17.8909 15.6654 17.8909C15.8395 17.8909 16.0064 17.8217 16.1294 17.6986C16.2525 17.5756 16.3217 17.4087 16.3217 17.2346C16.3217 16.0146 15.4817 14.9968 14.3529 14.7028V13.9343C14.3529 13.7603 14.2838 13.5934 14.1607 13.4703C14.0376 13.3472 13.8707 13.2781 13.6967 13.2781C13.5226 13.2781 13.3557 13.3472 13.2326 13.4703C13.1095 13.5934 13.0404 13.7603 13.0404 13.9343V14.7028C11.9117 14.9961 11.0717 16.0153 11.0717 17.2346C11.0717 18.6823 12.249 19.8596 13.6967 19.8596C14.4198 19.8596 15.0092 20.4489 15.0092 21.1721C15.0092 21.8953 14.4198 22.4846 13.6967 22.4846C12.9735 22.4846 12.3842 21.896 12.3842 21.1721C12.3842 20.9981 12.315 20.8311 12.1919 20.7081C12.0689 20.585 11.902 20.5159 11.7279 20.5159C11.5539 20.5159 11.3869 20.585 11.2639 20.7081C11.1408 20.8311 11.0717 20.9981 11.0717 21.1721C11.0717 22.3921 11.9117 23.4106 13.0404 23.7039V24.473C13.0404 24.6471 13.1095 24.814 13.2326 24.9371C13.3557 25.0602 13.5226 25.1293 13.6967 25.1293C13.8707 25.1293 14.0376 25.0602 14.1607 24.9371C14.2838 24.814 14.3529 24.6471 14.3529 24.473V23.7039C15.4817 23.4106 16.3217 22.3914 16.3217 21.1721C16.3217 19.7244 15.1443 18.5471 13.6967 18.5471C12.9728 18.5471 12.3842 17.9585 12.3842 17.2346C12.3842 16.5108 12.9728 15.9221 13.6967 15.9221ZM32.9687 30.1719C31.7022 30.1719 30.6719 31.2022 30.6719 32.4688C30.6719 33.7354 31.7022 34.7657 32.9687 34.7657C34.2353 34.7657 35.2656 33.7354 35.2656 32.4688C35.2656 31.2022 34.2353 30.1719 32.9687 30.1719ZM32.9687 33.4532C32.426 33.4532 31.9844 33.0115 31.9844 32.4688C31.9844 31.9261 32.426 31.4844 32.9687 31.4844C33.5115 31.4844 33.9531 31.9261 33.9531 32.4688C33.9531 33.0115 33.5115 33.4532 32.9687 33.4532ZM28.7031 25.9063C28.7031 24.6397 27.6728 23.6094 26.4062 23.6094C25.1397 23.6094 24.1094 24.6397 24.1094 25.9063C24.1094 27.1729 25.1397 28.2032 26.4062 28.2032C27.6728 28.2032 28.7031 27.1729 28.7031 25.9063ZM26.4062 26.8907C25.8635 26.8907 25.4219 26.449 25.4219 25.9063C25.4219 25.3636 25.8635 24.9219 26.4062 24.9219C26.949 24.9219 27.3906 25.3636 27.3906 25.9063C27.3906 26.449 26.949 26.8907 26.4062 26.8907ZM31.9397 23.4716C31.6031 23.3404 31.2212 23.5044 31.0886 23.8417L27.0651 34.053C27.0321 34.1335 27.0154 34.2197 27.016 34.3067C27.0166 34.3937 27.0345 34.4797 27.0687 34.5597C27.1028 34.6397 27.1525 34.7121 27.2149 34.7727C27.2773 34.8333 27.3511 34.881 27.432 34.9128C27.513 34.9446 27.5995 34.9601 27.6864 34.9582C27.7734 34.9563 27.8591 34.9372 27.9386 34.9019C28.0181 34.8665 28.0898 34.8158 28.1495 34.7525C28.2092 34.6893 28.2558 34.6148 28.2864 34.5334L32.3099 24.3221C32.3735 24.1602 32.3702 23.9797 32.3008 23.8203C32.2314 23.6608 32.1015 23.5354 31.9397 23.4716Z" fill="black"/>
<path d="M29.6875 18.6875C23.8981 18.6875 19.1875 23.3981 19.1875 29.1875C19.1875 34.9769 23.8981 39.6875 29.6875 39.6875C35.4769 39.6875 40.1875 34.9769 40.1875 29.1875C40.1875 23.3981 35.4769 18.6875 29.6875 18.6875ZM29.6875 38.375C24.6213 38.375 20.5 34.2537 20.5 29.1875C20.5 24.1213 24.6213 20 29.6875 20C34.7537 20 38.875 24.1213 38.875 29.1875C38.875 34.2537 34.7537 38.375 29.6875 38.375Z" fill="black"/>
</svg>
