<svg width="43" height="42" viewBox="0 0 43 42" fill="none" xmlns="http://www.w3.org/2000/svg">
<path fill-rule="evenodd" clip-rule="evenodd" d="M4.90405 30.2351L12.0162 26.1146C13.351 25.3413 14.7083 24.7929 16.1754 25.2689C17.8111 25.7993 20.4822 26.9384 23.2061 27.4297C24.2172 27.7575 24.8475 28.7699 24.5724 29.7964C24.2974 30.8231 23.4298 31.3525 22.2057 31.1631L23.1579 31.3156C24.249 31.4901 25.2512 31.3407 26.2062 30.7846L33.0441 26.8018C38.3594 23.7061 39.1402 28.4686 37.3729 29.5566L24.9637 37.1978C23.8224 37.9004 22.5736 38.0643 21.2789 37.7174L12.2781 35.3056L8.94474 37.2301C8.30383 37.6001 7.47934 37.3792 7.10929 36.7383L4.41383 32.0696C4.04428 31.4293 4.26437 30.6058 4.90405 30.2351Z" fill="#F6DCCD"/>
<path fill-rule="evenodd" clip-rule="evenodd" d="M24.4102 30.2223C24.0302 30.9651 23.2469 31.3243 22.2057 31.1631C20.7314 30.7732 19.2587 30.3735 17.7855 29.9788C17.5974 29.9267 17.4376 29.8025 17.3407 29.6331C17.2439 29.4637 17.2179 29.263 17.2684 29.0745C17.3189 28.886 17.4418 28.7252 17.6103 28.6269C17.7789 28.5286 17.9794 28.501 18.1683 28.5499L24.4102 30.2223ZM4.90402 30.2351L12.0162 26.1146C13.3509 25.3413 14.7082 24.7929 16.1754 25.2689C17.0505 25.5526 18.222 26.0106 19.5394 26.4504L5.76215 34.4048L4.41396 32.0696C4.04425 31.4293 4.26425 30.6058 4.90402 30.2351Z" fill="#F1CBBC"/>
<path fill-rule="evenodd" clip-rule="evenodd" d="M5.61317 27.9906L11.2537 37.957C11.5265 38.4388 11.3553 39.0563 10.8734 39.329L8.95488 40.4149C8.47295 40.6876 7.85558 40.5165 7.58283 40.0346L1.94236 30.0681C1.6696 29.5863 1.84072 28.9688 2.32265 28.6961L4.2412 27.6102C4.72305 27.3376 5.3405 27.5087 5.61317 27.9906Z" fill="#D1D1D6"/>
<path fill-rule="evenodd" clip-rule="evenodd" d="M8.57981 34.8382L9.57813 36.6022L10.5654 38.3466C10.8376 38.8275 10.6677 39.4433 10.188 39.7169L10.8734 39.329C11.3553 39.0562 11.5265 38.4388 11.2537 37.9569L10.2631 36.2066L8.27408 32.6922L6.28285 29.1738L5.61323 27.9906C5.37698 27.5731 4.88208 27.3889 4.44067 27.5244L5.60002 29.5729L7.58903 33.0874L8.57956 34.8377L8.57981 34.8382Z" fill="#B1B1B5"/>
<path d="M9.45708 13.9261C12.8721 13.9261 15.6406 11.1577 15.6406 7.7426C15.6406 4.32754 12.8721 1.55908 9.45708 1.55908C6.04201 1.55908 3.27356 4.32754 3.27356 7.7426C3.27356 11.1577 6.04201 13.9261 9.45708 13.9261Z" fill="#FFC338"/>
<path fill-rule="evenodd" clip-rule="evenodd" d="M9.45696 1.55908C12.872 1.55908 15.6405 4.32756 15.6405 7.7426C15.6405 11.1576 12.872 13.9261 9.45696 13.9261C9.27862 13.9261 9.10217 13.9181 8.92761 13.9033C12.0948 13.6347 14.5817 10.9793 14.5817 7.7426C14.5817 4.50589 12.0948 1.85054 8.92761 1.58189C9.10366 1.56684 9.28027 1.55923 9.45696 1.55908Z" fill="#F5B829"/>
<path d="M23.8774 23.268C29.9009 23.268 34.7839 18.385 34.7839 12.3615C34.7839 6.33807 29.9009 1.45508 23.8774 1.45508C17.8539 1.45508 12.9709 6.33807 12.9709 12.3615C12.9709 18.385 17.8539 23.268 23.8774 23.268Z" fill="#FE646F"/>
<path fill-rule="evenodd" clip-rule="evenodd" d="M31.5895 4.64926C35.8487 8.90848 35.8487 15.814 31.5895 20.0733C29.1581 22.5047 25.8644 23.5473 22.6929 23.2028C25.0771 22.9438 27.3924 21.9011 29.2203 20.0733C33.4795 15.814 33.4795 8.90848 29.2203 4.64926C27.3924 2.82144 25.0771 1.77874 22.6929 1.51977C25.8644 1.17515 29.1581 2.21785 31.5895 4.64926Z" fill="#FD4755"/>
<path fill-rule="evenodd" clip-rule="evenodd" d="M21.0665 5.854H26.6884V9.5505H30.3849V15.1723H26.6884V18.8688H21.0665V15.1723H17.3701V9.5505H21.0665V5.854Z" fill="#ECEFF1"/>
<path fill-rule="evenodd" clip-rule="evenodd" d="M21.0666 5.854H22.4758V9.55041H21.0666V5.854ZM21.0666 15.1723V18.8688H22.4758V15.1723H21.0666ZM18.7793 9.5505H17.3701V15.1723H18.7793V9.5505Z" fill="#D1D1D6"/>
<path d="M36.4264 23.1462C39.7493 22.3582 41.8043 19.0257 41.0163 15.7028C40.2284 12.3799 36.8959 10.3249 33.5729 11.1128C30.25 11.9008 28.195 15.2333 28.983 18.5562C29.7709 21.8791 33.1035 23.9341 36.4264 23.1462Z" fill="#FFC338"/>
<path fill-rule="evenodd" clip-rule="evenodd" d="M35.004 10.959C38.419 10.959 41.1875 13.7274 41.1875 17.1425C41.1875 20.5576 38.419 23.326 35.004 23.326C34.8273 23.3259 34.6507 23.3183 34.4746 23.3032C37.6418 23.0346 40.1287 20.3792 40.1287 17.1425C40.1287 13.9058 37.6418 11.2504 34.4746 10.9818C34.6507 10.9667 34.8273 10.9591 35.004 10.959Z" fill="#F5B829"/>
<path fill-rule="evenodd" clip-rule="evenodd" d="M35.1166 16.4698C33.9121 16.2721 33.8908 15.8225 33.8827 15.6535C33.8515 15.0162 34.5421 14.8266 34.6807 14.7954C35.2428 14.6676 35.9365 14.8415 36.22 15.5157C36.3601 15.8495 36.7446 16.0071 37.0786 15.8669C37.4125 15.7267 37.57 15.3418 37.4299 15.0079C37.0697 14.15 36.3841 13.6864 35.6603 13.5192V13.2271C35.6603 13.1409 35.6434 13.0556 35.6104 12.976C35.5775 12.8963 35.5292 12.824 35.4683 12.763C35.4074 12.7021 35.335 12.6537 35.2554 12.6208C35.1758 12.5878 35.0905 12.5708 35.0043 12.5708C34.6414 12.5708 34.3481 12.8645 34.3481 13.2271V13.5257C33.2332 13.7957 32.5213 14.6716 32.571 15.7176C32.6089 16.4828 33.0435 17.4598 34.9032 17.765C36.0911 17.9603 36.2872 18.349 36.3258 18.6665C36.3478 18.8503 36.3111 18.9865 36.2049 19.1087C36.0007 19.345 35.5448 19.5105 35.07 19.5222C34.521 19.5353 33.8238 19.313 33.6574 18.6444C33.5694 18.2933 33.2134 18.0792 32.8625 18.1661C32.5104 18.2539 32.2962 18.6107 32.3842 18.9617C32.6147 19.8888 33.3667 20.5565 34.348 20.7657V21.0528C34.348 21.139 34.3649 21.2243 34.3979 21.304C34.4308 21.3836 34.4792 21.456 34.5401 21.517C34.6011 21.5779 34.6734 21.6263 34.7531 21.6592C34.8327 21.6922 34.9181 21.7092 35.0043 21.7091C35.0904 21.7091 35.1758 21.6921 35.2554 21.6592C35.335 21.6262 35.4073 21.5778 35.4682 21.5169C35.5291 21.4559 35.5774 21.3836 35.6104 21.3039C35.6433 21.2243 35.6602 21.139 35.6602 21.0528V20.7763C36.2937 20.6598 36.8465 20.3736 37.1974 19.9667C37.5465 19.5639 37.6955 19.0594 37.6283 18.5081C37.4947 17.4073 36.6496 16.7216 35.1166 16.4698ZM40.5314 17.14C40.5314 20.1874 38.0518 22.6672 35.0043 22.6672C31.9567 22.6672 29.4767 20.1874 29.4767 17.14C29.4767 14.0925 31.9568 11.6127 35.0043 11.6127C38.0518 11.6127 40.5314 14.0925 40.5314 17.14ZM29.7288 12.7914V10.2042H26.6887C26.3262 10.2042 26.0324 9.91057 26.0324 9.54799V6.50791H21.7232V9.54791C21.7232 9.91057 21.4295 10.2042 21.0669 10.2042H18.0271V14.5132H21.0669C21.4294 14.5132 21.7232 14.8077 21.7232 15.1695V18.2104H26.0324V15.1695C26.0324 14.8078 26.3262 14.5132 26.6887 14.5132H28.6904C28.9498 13.8912 29.2997 13.311 29.7288 12.7914ZM29.3717 21.0142C25.3811 23.5474 20.0145 22.9913 16.63 19.6067C12.6335 15.6101 12.6335 9.10748 16.63 5.11084C18.5661 3.17498 21.1399 2.10866 23.8775 2.10866C26.6157 2.10866 29.1896 3.17498 31.1257 5.11084C32.585 6.57017 33.5466 8.38216 33.9354 10.3847C32.8691 10.5529 31.8847 10.9687 31.0415 11.5707V9.54783C31.0415 9.46163 31.0245 9.37628 30.9916 9.29665C30.9586 9.21701 30.9102 9.14465 30.8493 9.08371C30.7883 9.02276 30.716 8.97441 30.6363 8.94143C30.5567 8.90845 30.4714 8.89148 30.3852 8.8915H27.345V5.85142C27.345 5.76523 27.328 5.67989 27.295 5.60026C27.2621 5.52064 27.2137 5.44829 27.1528 5.38735C27.0918 5.32641 27.0195 5.27807 26.9398 5.2451C26.8602 5.21212 26.7749 5.19516 26.6887 5.19517H21.0669C20.9807 5.19517 20.8954 5.21214 20.8158 5.24513C20.7362 5.27811 20.6639 5.32646 20.603 5.3874C20.5421 5.44834 20.4938 5.52069 20.4608 5.60031C20.4279 5.67992 20.4109 5.76525 20.411 5.85142V8.8915H17.3708C17.2846 8.89148 17.1993 8.90845 17.1196 8.94143C17.04 8.97441 16.9676 9.02276 16.9067 9.08371C16.8458 9.14465 16.7974 9.21701 16.7644 9.29665C16.7314 9.37628 16.7145 9.46163 16.7145 9.54783V15.1694C16.7145 15.2556 16.7315 15.341 16.7645 15.4206C16.7974 15.5002 16.8458 15.5726 16.9067 15.6335C16.9677 15.6944 17.04 15.7428 17.1197 15.7757C17.1993 15.8087 17.2846 15.8257 17.3708 15.8257H20.411V18.8665C20.411 19.2283 20.7044 19.5228 21.0669 19.5228H26.6887C27.0512 19.5228 27.345 19.2283 27.345 18.8665V15.8257H28.2924C28.2076 16.2586 28.1648 16.6986 28.1646 17.1397C28.1645 18.5772 28.6112 19.9119 29.3717 21.0142ZM12.3216 12.4666C12.2996 10.0369 13.0361 7.60065 14.5325 5.54897C13.6647 3.54084 11.6669 2.21259 9.45702 2.21259C6.40948 2.21259 3.92984 4.69256 3.92984 7.74002C3.92984 10.7876 6.40948 13.2674 9.45702 13.2674C10.477 13.2674 11.4595 12.9908 12.3216 12.4666ZM41.844 17.14C41.844 20.9117 38.7761 23.9798 35.0043 23.9798C33.1454 23.9798 31.458 23.2333 30.2234 22.0249C28.3433 23.2612 26.1332 23.9214 23.8758 23.9214C23.5967 23.9214 23.3172 23.9116 23.0373 23.8912C20.2705 23.691 17.665 22.4991 15.7015 20.5353C13.8407 18.674 12.7489 16.3311 12.4243 13.9039C11.5047 14.3476 10.4955 14.5799 9.45702 14.5799C5.68605 14.5799 2.61726 11.5119 2.61726 7.74002C2.61726 3.96905 5.68605 0.900339 9.45702 0.900339C11.9706 0.900339 14.2627 2.28823 15.4501 4.4431C15.5327 4.35529 15.6165 4.26863 15.7015 4.18315C20.2098 -0.325372 27.5456 -0.325372 32.0533 4.18315C33.7423 5.87135 34.8426 7.97873 35.2575 10.3068C38.9119 10.4406 41.844 13.4534 41.844 17.14ZM4.32014 29.4799C3.94641 29.534 3.68703 29.8819 3.74109 30.2568C3.79588 30.6308 4.1441 30.89 4.51899 30.8351C4.89305 30.781 5.1521 30.4331 5.09731 30.0582C5.0421 29.6842 4.69429 29.425 4.32014 29.4799ZM37.3608 27.0387C36.8071 26.1134 35.3166 26.2372 33.3744 27.3685L26.5354 31.351C25.4761 31.9687 24.3368 32.168 23.0532 31.9629L22.2024 31.8251C22.1981 31.8244 22.1811 31.821 22.1761 31.8203C21.1129 31.6028 20.1262 31.3206 19.0811 31.0221C18.6062 30.8867 18.114 30.7464 17.6137 30.6119C17.2639 30.5184 17.0559 30.1583 17.1501 29.8089C17.2435 29.4586 17.6037 29.2511 17.9531 29.3446C18.4642 29.4815 18.9615 29.6234 19.4421 29.7605C20.4517 30.0492 21.4075 30.3215 22.4116 30.5282C22.985 30.5938 23.7069 30.4881 23.9373 29.626C24.113 28.9721 23.7281 28.3084 23.0409 28.0656C20.9875 27.6899 19.0105 26.9755 17.4191 26.4005C16.8648 26.1994 16.3856 26.0264 15.9706 25.8918C14.6947 25.4785 13.4736 26.0272 12.3421 26.6819L7.28664 29.6087L10.6218 35.5026L11.9475 34.7372C12.0221 34.6942 12.1045 34.6662 12.19 34.6549C12.2754 34.6437 12.3623 34.6494 12.4455 34.6717L21.4468 37.0833C22.5799 37.3877 23.647 37.2376 24.619 36.6396L37.0295 28.9976C37.5742 28.6621 37.7407 27.6735 37.3608 27.0387ZM10.6843 38.2761C10.7293 38.3571 10.7405 38.4527 10.7155 38.5419C10.7009 38.5953 10.6596 38.6929 10.5515 38.7544L8.63277 39.8405C8.46715 39.9333 8.24788 39.8732 8.15445 39.7076L2.51382 29.74C2.41964 29.5749 2.48018 29.3561 2.64621 29.2626L4.56493 28.1765C4.61648 28.1468 4.67493 28.1313 4.7344 28.1314C4.77378 28.1314 4.80741 28.1378 4.83054 28.1445C4.88378 28.1592 4.98148 28.2003 5.04284 28.3084L10.6843 38.2761ZM38.4872 26.3644C38.1228 25.7573 36.6314 23.9526 32.7138 26.234L25.8748 30.2174C25.573 30.393 25.2664 30.5232 24.9479 30.6078C25.056 30.4135 25.1421 30.1993 25.2054 29.9656C25.5613 28.6358 24.7714 27.2471 23.4072 26.8049C23.379 26.7958 23.3502 26.7884 23.3211 26.7827C21.3599 26.429 19.4223 25.7286 17.8654 25.1658C17.3234 24.9698 16.8111 24.7852 16.3756 24.6433C14.6064 24.07 13.0115 24.7771 11.6851 25.5457L6.64048 28.4668L6.18496 27.6621C5.96684 27.2767 5.61091 26.9984 5.18196 26.8796C4.75269 26.7614 4.30407 26.8156 3.91844 27.0338L1.99973 28.1199C1.20173 28.572 0.919539 29.5882 1.37161 30.3865L7.01266 40.3541C7.3188 40.8938 7.88202 41.1981 8.46305 41.1981C8.74917 41.198 9.03037 41.1237 9.27918 40.9824L11.1979 39.8964C11.5835 39.6782 11.8615 39.3221 11.9804 38.893C12.0992 38.464 12.0445 38.0154 11.8263 37.6298L11.2685 36.6446L12.3684 36.0096L21.1075 38.3516C21.5955 38.4821 22.08 38.5469 22.5576 38.5469C23.5223 38.5469 24.455 38.282 25.3063 37.7569L37.718 30.1149C38.8702 29.4052 39.237 27.6178 38.4872 26.3644ZM12.081 9.10839C12.1486 9.65955 11.9992 10.164 11.6506 10.5677C11.2997 10.9736 10.7465 11.26 10.1134 11.3774V11.6529C10.1134 11.7391 10.0965 11.8245 10.0635 11.9041C10.0305 11.9838 9.9822 12.0562 9.92124 12.1171C9.86028 12.1781 9.78791 12.2264 9.70825 12.2594C9.6286 12.2924 9.54323 12.3093 9.45702 12.3092C9.37083 12.3093 9.28547 12.2923 9.20583 12.2593C9.12619 12.2264 9.05383 12.178 8.99288 12.1171C8.93193 12.0561 8.88358 11.9837 8.85061 11.9041C8.81763 11.8245 8.80067 11.7391 8.80069 11.6529V11.3658C7.81976 11.1566 7.0677 10.4889 6.83686 9.56202C6.74925 9.21092 6.96344 8.85491 7.31519 8.76714C7.4839 8.72504 7.66243 8.7517 7.8115 8.84123C7.96057 8.93076 8.06797 9.07584 8.11007 9.24456C8.27684 9.91385 8.97402 10.1346 9.52265 10.1222C9.99785 10.1107 10.4538 9.94502 10.658 9.70869C10.7638 9.58655 10.8009 9.45037 10.7785 9.26654C10.7402 8.94908 10.5441 8.56034 9.35703 8.36592C7.49664 8.05994 7.06155 7.08287 7.02414 6.3176C6.9732 5.27252 7.68621 4.39635 8.80077 4.12564V3.82705C8.80078 3.74087 8.81777 3.65554 8.85076 3.57592C8.88375 3.4963 8.9321 3.42397 8.99304 3.36304C9.05399 3.3021 9.12634 3.25377 9.20596 3.2208C9.28559 3.18783 9.37092 3.17087 9.4571 3.17088C9.5433 3.17082 9.62866 3.18774 9.70831 3.22069C9.78796 3.25365 9.86033 3.30197 9.92129 3.36291C9.98224 3.42386 10.0306 3.49622 10.0636 3.57586C10.0965 3.6555 10.1135 3.74085 10.1134 3.82705V4.1199C10.8369 4.28642 11.5229 4.74998 11.8827 5.60803C12.0232 5.9419 11.8657 6.32662 11.5318 6.4669C11.1978 6.60709 10.8133 6.44967 10.6728 6.1158C10.3898 5.44142 9.69606 5.26842 9.13398 5.39557C8.99543 5.42666 8.30473 5.61615 8.33566 6.25362C8.34419 6.42342 8.36535 6.87295 9.56949 7.07065C11.1028 7.32166 11.9475 8.00744 12.081 9.10839Z" fill="black"/>
</svg>
