<svg width="43" height="42" viewBox="0 0 43 42" fill="none" xmlns="http://www.w3.org/2000/svg">
<g clip-path="url(#clip0_1434_34997)">
<path fill-rule="evenodd" clip-rule="evenodd" d="M22.8125 0.00102654C23.8614 -0.0235293 24.8181 0.394092 25.5021 1.07906C26.1227 1.69897 26.5232 2.54264 26.5745 3.47631C26.9837 3.33161 27.4265 3.25715 27.8881 3.26835C29.9267 3.31523 31.4815 5.02335 31.4815 6.99717V7.87177C31.863 7.73787 32.2732 7.665 32.7004 7.6649C32.7007 7.6649 32.701 7.6649 32.7013 7.6649V8.89538L32.6996 7.6649C32.6998 7.6649 32.7001 7.6649 32.7004 7.6649C33.1841 7.66433 33.6632 7.75937 34.11 7.94459C34.5566 8.12969 34.9622 8.40119 35.3035 8.74349C35.3031 8.74308 35.3027 8.74268 35.3023 8.74227L34.433 9.61315L35.3047 8.74474C35.3043 8.74432 35.3039 8.74391 35.3035 8.74349C35.9683 9.40769 36.3821 10.3296 36.3821 11.3457V28.6502C36.3821 30.5276 35.8704 32.2904 34.9769 33.8008C34.6309 34.3857 33.8762 34.5793 33.2913 34.2333C32.7065 33.8873 32.5128 33.1326 32.8588 32.5477C33.5337 31.4069 33.9211 30.0754 33.9211 28.6502V11.3457C33.9211 11.0088 33.7858 10.7057 33.5637 10.484L33.5613 10.4816C33.4487 10.3686 33.315 10.279 33.1677 10.218C33.0204 10.1569 32.8625 10.1256 32.7031 10.1258L32.7013 10.1258C32.0274 10.1258 31.4815 10.6717 31.4815 11.3457C31.4815 11.3574 31.4813 11.3692 31.481 11.3808V17.4138C31.481 18.0934 30.9301 18.6443 30.2505 18.6443C29.571 18.6443 29.0201 18.0934 29.0201 17.4138V10.2151C29.0201 10.2033 29.0202 10.1916 29.0206 10.1799V6.99717C29.0206 6.29384 28.4677 5.74308 27.8311 5.72864L27.8288 5.72859C27.4808 5.72003 27.1677 5.85613 26.9383 6.08552C26.7173 6.30657 26.5828 6.6057 26.5802 6.93788C26.5802 6.9412 26.5802 6.94453 26.5802 6.94786V17.4138C26.5802 18.0934 26.0293 18.6443 25.3497 18.6443C24.6702 18.6443 24.1193 18.0934 24.1193 17.4138V6.96213C24.1192 6.95741 24.1192 6.95268 24.1192 6.94795V3.68063C24.1192 3.34381 23.9841 3.04087 23.7626 2.81982L23.761 2.81824C23.533 2.58977 23.2186 2.45312 22.87 2.4613L22.8698 2.46131C22.2313 2.47617 21.6796 3.02693 21.6796 3.72985V6.94795C21.6796 6.95276 21.6795 6.95756 21.6795 6.96235V17.4138C21.6795 18.0934 21.1286 18.6443 20.449 18.6443C19.7694 18.6443 19.2185 18.0934 19.2185 17.4138V6.94786C19.2185 6.94449 19.2185 6.94111 19.2186 6.93774C19.2131 6.2685 18.6693 5.72814 17.9988 5.72814C17.6622 5.72814 17.3587 5.86315 17.1364 6.08552C16.9138 6.30805 16.779 6.61072 16.779 6.94795V22.6119C16.779 23.1393 16.4428 23.6081 15.9432 23.7773C15.4436 23.9465 14.8918 23.7785 14.5713 23.3596L12.308 20.4015C12.2909 20.3791 12.2745 20.3561 12.2589 20.3325C11.8322 19.6872 11.1269 19.3355 10.3994 19.3355C9.97928 19.3355 9.55461 19.4545 9.17516 19.7055L9.17501 19.7056C9.07643 19.7708 9.0494 19.9038 9.11476 20.0023C9.12223 20.0135 9.12951 20.0249 9.13661 20.0364L16.3341 31.703C16.3355 31.7052 16.3368 31.7075 16.3382 31.7097C16.3399 31.7126 16.3416 31.7154 16.3433 31.7182C16.7787 32.4475 17.3105 33.1147 17.9242 33.7019C18.4152 34.1717 18.4324 34.9506 17.9625 35.4416C17.4927 35.9326 16.7138 35.9498 16.2228 35.48C15.4516 34.742 14.783 33.9038 14.2351 32.9877L7.05124 21.3433C6.25028 20.1132 6.59039 18.4645 7.81752 17.6529C8.61108 17.128 9.51035 16.8746 10.3994 16.8746C11.9022 16.8746 13.3817 17.5971 14.2864 18.9373L14.318 18.9787V6.94795C14.318 5.93165 14.7312 5.01042 15.3962 4.34536C16.0614 3.68015 16.9835 3.26719 17.9988 3.26719C18.4295 3.26719 18.843 3.34115 19.2271 3.47706C19.353 1.61181 20.8608 0.0465917 22.8122 0.00103201" fill="url(#paint0_linear_1434_34997)"/>
<path fill-rule="evenodd" clip-rule="evenodd" d="M25.3498 24.7407C21.2633 24.7407 17.9506 28.0535 17.9506 32.1399C17.9506 36.2264 21.2633 39.5392 25.3498 39.5392C29.4363 39.5392 32.749 36.2264 32.749 32.1399C32.749 28.0535 29.4363 24.7407 25.3498 24.7407ZM15.4896 32.1399C15.4896 26.6943 19.9042 22.2798 25.3498 22.2798C30.7954 22.2798 35.2099 26.6943 35.2099 32.1399C35.2099 37.5856 30.7954 42.0001 25.3498 42.0001C19.9042 42.0001 15.4896 37.5856 15.4896 32.1399Z" fill="url(#paint1_linear_1434_34997)"/>
<path fill-rule="evenodd" clip-rule="evenodd" d="M22.5072 29.2974C22.9878 28.8169 23.7669 28.8169 24.2474 29.2974L25.3498 30.3998L26.4522 29.2974C26.9327 28.8169 27.7118 28.8169 28.1923 29.2974C28.6729 29.7779 28.6729 30.557 28.1923 31.0376L27.0899 32.14L28.1923 33.2425C28.6729 33.723 28.6729 34.5021 28.1923 34.9826C27.7118 35.4631 26.9327 35.4631 26.4522 34.9826L25.3498 33.8802L24.2474 34.9826C23.7669 35.4631 22.9878 35.4631 22.5072 34.9826C22.0267 34.5021 22.0267 33.723 22.5072 33.2425L23.6096 32.14L22.5072 31.0376C22.0267 30.557 22.0267 29.7779 22.5072 29.2974Z" fill="url(#paint2_linear_1434_34997)"/>
</g>
<defs>
<linearGradient id="paint0_linear_1434_34997" x1="6.61789" y1="0" x2="33.0346" y2="38.14" gradientUnits="userSpaceOnUse">
<stop stop-color="#1495EA"/>
<stop offset="1" stop-color="#7687E5"/>
</linearGradient>
<linearGradient id="paint1_linear_1434_34997" x1="15.4896" y1="22.2798" x2="28.9215" y2="45.6191" gradientUnits="userSpaceOnUse">
<stop stop-color="#1495EA"/>
<stop offset="1" stop-color="#7687E5"/>
</linearGradient>
<linearGradient id="paint2_linear_1434_34997" x1="22.1468" y1="28.937" x2="26.5101" y2="36.5186" gradientUnits="userSpaceOnUse">
<stop stop-color="#1495EA"/>
<stop offset="1" stop-color="#7687E5"/>
</linearGradient>
<clipPath id="clip0_1434_34997">
<rect width="42" height="42" fill="white" transform="translate(0.5)"/>
</clipPath>
</defs>
</svg>
