<svg width="43" height="42" viewBox="0 0 43 42" fill="none" xmlns="http://www.w3.org/2000/svg">
<g clip-path="url(#clip0_1434_36898)">
<path d="M21.7387 4.17491L20.494 4.48568C20.2009 4.55897 19.9407 4.72811 19.7547 4.96622C19.5688 5.20433 19.4678 5.49776 19.4677 5.79987V6.09709H18.1128C18.0383 6.09709 17.9647 6.10302 17.8927 6.11487L17.6149 5.2808C17.4964 4.92431 17.4354 4.55088 17.4354 4.17491C17.4354 3.20959 17.8266 2.33487 18.46 1.70233C19.0926 1.06894 19.9673 0.677734 20.9326 0.677734H24.777C26.7084 0.677734 28.2741 2.24342 28.2741 4.17491C28.2741 4.55088 28.2132 4.92431 28.0946 5.2808L27.8169 6.11487C27.7449 6.10302 27.6712 6.09709 27.5967 6.09709H26.2419C26.2419 5.34854 25.6356 4.74225 24.887 4.74225H23.942C23.1596 4.74225 22.4034 4.54157 21.7387 4.17491Z" fill="#656D78"/>
<path d="M26.9193 40.6455C26.9193 40.8327 26.8431 41.002 26.7212 41.1248C26.5939 41.2517 26.4216 41.323 26.2419 41.323H23.5322C23.1579 41.323 22.8548 41.0198 22.8548 40.6455C22.8548 40.085 23.0826 39.5769 23.4501 39.2086C23.8184 38.8411 24.3265 38.6133 24.8871 38.6133C25.4476 38.6133 25.9557 38.8411 26.324 39.2086C26.6915 39.5769 26.9193 40.085 26.9193 40.6455ZM22.8548 40.6455C22.8548 40.8327 22.7786 41.002 22.6567 41.1248C22.5294 41.2517 22.3571 41.323 22.1774 41.323H19.4677C19.0934 41.323 18.7903 41.0198 18.7903 40.6455C18.7903 40.085 19.0181 39.5769 19.3856 39.2086C19.7539 38.8411 20.262 38.6133 20.8225 38.6133C21.3831 38.6133 21.8912 38.8411 22.2595 39.2086C22.627 39.5769 22.8548 40.085 22.8548 40.6455Z" fill="#969FAA"/>
<path d="M23.4501 39.2086C23.0826 39.577 22.8548 40.085 22.8548 40.6456C22.8548 40.085 22.627 39.577 22.2595 39.2086C21.8912 38.8411 21.3831 38.6133 20.8225 38.6133C20.262 38.6133 19.7539 38.8411 19.3856 39.2086C19.0181 39.577 18.7903 40.085 18.7903 40.6456V36.847C19.6498 35.4362 20.1451 33.7791 20.1451 32.0059C20.1451 31.2828 20.0604 30.5647 19.8962 29.8662C19.7302 29.1667 19.4846 28.4868 19.1612 27.8398L18.7903 27.0972V25.0649H26.9193V40.6456C26.9193 40.085 26.6915 39.577 26.324 39.2086C25.9557 38.8411 25.4476 38.6133 24.8871 38.6133C24.3265 38.6133 23.8184 38.8411 23.4501 39.2086Z" fill="#D3A06C"/>
<path d="M18.775 18.3087C16.6937 20.7948 13.6487 22.2648 10.4165 22.3512C10.3149 22.3538 10.2141 22.3555 10.1125 22.3555H9.3064V19.3748L9.95164 19.3105C11.0208 19.2033 12.0529 18.8606 12.9738 18.307C13.8944 17.7533 14.681 17.0026 15.277 16.1088C15.9411 15.1131 16.8406 14.2966 17.8959 13.7319C18.9512 13.1672 20.1295 12.8717 21.3264 12.8716H21.4999L22.8548 14.9038L24.2096 12.8716C25.3113 12.8716 26.3994 13.0435 27.435 13.3763C28.4714 13.7082 29.4562 14.2002 30.353 14.8403L32.3387 16.2587L33.0643 12.9927L36.1635 13.5092L35.5344 16.9708C35.2533 18.5196 33.9043 19.6458 32.3302 19.6458C32.11 19.6458 31.8899 19.6238 31.6748 19.5789C31.4597 19.5348 31.2497 19.4696 31.0465 19.3824L26.9193 17.6135V25.0651H18.7903V18.5712C18.7903 18.4832 18.7852 18.3951 18.775 18.3087Z" fill="#4FC1E9"/>
<path d="M30.9576 8.92041C32.1989 9.61413 33.5769 10.0283 34.995 10.1338L34.9933 10.1635C34.9679 10.1626 34.9416 10.1618 34.9162 10.1618H34.8595C34.1779 10.1618 33.5885 10.6351 33.4403 11.2998L33.1668 12.5311C32.2976 12.2953 31.465 11.9408 30.6925 11.4777L29.629 10.8392L30.9567 8.92041H30.9576ZM35.7258 10.1618C36.5607 10.1618 37.3888 10.0551 38.1907 9.84593C38.9918 9.63763 39.7657 9.32686 40.4939 8.92041H40.4948L41.8225 10.8392L40.759 11.4777C39.4005 12.2926 37.8645 12.7653 36.2829 12.8554L36.3083 12.714C36.3718 12.3685 36.4032 12.0179 36.4032 11.6657V11.6386C36.4032 10.8485 35.7825 10.2033 34.9933 10.1635L34.995 10.1338C35.2372 10.1525 35.481 10.1618 35.7258 10.1618ZM19.8962 29.8662C20.0613 30.5675 20.1449 31.2855 20.1451 32.006C20.1451 33.7792 19.6497 35.4363 18.7903 36.847C17.1552 39.5313 14.2008 41.3231 10.8281 41.3231H10.6612C8.04217 41.3231 5.6712 40.2612 3.95479 38.5457C2.23922 36.8292 1.17737 34.4583 1.17737 31.8392C1.17737 29.2201 2.23922 26.8492 3.95479 25.1327C5.51031 23.5781 7.60354 22.5602 10.4165 22.3587C10.4978 22.3562 10.5791 22.3553 10.6612 22.3553V25.065C6.92019 25.065 3.88705 28.0982 3.88705 31.8392C3.88705 35.5802 6.92019 38.6134 10.6612 38.6134C14.4023 38.6134 17.4354 35.5802 17.4354 31.8392C17.4354 30.5335 17.0662 29.3141 16.4261 28.2794L18.7903 27.0973L19.1612 27.8399C19.4846 28.4868 19.7302 29.1668 19.8962 29.8662Z" fill="#FFC729"/>
<path d="M32.912 6.09723L35.7258 2.03271L40.494 8.92038C39.7658 9.32683 38.9918 9.63759 38.1908 9.8459C37.3859 10.0557 36.5575 10.1619 35.7258 10.1617C35.4811 10.1617 35.2372 10.1524 34.995 10.1338C33.5792 10.028 32.2007 9.61558 30.9576 8.92038L32.912 6.09723ZM10.6613 29.1295V31.1617L16.4261 28.2793C17.0663 29.3141 17.4355 30.5334 17.4355 31.8392C17.4355 35.5802 14.4023 38.6134 10.6613 38.6134C6.92023 38.6134 3.88708 35.5802 3.88708 31.8392C3.88708 28.0981 6.92023 25.065 10.6613 25.065V29.1295Z" fill="#FCD770"/>
<path d="M9.30648 19.3746V22.3552H8.01938C7.62648 22.3552 7.27083 22.196 7.01341 21.9386C6.756 21.6812 6.5968 21.3256 6.5968 20.9327C6.5968 20.2019 7.15059 19.5905 7.87797 19.5177L9.30648 19.3746ZM36.4033 11.6385V11.6656C36.4033 12.0178 36.3719 12.3684 36.3084 12.7139L36.283 12.8553L36.1636 13.509L33.0644 12.9924L33.1669 12.531L33.4404 11.2997C33.5123 10.9769 33.692 10.6883 33.95 10.4814C34.208 10.2745 34.5289 10.1617 34.8596 10.1617H34.9163C34.9417 10.1617 34.968 10.1625 34.9934 10.1634C35.7826 10.2032 36.4033 10.8484 36.4033 11.6385ZM26.242 8.69676V6.09717H27.5968C27.6713 6.09717 27.745 6.1031 27.817 6.11495C28.4605 6.21995 28.9516 6.77797 28.9516 7.45201C28.9516 7.82628 28.8001 8.16499 28.5553 8.41056C28.3098 8.65527 27.9711 8.80685 27.5968 8.80685H26.2394C26.2411 8.77043 26.242 8.73402 26.242 8.69676Z" fill="#F0D0B4"/>
<path d="M26.242 6.09747V8.69707C26.242 8.73433 26.2411 8.77074 26.2394 8.80715C26.2173 9.41177 26.0111 9.99522 25.6484 10.4795C25.2857 10.9637 24.7837 11.3256 24.2097 11.5168V12.8717L22.8549 14.9039L21.5 12.8717V11.5168C20.926 11.3256 20.4241 10.9637 20.0614 10.4795C19.6986 9.99522 19.4924 9.41177 19.4703 8.80715C19.4686 8.77074 19.4678 8.73433 19.4678 8.69707V5.80025C19.4678 5.17872 19.8912 4.63679 20.4941 4.48606L21.7388 4.17529C22.4035 4.54195 23.1597 4.74263 23.9421 4.74263H24.8871C25.6357 4.74263 26.242 5.34892 26.242 6.09747Z" fill="#F0D0B4"/>
<path d="M19.4677 8.69676C19.4677 8.73402 19.4686 8.77043 19.4703 8.80685H18.1129C17.7386 8.80685 17.3999 8.65527 17.1543 8.41055C16.9096 8.16499 16.7581 7.82628 16.7581 7.45201C16.7581 6.77797 17.2492 6.21995 17.8927 6.11495C17.9647 6.1031 18.0384 6.09717 18.1129 6.09717H19.4677V8.69676Z" fill="#F0D0B4"/>
<path d="M24.4903 9.48448L24.6887 9.28608L23.7307 8.32812L23.5323 8.52652C23.3514 8.70748 23.1108 8.80706 22.8549 8.80706C22.599 8.80706 22.3584 8.70739 22.1775 8.52652L21.9791 8.32812L21.0211 9.28608L21.2195 9.48448C21.6564 9.92133 22.2372 10.1619 22.8549 10.1619C23.4726 10.1619 24.0535 9.92133 24.4903 9.48448Z" fill="black"/>
<path d="M42.3796 10.4536L36.2828 1.64713C36.2204 1.55712 36.1372 1.48357 36.0402 1.43277C35.9432 1.38197 35.8353 1.35544 35.7258 1.35544C35.6163 1.35544 35.5084 1.38197 35.4114 1.43277C35.3144 1.48357 35.2312 1.55712 35.1688 1.64713L29.072 10.4536C29.0193 10.5298 28.9828 10.616 28.9647 10.7069C28.9466 10.7977 28.9474 10.8914 28.9669 10.9819C28.9864 11.0725 29.0243 11.1581 29.0782 11.2335C29.1322 11.3088 29.201 11.3723 29.2804 11.42L30.344 12.0581C30.984 12.4417 31.6632 12.7558 32.37 12.9948L31.8994 15.1123L30.7466 14.2889C29.0125 13.0502 26.9991 12.3393 24.887 12.214V11.9689C25.377 11.7271 25.8063 11.3783 26.1432 10.9483C26.4801 10.5182 26.716 10.0178 26.8334 9.48427H27.5968C28.7174 9.48427 29.629 8.57264 29.629 7.45202C29.629 6.72167 29.2416 6.08033 28.6617 5.72206L28.7374 5.49495C28.8794 5.06932 28.9518 4.62354 28.9516 4.17483C28.9516 1.87313 27.079 0.000488281 24.7772 0.000488281H20.9326C18.6307 0.000488281 16.7581 1.87313 16.7581 4.17492C16.7581 4.62438 16.8301 5.06843 16.9723 5.49495L17.048 5.72206C16.468 6.08041 16.0806 6.72176 16.0806 7.4521C16.0806 8.57272 16.9923 9.48436 18.1129 9.48436H18.8762C18.9936 10.0179 19.2295 10.5183 19.5664 10.9483C19.9033 11.3784 20.3326 11.7272 20.8226 11.969V12.2099C18.3537 12.3653 16.0973 13.6574 14.7135 15.7331C13.6149 17.381 11.8546 18.4391 9.88404 18.6361L7.81012 18.8435C7.29142 18.8939 6.81017 19.136 6.4605 19.5224C6.11082 19.9088 5.91786 20.4118 5.91935 20.9329C5.91935 21.5611 6.19693 22.1252 6.63539 22.5103C3.0294 24.0725 0.5 27.6658 0.5 31.8392C0.5 37.4421 5.05835 42.0005 10.6613 42.0005H10.8284C13.698 42.0005 16.2885 40.7844 18.1129 38.8411V40.6457C18.1129 41.3927 18.7207 42.0005 19.4677 42.0005H22.1774C22.4243 42.0005 22.6553 41.933 22.8548 41.8172C23.0604 41.9371 23.2942 42.0004 23.5323 42.0005H26.2419C26.989 42.0005 27.5968 41.3927 27.5968 40.6457V18.6407L30.7799 20.0049C31.2695 20.2153 31.797 20.3236 32.3299 20.323C34.2327 20.323 35.8608 18.9643 36.2012 17.0921L36.8568 13.4863C38.3549 13.3225 39.8144 12.834 41.1075 12.0581L42.171 11.42C42.2505 11.3723 42.3193 11.3088 42.3733 11.2335C42.4272 11.1582 42.4651 11.0726 42.4847 10.982C42.5042 10.8914 42.505 10.7978 42.4869 10.7069C42.4688 10.616 42.4323 10.5298 42.3796 10.4536ZM35.7258 3.22289L39.4944 8.66646C38.3141 9.20255 37.0256 9.48436 35.7258 9.48436C34.426 9.48436 33.1375 9.20255 31.9572 8.66638L33.2669 6.77468H35.7258V5.41984H34.2048L35.7258 3.22289ZM34.1019 11.4468C34.1395 11.2741 34.2351 11.1195 34.373 11.0089C34.5108 10.8983 34.6825 10.8384 34.8592 10.8392H34.9164C35.3627 10.8392 35.7258 11.1977 35.7258 11.6385V11.6658C35.7257 11.9768 35.6977 12.2871 35.6421 12.593L35.6171 12.7311L33.8809 12.4417L34.1019 11.4468ZM36.8971 10.7717C37.3135 10.7246 37.7268 10.6526 38.1346 10.5561L38.6025 11.7258C38.1015 11.8928 37.5871 12.0163 37.0649 12.0946C37.0743 11.9517 37.0806 11.8086 37.0806 11.6657V11.6384C37.0806 11.3302 37.0148 11.0371 36.8971 10.7717ZM31.0411 10.8964L30.5976 10.6303L31.1749 9.7964C31.7759 10.0865 32.4033 10.3185 33.0484 10.4892C32.9223 10.6938 32.8313 10.9181 32.7794 11.1528L32.6659 11.6633C32.1003 11.4619 31.5561 11.205 31.0411 10.8964ZM27.5968 8.12952H26.9194V6.77468H27.5968C27.9703 6.77468 28.2742 7.07859 28.2742 7.4521C28.2742 7.82561 27.9703 8.12952 27.5968 8.12952ZM17.4355 7.4521C17.4355 7.07859 17.7394 6.77468 18.1129 6.77468H18.7903V8.12952H18.1129C17.7394 8.12952 17.4355 7.82561 17.4355 7.4521ZM18.8272 5.41984H18.3754L18.2577 5.06665C18.1618 4.77917 18.1129 4.47807 18.113 4.175C18.1129 2.62024 19.3778 1.35533 20.9325 1.35533H24.7771C26.3319 1.35533 27.5968 2.62024 27.5968 4.17492C27.5968 4.47857 27.5481 4.77858 27.4521 5.06657L27.3344 5.41984H26.8028C26.5231 4.63141 25.7702 4.065 24.8871 4.065H23.9424C23.3025 4.06569 22.6723 3.90802 22.1081 3.60606C21.5439 3.30409 21.0632 2.86721 20.7088 2.33437L19.5815 3.08588C19.7672 3.36434 19.979 3.62446 20.2141 3.86271C19.8635 3.97228 19.5493 4.17503 19.3051 4.44928C19.0608 4.72354 18.8956 5.05901 18.8272 5.41984ZM20.1452 8.69703V5.80021C20.145 5.6491 20.1954 5.50228 20.2885 5.38317C20.3815 5.26406 20.5117 5.17952 20.6583 5.14303L21.6531 4.89434C22.3666 5.24058 23.1494 5.42027 23.9424 5.41984H24.8871C25.2606 5.41984 25.5645 5.72375 25.5645 6.09726V8.69703C25.565 9.17876 25.4136 9.64838 25.1319 10.0392C24.8502 10.43 24.4526 10.7221 23.9954 10.874L23.5323 11.0284V12.6664L22.8548 13.6825L22.1774 12.6664V11.0284L21.7142 10.874C21.2571 10.7221 20.8594 10.43 20.5778 10.0392C20.2961 9.64838 20.1447 9.17876 20.1452 8.69703ZM15.8408 16.4846C17.0317 14.6983 19.0018 13.6118 21.1394 13.5518L22.1774 15.1088V24.3876H19.4677V18.5713C19.4677 17.7726 19.1567 17.0217 18.5919 16.4569L17.634 17.4149C17.8289 17.6093 17.9713 17.85 18.0478 18.1145C16.032 20.3832 13.1595 21.6779 10.1124 21.6779H9.98387V19.9877L10.0189 19.9843C12.3945 19.7467 14.5165 18.4711 15.8408 16.4846ZM18.7309 35.4957L17.4521 34.9063C17.7946 34.1507 18.0074 33.3429 18.0817 32.5166H19.4522C19.3927 33.5449 19.1483 34.554 18.7309 35.4957ZM9.98387 39.2597V40.6199C8.89886 40.5374 7.83879 40.253 6.85817 39.7813L7.53805 38.6038C8.30956 38.9614 9.13696 39.1833 9.98387 39.2597ZM11.3387 39.2597C12.1857 39.1834 13.0131 38.9615 13.7845 38.6037L14.492 39.8292C13.5016 40.295 12.4312 40.5669 11.3386 40.6302L11.3387 39.2597ZM10.6613 37.936C7.29951 37.936 4.56452 35.201 4.56452 31.8392C4.56452 28.7065 6.93989 26.1192 9.98387 25.781V28.4521H7.27419V30.4844C7.27419 31.6049 8.18592 32.5166 9.30645 32.5166H10.6613C11.0348 32.5166 11.3387 32.8205 11.3387 33.194V33.8715H9.30645C8.93294 33.8715 8.62903 33.5675 8.62903 33.194H7.27419C7.27419 34.3146 8.18592 35.2263 9.30645 35.2263H9.98387V36.5811H11.3387V35.2263H12.6935V33.194C12.6935 32.4343 12.2741 31.7709 11.655 31.4223L16.1469 29.1763C16.5497 30.0062 16.7587 30.9168 16.7581 31.8392C16.7581 35.201 14.0231 37.936 10.6613 37.936ZM3.24075 31.1618H1.881C1.96349 30.0768 2.24786 29.0168 2.71948 28.0362L3.89683 28.716C3.53909 29.4874 3.31714 30.3148 3.24075 31.1618ZM3.24075 32.5166C3.31709 33.3636 3.53901 34.191 3.89675 34.9625L2.71923 35.6424C2.24755 34.6618 1.96313 33.6017 1.88058 32.5166H3.24075ZM18.1129 26.6785L11.3387 30.0656V22.9694C13.8662 22.7113 16.2316 21.6606 18.1129 19.9678V26.6785ZM9.30645 31.1618C8.93294 31.1618 8.62903 30.8579 8.62903 30.4844V29.8069H9.98387V31.1618H9.30645ZM9.98387 24.4187C9.13693 24.495 8.30951 24.7169 7.53805 25.0747L6.85843 23.8975C7.83895 23.4257 8.89897 23.1412 9.98396 23.0586L9.98387 24.4187ZM18.0812 31.1618C18 30.2612 17.7552 29.3831 17.3587 28.5705L18.4873 28.0061L18.5557 28.1427C19.0263 29.0839 19.3211 30.1139 19.425 31.1617H18.0812V31.1618ZM7.94501 20.1916L8.62903 20.1232V21.6779H8.01919C7.60842 21.6779 7.27419 21.3438 7.27419 20.9329C7.27366 20.748 7.34212 20.5696 7.46618 20.4325C7.59025 20.2954 7.76098 20.2095 7.94501 20.1916ZM5.68615 24.5768L6.3656 25.7538C5.67208 26.2449 5.06688 26.8501 4.57578 27.5436L3.39893 26.8641C4.01483 25.9681 4.7901 25.1928 5.68615 24.5768ZM3.39893 36.8143L4.57578 36.1349C5.06686 36.8284 5.67206 37.4336 6.3656 37.9247L5.68615 39.1016C4.79014 38.4857 4.01487 37.7104 3.39893 36.8143ZM15.6693 39.1585L14.9569 37.9247C15.666 37.4225 16.2826 36.801 16.7792 36.0881L18.0848 36.6898C17.4525 37.6657 16.6312 38.5051 15.6693 39.1585ZM20.8226 32.0064C20.8226 30.4629 20.4577 28.9174 19.7675 27.5368L19.4677 26.9374V25.7424H26.2419V38.3005C25.843 38.0692 25.3805 37.936 24.8871 37.936C24.3937 37.936 23.9312 38.0692 23.5323 38.3005V28.8707L24.5127 28.3805L23.9068 27.1687L22.8548 27.6947L21.803 27.1688L21.1971 28.3806L22.1774 28.8707V38.3005C21.7785 38.0692 21.316 37.936 20.8226 37.936C20.3292 37.936 19.8667 38.0692 19.4677 38.3005V37.0258C20.3286 35.5498 20.8226 33.8347 20.8226 32.0064ZM19.4677 40.6457C19.4677 39.8986 20.0756 39.2908 20.8226 39.2908C21.5639 39.2908 22.1674 39.8897 22.1774 40.6289V40.6457H19.4677ZM23.5323 40.6457C23.5323 39.8986 24.1401 39.2908 24.8871 39.2908C25.6284 39.2908 26.2319 39.8897 26.2419 40.6289V40.6457H23.5323ZM34.8682 16.8498C34.645 18.0773 33.5775 18.9682 32.3299 18.9682C31.9785 18.9682 31.6366 18.898 31.3136 18.7597L26.2419 16.5861V24.3876H23.5323V15.1088L24.5676 13.5557C26.5118 13.6248 28.369 14.2555 29.9592 15.3914L32.7779 17.4047L33.5865 13.7662L35.3747 14.0641L34.8682 16.8498ZM40.4105 10.8964C40.2283 11.0054 40.0423 11.1079 39.8528 11.2037L39.4344 10.1577C39.7203 10.0497 40.0014 9.92912 40.2767 9.7964L40.854 10.6303L40.4105 10.8964Z" fill="black"/>
</g>
<defs>
<clipPath id="clip0_1434_36898">
<rect width="42" height="42" fill="white" transform="translate(0.5 0.000488281)"/>
</clipPath>
</defs>
</svg>
