<svg width="49" height="42" viewBox="0 0 49 42" fill="none" xmlns="http://www.w3.org/2000/svg">
<g clip-path="url(#clip0_1434_29773)">
<path d="M30.0818 27.6384C30.1691 28.9706 29.3795 37.1451 30.1026 38.2674C30.1026 40.6007 29.6099 37.4451 30.0891 37.9118C29.5634 39.0498 30.8019 36.5471 30.0901 37.5789L30.0843 39.446H39.9061V37.5756C39.1943 36.5437 39.9616 35.2054 39.4359 34.0674C39.15 33.4227 38.5146 33.2683 39.4359 31.734C40.1288 30.652 39.7929 29.0621 39.9069 27.7822V39.4426H43.0089V24.5599C43.0086 24.2266 42.9198 23.8995 42.7516 23.6118C42.5834 23.3242 42.3418 23.0864 42.0515 22.9227L37.0641 20.1084H32.9337L27.9447 22.9269C27.6544 23.0906 27.4128 23.3284 27.2446 23.616C27.0764 23.9037 26.9876 24.2308 26.9873 24.564V39.4468H30.0809L30.0818 27.6384Z" fill="#A270FC"/>
<path d="M43.0061 29.1787H39.9033V39.442H43.0061V29.1787Z" fill="#EBB093"/>
<path d="M30.0823 29.1787H26.9795V39.442H30.0823V29.1787Z" fill="#EBB093"/>
<path d="M30.0791 25.8818V27.8492L30.3575 25.8818H30.0791Z" fill="#6C19FF"/>
<path d="M39.9044 25.8818V27.8492L39.626 25.8818H39.9044Z" fill="#C39500"/>
<path d="M34.968 17.7736C34.2481 17.7709 33.5428 17.5708 32.9287 17.195V20.0186C32.9396 20.5592 33.162 21.074 33.5482 21.4525C33.9344 21.831 34.4536 22.043 34.9943 22.043C35.5351 22.043 36.0543 21.831 36.4405 21.4525C36.8267 21.074 37.0491 20.5592 37.0599 20.0186V17.1758C36.4374 17.5645 35.7186 17.7716 34.9847 17.7736H34.968Z" fill="#EBB093"/>
<path d="M34.968 17.7736C34.2481 17.7709 33.5428 17.5708 32.9287 17.195V18.8672C33.5766 19.1295 34.269 19.2644 34.968 19.2644H34.9847C35.6966 19.2649 36.4017 19.1257 37.0599 18.8547V17.1758C36.4374 17.5645 35.7186 17.7716 34.9847 17.7736H34.968Z" fill="#FFC7B5"/>
<path d="M23.3952 20.7273L17.7327 18.667H13.654L7.88282 20.7323C7.42085 20.8976 7.02068 21.2039 6.73726 21.609C6.45383 22.0142 6.30106 22.4983 6.29993 22.9951V39.667H24.9666V22.9859C24.9655 22.4913 24.814 22.0091 24.5328 21.6049C24.2516 21.2008 23.8543 20.8943 23.3952 20.7273Z" fill="#6C19FF"/>
<path d="M15.5655 16.1494C14.8387 16.1461 14.1268 15.9437 13.507 15.5642V18.187C13.507 18.7399 13.7266 19.27 14.1175 19.6609C14.5084 20.0518 15.0386 20.2715 15.5914 20.2715C16.1442 20.2715 16.6744 20.0518 17.0653 19.6609C17.4562 19.27 17.6758 18.7399 17.6758 18.187V15.5449C17.0488 15.9366 16.3248 16.1454 15.5855 16.1478L15.5655 16.1494Z" fill="#FABB8F"/>
<path d="M15.5655 16.1497C14.8387 16.1464 14.1268 15.944 13.507 15.5644V17.2525C14.161 17.5171 14.8599 17.6531 15.5655 17.653H15.583C16.3001 17.6531 17.0103 17.5125 17.6733 17.2392V15.5469C17.0463 15.9386 16.3223 16.1474 15.583 16.1497H15.5655Z" fill="#FCC7A2"/>
<path d="M9.75161 29.292H5.99329V39.4415H9.75161V29.292Z" fill="#F5C19D"/>
<path d="M25.0719 29.292H21.3136V39.4415H25.0719V29.292Z" fill="#F5C19D"/>
<path d="M10.0315 25.7383H9.75305V30.6755L10.0315 25.7383Z" fill="#A270FC"/>
<path d="M21.0363 25.7383H21.3147V30.6755L21.0363 25.7383Z" fill="#A270FC"/>
</g>
<path d="M20.4218 1.93042H18.9196C19.9562 2.40079 20.6785 3.4424 20.6785 4.65489V9.22918H23.4146V4.9233C23.4146 3.27041 22.0747 1.93042 20.4218 1.93042ZM8.62183 4.9233V9.22914H11.3579V4.65489C11.3579 3.4424 12.0802 2.40079 13.1168 1.93042H11.6147C9.96178 1.93042 8.62183 3.27041 8.62183 4.9233Z" fill="#5F566A"/>
<path d="M22.2965 8.58031C22.2965 13.3166 18.6766 17.1606 16.0167 17.1606C13.361 17.1606 9.74109 13.3166 9.74109 8.58031C9.74109 8.25046 9.75378 7.92907 9.78338 7.61614C9.78761 7.54006 9.79183 7.45971 9.80029 7.38355C9.80875 7.30325 9.81721 7.2229 9.82567 7.1467C9.83412 7.09599 9.83835 7.04098 9.84681 6.99027V6.98604C10.3923 3.01098 12.9465 0 16.0167 0C19.0911 0 21.641 3.01512 22.1908 6.99027C22.1992 7.04098 22.2035 7.09599 22.2077 7.1467C22.2162 7.2229 22.2246 7.3032 22.2331 7.38355C22.2415 7.46386 22.25 7.54006 22.25 7.62041C22.2839 7.9333 22.2965 8.25469 22.2965 8.58031Z" fill="#FAB687"/>
<path d="M22.7015 7.33081C21.9403 7.33081 21.2568 8.23193 21.177 9.31283C21.0996 10.3612 21.6223 11.1884 22.3426 11.1884C23.0629 11.1884 23.7396 10.3612 23.8572 9.31283C23.9785 8.23193 23.4626 7.33081 22.7015 7.33081ZM9.33952 7.33081C8.57837 7.33081 8.06249 8.23193 8.18378 9.31283C8.30138 10.3612 8.97812 11.1884 9.69833 11.1884C10.4185 11.1884 10.9414 10.3612 10.864 9.31283C10.7842 8.23193 10.1006 7.33081 9.33952 7.33081Z" fill="#FAB687"/>
<g clip-path="url(#clip1_1434_29773)">
<mask id="mask0_1434_29773" style="mask-type:luminance" maskUnits="userSpaceOnUse" x="25" y="1" width="19" height="19">
<path d="M25.8996 1.86676H43.6329V19.6001H25.8996V1.86676Z" fill="white"/>
</mask>
<g mask="url(#mask0_1434_29773)">
<path d="M32.4622 4.20047C32.4622 3.16961 33.494 2.33381 34.7666 2.33381C36.0397 2.33381 37.0705 3.16961 37.0705 4.20047C37.0705 5.23134 36.0397 6.06714 34.7666 6.06714C33.494 6.06714 32.4622 5.23134 32.4622 4.20047Z" fill="#6D6E71"/>
<path d="M41.7669 12.1335C41.7669 11.1349 41.2755 10.3266 40.6595 10.2762C40.0192 6.79255 37.6275 4.20021 34.7669 4.20021C31.9062 4.20021 29.5145 6.79255 28.8743 10.2762C28.2583 10.3266 27.7669 11.1349 27.7669 12.1335C27.7669 13.1383 28.2643 13.9517 28.8864 13.9923C29.5435 17.2417 31.923 19.1335 34.7669 19.1335C37.6107 19.1335 39.9903 17.2417 40.6478 13.9923C41.2694 13.9517 41.7669 13.1383 41.7669 12.1335Z" fill="#D99E82"/>
<path d="M41.7652 7.93381C40.8319 4.66714 38.0319 3.73381 36.5441 3.73381C35.6985 3.73381 34.7652 4.20047 34.7652 4.20047C34.7652 4.20047 33.8319 3.73381 32.8985 3.73381C31.4985 3.73381 28.6985 4.66714 27.7652 7.93381C26.9961 10.626 28.6985 13.0671 28.6985 13.0671C28.6985 11.6671 29.6319 8.86714 31.9652 8.86714C34.2985 8.86714 34.7652 7.00047 34.7652 7.00047C34.7652 7.00047 35.132 8.86714 37.4653 8.86714C39.7987 8.86714 40.8319 11.6671 40.8319 13.0671C40.8319 13.0671 42.5343 10.626 41.7652 7.93381Z" fill="#808285"/>
<path d="M41.7669 13.5331C41.7669 13.6569 41.7177 13.7756 41.6302 13.8631C41.5427 13.9506 41.424 13.9998 41.3002 13.9998C41.1764 13.9998 41.0577 13.9506 40.9702 13.8631C40.8827 13.7756 40.8335 13.6569 40.8335 13.5331C40.8335 13.4093 40.8827 13.2906 40.9702 13.2031C41.0577 13.1156 41.1764 13.0664 41.3002 13.0664C41.424 13.0664 41.5427 13.1156 41.6302 13.2031C41.7177 13.2906 41.7669 13.4093 41.7669 13.5331ZM28.7002 13.5331C28.7002 13.4093 28.651 13.2906 28.5635 13.2031C28.476 13.1156 28.3573 13.0664 28.2335 13.0664C28.1098 13.0664 27.9911 13.1156 27.9036 13.2031C27.816 13.2906 27.7669 13.4093 27.7669 13.5331C27.7669 13.6569 27.816 13.7756 27.9036 13.8631C27.9911 13.9506 28.1098 13.9998 28.2335 13.9998C28.3573 13.9998 28.476 13.9506 28.5635 13.8631C28.651 13.7756 28.7002 13.6569 28.7002 13.5331Z" fill="#AA8DD8"/>
</g>
</g>
<g clip-path="url(#clip2_1434_29773)">
<mask id="mask1_1434_29773" style="mask-type:luminance" maskUnits="userSpaceOnUse" x="32" y="24" width="17" height="17">
<path d="M48.3005 24.2668H32.4338V40.1335H48.3005V24.2668Z" fill="white"/>
</mask>
<g mask="url(#mask1_1434_29773)">
<path d="M41.2614 25.2387C40.7985 24.6734 39.9339 24.6734 39.4711 25.2387L38.8153 26.0396C38.7704 26.0945 38.6954 26.1146 38.6291 26.0895L37.6607 25.7238C36.9772 25.4656 36.2284 25.8979 36.1102 26.619L35.9428 27.6405C35.9313 27.7105 35.8765 27.7653 35.8064 27.7768L34.785 27.9442C34.0639 28.0624 33.6316 28.8112 33.8898 29.4947L34.2555 30.4631C34.2806 30.5294 34.2605 30.6044 34.2056 30.6494L33.4047 31.3051C32.8393 31.768 32.8393 32.6326 33.4047 33.0955L34.2056 33.7512C34.2605 33.7961 34.2806 33.8711 34.2555 33.9375L33.8898 34.9058C33.6316 35.5893 34.0639 36.3381 34.785 36.4563L35.8064 36.6237C35.8765 36.6352 35.9313 36.6901 35.9428 36.7601L36.1102 37.7815C36.2284 38.5026 36.9772 38.9349 37.6607 38.6767L38.6291 38.311C38.6954 38.2859 38.7704 38.306 38.8153 38.3609L39.4711 39.1618C39.9339 39.7271 40.7985 39.7271 41.2614 39.1618L41.9171 38.3609C41.9621 38.306 42.037 38.2859 42.1034 38.311L43.0717 38.6767C43.7553 38.9349 44.5041 38.5026 44.6223 37.7815L44.7897 36.7601C44.8011 36.6901 44.856 36.6352 44.926 36.6237L45.9475 36.4563C46.6686 36.3381 47.1009 35.5893 46.8427 34.9058L46.4769 33.9375C46.4519 33.8711 46.472 33.7961 46.5268 33.7512L47.3278 33.0955C47.8932 32.6326 47.8932 31.768 47.3278 31.3051L46.5268 30.6494C46.472 30.6044 46.4519 30.5294 46.4769 30.4631L46.8427 29.4947C47.1009 28.8112 46.6686 28.0624 45.9475 27.9442L44.926 27.7768C44.856 27.7653 44.8011 27.7105 44.7897 27.6405L44.6223 26.619C44.5041 25.8979 43.7553 25.4656 43.0717 25.7238L42.1034 26.0895C42.037 26.1146 41.9621 26.0945 41.9171 26.0396L41.2614 25.2387Z" fill="#3DD9EB"/>
</g>
</g>
<path fill-rule="evenodd" clip-rule="evenodd" d="M44.3551 29.5354C44.5487 29.729 44.5487 30.0429 44.3551 30.2366L39.7273 34.8643C39.6343 34.9574 39.5082 35.0096 39.3767 35.0096C39.2452 35.0096 39.1191 34.9574 39.0261 34.8643L36.3816 32.2199C36.188 32.0262 36.188 31.7124 36.3816 31.5187C36.5753 31.3251 36.8892 31.3251 37.0829 31.5187L39.3767 33.8125L43.6539 29.5354C43.8475 29.3417 44.1614 29.3417 44.3551 29.5354Z" fill="#ECEFF1"/>
<g clip-path="url(#clip3_1434_29773)">
<path d="M8.57455 25.9583H12.0746C12.5593 25.9583 12.9496 26.3491 12.9496 26.8333V27.7083H7.69955V26.8333C7.69955 26.3491 8.0898 25.9583 8.57455 25.9583Z" stroke="#F9AA36" stroke-linecap="round" stroke-linejoin="round"/>
<path d="M1.28354 27.4163H19.3669V38.2079C19.3669 39.0158 18.7165 39.6663 17.9085 39.6663H2.74187C2.55026 39.6666 2.36045 39.6292 2.18334 39.556C2.00623 39.4829 1.84532 39.3755 1.70982 39.24C1.57433 39.1045 1.46692 38.9436 1.39377 38.7665C1.32062 38.5894 1.28316 38.3995 1.28354 38.2079V28.8746V27.4163Z" fill="#3DD9EB"/>
<path d="M6.54929 33.4438H2.15854C1.67379 33.4438 1.28354 33.0536 1.28354 32.5688V27.4163H19.3669V32.5688C19.3669 33.0536 18.9766 33.4438 18.4919 33.4438H13.666" fill="#0BBBCF"/>
<path d="M1.28354 32.5696V33.1517C1.28354 33.6365 1.67379 34.0267 2.15854 34.0267H18.4919C18.9766 34.0267 19.3669 33.6365 19.3669 33.1517V32.5696C19.3669 33.0543 18.9766 33.4446 18.4919 33.4446H2.15854C1.67379 33.4446 1.28354 33.0543 1.28354 32.5696Z" fill="#058F9F"/>
<path d="M13.6747 33.5413C13.6747 35.4733 12.1003 37.0413 10.1642 37.0413C8.22758 37.0413 6.67416 35.4733 6.67416 33.5413C6.67416 31.6098 8.22758 30.0413 10.1642 30.0413C12.1009 30.0413 13.6747 31.6098 13.6747 33.5413Z" fill="#F9BC36"/>
<path d="M9.88847 30.9163V31.5153C9.69102 31.5509 9.50417 31.6307 9.34189 31.7487C8.96272 32.0158 8.76439 32.5012 8.90497 32.9649C9.06539 33.5226 9.61081 33.8428 10.1475 33.8329H10.2169C10.5039 33.8271 10.8142 34.0213 10.8877 34.2798L10.8901 34.2856C10.9501 34.4804 10.8504 34.7365 10.6736 34.8596L10.6655 34.8654C10.3639 35.0906 9.83131 35.0288 9.61372 34.7254C9.54998 34.6375 9.51513 34.5319 9.51397 34.4233H8.93064C8.93006 34.6578 9.00647 34.8823 9.14005 35.0684C9.32672 35.3286 9.59681 35.4884 9.88847 35.5573V36.1663H10.4718V35.5695C10.6631 35.5322 10.8486 35.4587 11.0108 35.3385C11.39 35.0713 11.5883 34.5854 11.4471 34.1217C11.2861 33.5646 10.7413 33.2443 10.2052 33.2543H10.137C9.84939 33.2601 9.53847 33.0658 9.46497 32.808L9.46264 32.8022C9.40255 32.6073 9.50231 32.3507 9.67847 32.2276L9.68664 32.2212C9.98822 31.996 10.5208 32.0578 10.7384 32.3612H10.7396C10.8037 32.4487 10.8387 32.5595 10.8387 32.6628H11.4221C11.4221 32.4314 11.3486 32.2061 11.2121 32.0193C11.0321 31.7729 10.7693 31.5997 10.4718 31.5317V30.9163H9.88847Z" fill="#F9AA36"/>
<path d="M13.6747 33.5413C13.6747 35.4733 12.1003 37.0413 10.1642 37.0413C8.22758 37.0413 6.67416 35.4733 6.67416 33.5413C6.67416 31.6098 8.22758 30.0413 10.1642 30.0413C12.1009 30.0413 13.6747 31.6098 13.6747 33.5413Z" fill="#F9BC36"/>
<path d="M9.88847 30.9163V31.5153C9.69102 31.5509 9.50417 31.6307 9.34189 31.7487C8.96272 32.0158 8.76439 32.5012 8.90497 32.9649C9.06539 33.5226 9.61081 33.8428 10.1475 33.8329H10.2169C10.5039 33.8271 10.8142 34.0213 10.8877 34.2798L10.8901 34.2856C10.9501 34.4804 10.8504 34.7365 10.6736 34.8596L10.6655 34.8654C10.3639 35.0906 9.83131 35.0288 9.61372 34.7254C9.54998 34.6375 9.51513 34.5319 9.51397 34.4233H8.93064C8.93006 34.6578 9.00647 34.8823 9.14005 35.0684C9.32672 35.3286 9.59681 35.4884 9.88847 35.5573V36.1663H10.4718V35.5695C10.6631 35.5322 10.8486 35.4587 11.0108 35.3385C11.39 35.0713 11.5883 34.5854 11.4471 34.1217C11.2861 33.5646 10.7413 33.2443 10.2052 33.2543H10.137C9.84939 33.2601 9.53847 33.0658 9.46497 32.808L9.46264 32.8022C9.40255 32.6073 9.50231 32.3507 9.67847 32.2276L9.68664 32.2212C9.98822 31.996 10.5208 32.0578 10.7384 32.3612H10.7396C10.8037 32.4487 10.8387 32.5595 10.8387 32.6628H11.4221C11.4221 32.4314 11.3486 32.2061 11.2121 32.0193C11.0321 31.7729 10.7693 31.5997 10.4718 31.5317V30.9163H9.88847Z" fill="#F9AA36"/>
<path d="M13.6747 33.5413C13.6747 35.4733 12.1003 37.0413 10.1642 37.0413C8.22758 37.0413 6.67416 35.4733 6.67416 33.5413C6.67416 31.6098 8.22758 30.0413 10.1642 30.0413C12.1009 30.0413 13.6747 31.6098 13.6747 33.5413Z" stroke="#F9AA36" stroke-miterlimit="34.178" stroke-linecap="round" stroke-linejoin="round"/>
</g>
<path d="M2.09955 39.53H42.9986" stroke="black" stroke-width="0.2"/>
<defs>
<clipPath id="clip0_1434_29773">
<rect width="40.1333" height="40.1333" fill="white" transform="translate(5.36621)"/>
</clipPath>
<clipPath id="clip1_1434_29773">
<rect width="17.7333" height="17.7333" fill="white" transform="translate(25.8996 1.8667)"/>
</clipPath>
<clipPath id="clip2_1434_29773">
<rect width="15.8667" height="15.8667" fill="white" transform="translate(32.4338 24.2668)"/>
</clipPath>
<clipPath id="clip3_1434_29773">
<rect width="18.6667" height="18.6667" fill="white" transform="translate(0.699554 23.3333)"/>
</clipPath>
</defs>
</svg>
