<svg width="49" height="42" viewBox="0 0 49 42" fill="none" xmlns="http://www.w3.org/2000/svg">
<path d="M24.4997 13.2683C24.3392 13.2683 24.1852 13.2045 24.0717 13.091C23.9582 12.9775 23.8944 12.8235 23.8944 12.663V8.86972C23.8944 8.70918 23.9582 8.55521 24.0717 8.4417C24.1852 8.32818 24.3392 8.2644 24.4997 8.2644C24.6603 8.2644 24.8142 8.32818 24.9277 8.4417C25.0413 8.55521 25.105 8.70918 25.105 8.86972V12.663C25.105 12.8235 25.0413 12.9775 24.9277 13.091C24.8142 13.2045 24.6603 13.2683 24.4997 13.2683ZM15.9447 13.3886C15.7839 13.3885 15.6298 13.3246 15.5161 13.211L12.8342 10.5291C12.7779 10.4728 12.7333 10.4061 12.7029 10.3326C12.6725 10.2592 12.6568 10.1804 12.6568 10.1009C12.6568 10.0214 12.6725 9.94267 12.7029 9.8692C12.7333 9.79574 12.7779 9.72899 12.8342 9.67276C12.8904 9.61654 12.9571 9.57193 13.0306 9.5415C13.1041 9.51108 13.1828 9.49541 13.2623 9.49541C13.3418 9.49541 13.4206 9.51108 13.494 9.5415C13.5675 9.57193 13.6343 9.61654 13.6905 9.67276L16.3724 12.3547C16.4568 12.4395 16.5143 12.5473 16.5376 12.6647C16.5608 12.782 16.5488 12.9036 16.5031 13.0142C16.4573 13.1247 16.3799 13.2193 16.2805 13.2859C16.1812 13.3525 16.0643 13.3882 15.9447 13.3886ZM33.0548 13.3886C32.9352 13.3882 32.8183 13.3525 32.7189 13.2859C32.6196 13.2193 32.5421 13.1247 32.4964 13.0142C32.4507 12.9036 32.4386 12.782 32.4619 12.6647C32.4851 12.5473 32.5426 12.4395 32.627 12.3547L35.309 9.67276C35.3652 9.61654 35.4319 9.57193 35.5054 9.5415C35.5789 9.51108 35.6576 9.49541 35.7371 9.49541C35.8166 9.49541 35.8954 9.51108 35.9688 9.5415C36.0423 9.57193 36.1091 9.61654 36.1653 9.67276C36.2215 9.72899 36.2661 9.79574 36.2965 9.8692C36.327 9.94267 36.3426 10.0214 36.3426 10.1009C36.3426 10.1804 36.327 10.2592 36.2965 10.3326C36.2661 10.4061 36.2215 10.4728 36.1653 10.5291L33.4834 13.211C33.3696 13.3246 33.2155 13.3885 33.0548 13.3886ZM36.9691 21.9444H33.1759C33.0153 21.9444 32.8614 21.8807 32.7478 21.7671C32.6343 21.6536 32.5705 21.4997 32.5705 21.3391C32.5705 21.1786 32.6343 21.0246 32.7478 20.9111C32.8614 20.7976 33.0153 20.7338 33.1759 20.7338H36.9691C37.1297 20.7338 37.2836 20.7976 37.3972 20.9111C37.5107 21.0246 37.5744 21.1786 37.5744 21.3391C37.5744 21.4997 37.5107 21.6536 37.3972 21.7671C37.2836 21.8807 37.1297 21.9444 36.9691 21.9444ZM15.8236 21.9444H12.0303C11.8698 21.9444 11.7158 21.8807 11.6023 21.7671C11.4888 21.6536 11.425 21.4997 11.425 21.3391C11.425 21.1786 11.4888 21.0246 11.6023 20.9111C11.7158 20.7976 11.8698 20.7338 12.0303 20.7338H15.8236C15.9841 20.7338 16.1381 20.7976 16.2516 20.9111C16.3651 21.0246 16.4289 21.1786 16.4289 21.3391C16.4289 21.4997 16.3651 21.6536 16.2516 21.7671C16.1381 21.8807 15.9841 21.9444 15.8236 21.9444Z" fill="#DEDEDE"/>
<path d="M9.81821 5.32009H6.19597C6.10637 5.32009 6.02045 5.28449 5.9571 5.22114C5.89375 5.15779 5.85815 5.07187 5.85815 4.98227V3.62067C5.85839 3.37908 5.95447 3.14745 6.1253 2.97662C6.29613 2.80579 6.52776 2.70971 6.76935 2.70947H9.24663C9.48822 2.70971 9.71985 2.80579 9.89068 2.97662C10.0615 3.14745 10.1576 3.37908 10.1578 3.62067V4.98227C10.1578 5.02679 10.149 5.07086 10.1319 5.11197C10.1149 5.15307 10.0898 5.19039 10.0582 5.22178C10.0267 5.25317 9.98923 5.27802 9.94804 5.29489C9.90685 5.31176 9.86273 5.32032 9.81821 5.32009ZM6.53378 4.64446H9.4804V3.62067C9.4804 3.55819 9.45558 3.49827 9.4114 3.45409C9.36723 3.40992 9.30731 3.3851 9.24483 3.3851H6.76754C6.70507 3.3851 6.64515 3.40992 6.60097 3.45409C6.5568 3.49827 6.53198 3.55819 6.53198 3.62067L6.53378 4.64446Z" fill="#676E87"/>
<path d="M10.9796 4.3064H5.03542C4.74885 4.3064 4.51654 4.53871 4.51654 4.82528V9.04567C4.51654 9.33224 4.74885 9.56456 5.03542 9.56456H10.9796C11.2661 9.56456 11.4984 9.33224 11.4984 9.04567V4.82528C11.4984 4.53871 11.2661 4.3064 10.9796 4.3064Z" fill="#FFC166"/>
<path d="M10.9805 4.3064H9.78242C9.92004 4.3064 10.052 4.36106 10.1493 4.45837C10.2466 4.55568 10.3013 4.68766 10.3013 4.82528V9.04567C10.3013 9.18329 10.2466 9.31527 10.1493 9.41258C10.052 9.50989 9.92004 9.56456 9.78242 9.56456H10.9805C11.1181 9.56456 11.2501 9.50989 11.3474 9.41258C11.4447 9.31527 11.4994 9.18329 11.4994 9.04567V4.82528C11.4994 4.68766 11.4447 4.55568 11.3474 4.45837C11.2501 4.36106 11.1181 4.3064 10.9805 4.3064Z" fill="#FFB74E"/>
<path d="M11.4989 5.8842L8.35093 7.45481C8.24261 7.50182 8.12579 7.52607 8.00772 7.52607C7.88964 7.52607 7.77282 7.50182 7.6645 7.45481L4.51654 5.8842V4.82528C4.51654 4.68774 4.57115 4.55583 4.66836 4.45853C4.76557 4.36124 4.89743 4.30652 5.03497 4.3064H10.9805C11.1181 4.3064 11.2501 4.36106 11.3474 4.45837C11.4447 4.55568 11.4993 4.68766 11.4993 4.82528L11.4989 5.8842Z" fill="#FFAE36"/>
<path d="M9.78242 4.3064C9.92004 4.3064 10.052 4.36107 10.1493 4.45837C10.2466 4.55568 10.3013 4.68766 10.3013 4.82528V6.48191L11.4994 5.88421V4.82528C11.4991 4.72175 11.4677 4.6207 11.4093 4.53521C11.3999 4.52125 11.39 4.50818 11.3796 4.49512C11.3371 4.44363 11.2851 4.4008 11.2265 4.36901C11.2116 4.3609 11.1967 4.35369 11.1814 4.34693C11.1176 4.32004 11.0489 4.30625 10.9796 4.3064H9.78242Z" fill="#FFA41F"/>
<path d="M8.39707 6.82031H7.6156C7.44147 6.82031 7.30031 6.96147 7.30031 7.1356V7.91707C7.30031 8.09121 7.44147 8.23237 7.6156 8.23237H8.39707C8.5712 8.23237 8.71236 8.09121 8.71236 7.91707V7.1356C8.71236 6.96147 8.5712 6.82031 8.39707 6.82031Z" fill="#676E87"/>
<path d="M8.39926 6.82031H7.76868C7.8523 6.82031 7.93249 6.85353 7.99162 6.91266C8.05075 6.97179 8.08397 7.05198 8.08397 7.1356V7.91707C8.08397 8.0007 8.05075 8.08089 7.99162 8.14002C7.93249 8.19915 7.8523 8.23237 7.76868 8.23237H8.39926C8.48288 8.23237 8.56308 8.19915 8.6222 8.14002C8.68133 8.08089 8.71455 8.0007 8.71455 7.91707V7.1356C8.71455 7.05198 8.68133 6.97179 8.6222 6.91266C8.56308 6.85353 8.48288 6.82031 8.39926 6.82031Z" fill="#595F74"/>
<path d="M30.7462 27.2569L26.5455 25.7495H23.5197L19.2384 27.2606C18.8957 27.3815 18.5988 27.6056 18.3885 27.902C18.1783 28.1984 18.065 28.5527 18.0641 28.9161V41.1139H31.9119V28.9094C31.9111 28.5475 31.7987 28.1947 31.5901 27.899C31.3815 27.6033 31.0868 27.3791 30.7462 27.2569Z" fill="#00B569"/>
<path d="M25.0119 24.209C24.4845 24.2066 23.9677 24.0597 23.5179 23.7842V25.6879C23.5179 26.0892 23.6773 26.474 23.961 26.7577C24.2447 27.0414 24.6295 27.2008 25.0308 27.2008C25.432 27.2008 25.8168 27.0414 26.1005 26.7577C26.3843 26.474 26.5436 26.0892 26.5436 25.6879V23.7703C26.0886 24.0546 25.5631 24.2061 25.0265 24.2078L25.0119 24.209Z" fill="#FCD3C4"/>
<path d="M25.0119 24.209C24.4845 24.2066 23.9677 24.0597 23.5179 23.7842V25.0095C23.9926 25.2015 24.4999 25.3002 25.0119 25.3002H25.0247C25.5452 25.3002 26.0606 25.1982 26.5418 24.9998V23.7715C26.0867 24.0558 25.5613 24.2073 25.0247 24.209H25.0119Z" fill="#FFC7B5"/>
<path d="M20.7919 33.7483H18.0641V41.1149H20.7919V33.7483Z" fill="#FCD3C4"/>
<path d="M31.9111 33.7483H29.1833V41.1149H31.9111V33.7483Z" fill="#FCD3C4"/>
<path d="M20.9944 31.1682H20.7923V34.7517L20.9944 31.1682Z" fill="#0C7C4D"/>
<path d="M28.9822 31.1682H29.1843V34.7517L28.9822 31.1682Z" fill="#0C7C4D"/>
<path d="M29.8328 19.6186C29.7309 18.7296 28.9577 18.8534 28.1791 19.0203C28.1622 19.0239 28.1063 19.0306 28.0705 19.0349V21.3597C28.0702 21.5637 28.0482 21.7672 28.005 21.9666C28.3048 21.9763 28.6042 21.9352 28.8904 21.8452C29.5136 21.6049 29.9445 20.5878 29.8328 19.6186ZM22.1403 19.0349C22.1045 19.0306 22.0493 19.0239 22.0323 19.0203C21.2531 18.8534 20.4806 18.7296 20.3786 19.6186C20.267 20.5896 20.6978 21.6049 21.3205 21.8482C21.6072 21.9359 21.9061 21.9769 22.2059 21.9696C22.1629 21.7702 22.1409 21.5668 22.1403 21.3627V19.0349Z" fill="#FFC7B5"/>
<path d="M29.1282 12.9932C28.9672 13.187 28.7628 13.3402 28.5316 13.4403C28.3004 13.5405 28.0489 13.5848 27.7974 13.5697C26.8871 13.3876 26.2087 12.8706 24.4184 12.8706C23.09 12.8706 20.8192 13.1382 20.3992 15.1767C19.9016 17.5962 22.0335 19.0199 22.0335 19.0199V21.3599C22.0383 22.1686 22.3641 22.9422 22.9393 23.5106C23.5145 24.0791 24.2919 24.3958 25.1005 24.3911H25.1133C25.9219 24.3958 26.6994 24.0791 27.2745 23.5106C27.8497 22.9422 28.1755 22.1686 28.1803 21.3599V19.0205C28.7263 18.6127 29.1848 18.0995 29.5288 17.5112C29.8206 16.9425 29.9652 16.3097 29.9493 15.6706C29.9891 14.7106 29.6994 13.7659 29.1282 12.9932Z" fill="#FCD3C4"/>
<path d="M28.179 19.0206C28.179 19.0206 27.8149 16.9761 27.2876 17.3517C26.9666 17.6324 26.5851 17.8351 26.1729 17.9442C25.7607 18.0532 25.3289 18.0656 24.9111 17.9804C24.2871 17.8994 23.6867 17.6895 23.1482 17.3639C22.9811 17.7868 22.7518 18.1824 22.4679 18.5375C22.3354 18.7103 22.1897 18.8726 22.0322 19.023C22.0322 19.023 19.9003 17.5969 20.3998 15.1774C20.8197 13.1384 23.0905 12.8713 24.419 12.8713C26.2092 12.8713 26.8901 13.389 27.7979 13.5704C28.0494 13.5856 28.301 13.5414 28.5322 13.4412C28.7634 13.341 28.9678 13.1878 29.1288 12.9939C29.7 13.7668 29.9897 14.7118 29.9498 15.672C29.9658 16.3108 29.8212 16.9435 29.5293 17.512C29.1847 18.1002 28.7256 18.6132 28.179 19.0206Z" fill="#374658"/>
<path d="M18.0645 41.1807H31.9119" stroke="black" stroke-width="0.2"/>
<path fill-rule="evenodd" clip-rule="evenodd" d="M4.89928 18.686C7.11141 18.686 8.90733 20.5759 8.90733 22.9037V23.8564H0.891235V22.9037C0.891235 20.5759 2.68722 18.686 4.89928 18.686Z" fill="#F4AA01"/>
<path fill-rule="evenodd" clip-rule="evenodd" d="M0.957382 22.1875C1.27663 20.2004 2.92169 18.6848 4.90044 18.6848C6.2654 18.6848 7.47154 19.4059 8.19342 20.5058C7.24329 21.746 5.4303 22.585 3.35184 22.585C2.49447 22.585 1.68227 22.4422 0.957382 22.1875Z" fill="#FEBC24"/>
<path fill-rule="evenodd" clip-rule="evenodd" d="M1.67667 23.3798C2.83315 22.1962 3.29426 20.1401 3.46058 19.0967C3.49056 18.901 3.58317 18.7203 3.72452 18.5817C3.86586 18.443 4.04834 18.354 4.24458 18.3278C4.42903 18.3039 4.64865 18.2905 4.89984 18.2905C5.15111 18.2905 5.37065 18.3039 5.5558 18.3229C5.75311 18.3492 5.93657 18.4388 6.07871 18.5781C6.22084 18.7175 6.31398 18.8992 6.34417 19.0959C6.50549 20.1401 6.96654 22.1962 8.12308 23.3798C8.75221 24.0238 1.04748 24.0238 1.67667 23.3798Z" fill="#FEBC24"/>
<path fill-rule="evenodd" clip-rule="evenodd" d="M2.34132 22.5161C3.06652 21.3042 3.37552 19.7701 3.49417 18.9773C3.51624 18.8194 3.58807 18.6727 3.69921 18.5585C3.81036 18.4442 3.95504 18.3684 4.11222 18.342C4.3232 18.3124 4.59192 18.2905 4.91211 18.2905C5.2323 18.2905 5.50101 18.3124 5.71237 18.3398C5.87003 18.3662 6.01514 18.4423 6.12663 18.5569C6.23813 18.6715 6.31019 18.8186 6.33236 18.9769C6.42036 19.5745 6.61733 20.5929 7.01928 21.5771C6.04275 22.2045 4.7633 22.5851 3.36351 22.5851C3.01429 22.5851 2.67259 22.5613 2.34132 22.5161Z" fill="#FECE5F"/>
<path fill-rule="evenodd" clip-rule="evenodd" d="M9.34719 23.9352C9.34719 23.7879 9.28868 23.6467 9.18454 23.5425C9.0804 23.4384 8.93916 23.3799 8.79188 23.3799H1.00728C0.860002 23.3799 0.718755 23.4384 0.614613 23.5425C0.510472 23.6467 0.451965 23.7879 0.451965 23.9352V23.9366C0.451965 24.0839 0.510472 24.2251 0.614613 24.3292C0.718755 24.4334 0.860002 24.4919 1.00728 24.4919H8.79188C8.93916 24.4919 9.0804 24.4334 9.18454 24.3292C9.28868 24.2251 9.34719 24.0839 9.34719 23.9366V23.9352Z" fill="#FE8709"/>
<g clip-path="url(#clip0_1434_28285)">
<path d="M25.1775 3.49298C25.4347 3.49298 25.6432 3.28446 25.6432 3.02725C25.6432 2.77004 25.4347 2.56152 25.1775 2.56152C24.9202 2.56152 24.7117 2.77004 24.7117 3.02725C24.7117 3.28446 24.9202 3.49298 25.1775 3.49298Z" fill="#515665"/>
<path d="M25.3697 2.60352C25.4089 2.68958 25.421 2.78559 25.4042 2.87868C25.3873 2.97178 25.3425 3.05751 25.2756 3.1244C25.2087 3.19129 25.123 3.23615 25.0299 3.25297C24.9368 3.26979 24.8408 3.25776 24.7547 3.21851C24.7855 3.2875 24.8325 3.34798 24.8919 3.39473C24.9512 3.44148 25.021 3.47309 25.0953 3.48684C25.1696 3.50059 25.2461 3.49607 25.3182 3.47366C25.3904 3.45125 25.456 3.41163 25.5094 3.35821C25.5628 3.3048 25.6024 3.23919 25.6248 3.16705C25.6473 3.09491 25.6518 3.0184 25.638 2.94412C25.6243 2.86984 25.5927 2.80002 25.5459 2.74069C25.4992 2.68135 25.4387 2.63427 25.3697 2.60352Z" fill="#393D48"/>
<path d="M27.74 4.73763V6.86949L27.7295 6.87531L27.0892 5.66559C27.0397 5.57218 26.9656 5.49408 26.8749 5.43971C26.796 5.39237 26.7071 5.36407 26.6153 5.35704L26.8086 5.35588V5.12302C26.8087 4.96275 26.7773 4.80404 26.7159 4.65598C26.6546 4.50792 26.5646 4.37344 26.4511 4.26026L26.0413 3.85042C25.9281 3.73696 25.7936 3.64697 25.6456 3.58563C25.4975 3.52429 25.3388 3.4928 25.1785 3.49298C25.302 3.49298 25.4205 3.44391 25.5078 3.35657C25.5952 3.26923 25.6443 3.15077 25.6443 3.02725C25.6443 2.90373 25.5952 2.78527 25.5078 2.69793C25.4205 2.61059 25.302 2.56152 25.1785 2.56152H25.5639C25.7243 2.56145 25.8832 2.59298 26.0314 2.65431C26.1797 2.71564 26.3144 2.80557 26.4278 2.91897L27.3826 3.87371C27.496 3.98718 27.5859 4.12188 27.6472 4.27011C27.7086 4.41834 27.7401 4.57721 27.74 4.73763Z" fill="#EDF4FA"/>
<path d="M25.7324 3.14355H25.6276C25.6021 3.24333 25.5441 3.33178 25.4628 3.39501C25.3815 3.45824 25.2815 3.49266 25.1785 3.49285C25.3388 3.49267 25.4975 3.52416 25.6456 3.5855C25.7936 3.64684 25.9281 3.73683 26.0413 3.85029L26.4511 4.26013C26.5646 4.37331 26.6546 4.50779 26.7159 4.65585C26.7773 4.80391 26.8087 4.96263 26.8086 5.12289V5.35575L26.6153 5.35692C26.7071 5.36394 26.796 5.39224 26.8749 5.43958C26.9656 5.49395 27.0397 5.57206 27.0892 5.66546L27.2161 5.90519V4.62724C27.2161 4.58135 27.207 4.53592 27.1895 4.49352C27.1719 4.45113 27.1462 4.41261 27.1137 4.38017L25.9795 3.2459C25.947 3.21345 25.9085 3.18771 25.8661 3.17015C25.8237 3.15258 25.7783 3.14355 25.7324 3.14355Z" fill="#CDD8E3"/>
<path d="M25.1778 3.49301V3.95873H23.5477V1.6301C23.5477 1.59922 23.56 1.56961 23.5818 1.54777C23.6037 1.52594 23.6333 1.51367 23.6642 1.51367H25.0613C25.0922 1.51367 25.1218 1.52594 25.1437 1.54777C25.1655 1.56961 25.1778 1.59922 25.1778 1.6301V2.56155C25.0543 2.56155 24.9358 2.61062 24.8485 2.69796C24.7611 2.7853 24.712 2.90376 24.712 3.02728C24.712 3.1508 24.7611 3.26926 24.8485 3.3566C24.9358 3.44394 25.0543 3.49301 25.1778 3.49301Z" fill="#EDF4FA"/>
<path d="M25.0613 1.51367H24.5956V2.68299C24.5956 2.80466 24.5717 2.92514 24.5251 3.03755C24.4786 3.14995 24.4103 3.25209 24.3243 3.33812C24.2383 3.42415 24.1361 3.49239 24.0237 3.53895C23.9113 3.5855 23.7908 3.60945 23.6692 3.60944H23.5477V3.95873H25.1778V3.49301C25.0543 3.49301 24.9358 3.44394 24.8485 3.3566C24.7611 3.26926 24.712 3.1508 24.712 3.02728C24.712 2.90376 24.7611 2.7853 24.8485 2.69796C24.9358 2.61062 25.0543 2.56155 25.1778 2.56155V1.6301C25.1778 1.59922 25.1655 1.56961 25.1437 1.54777C25.1218 1.52594 25.0922 1.51367 25.0613 1.51367Z" fill="#CDD8E3"/>
<path d="M27.7918 6.9925C27.8108 7.02802 27.8201 7.06784 27.8191 7.10807C27.818 7.1483 27.8066 7.18757 27.7858 7.22205C27.765 7.25653 27.7357 7.28504 27.7006 7.3048C27.6656 7.32456 27.626 7.3349 27.5858 7.3348H25.993V5.93646C25.9933 5.78247 26.0546 5.63487 26.1635 5.52598C26.2724 5.41709 26.42 5.35578 26.574 5.35547H26.5751C26.5879 5.35547 26.6008 5.35547 26.6147 5.35663C26.7065 5.36366 26.7954 5.39196 26.8744 5.4393C26.965 5.49367 27.0391 5.57177 27.0886 5.66518L27.729 6.8749L27.7918 6.9925Z" fill="#EDF4FA"/>
<path d="M26.4585 5.82146V5.471C26.4588 5.43582 26.4624 5.40074 26.4691 5.36621C26.3356 5.39073 26.2149 5.46121 26.1279 5.56541C26.0409 5.66961 25.9931 5.80098 25.9928 5.93673V7.33507H27.5856C27.6258 7.33516 27.6654 7.32482 27.7005 7.30506C27.7355 7.2853 27.7649 7.25679 27.7856 7.22231C27.8064 7.18783 27.8178 7.14856 27.8189 7.10833C27.82 7.0681 27.8106 7.02828 27.7917 6.99276L27.7288 6.87516L27.7256 6.86934H26.9951C26.9247 6.86936 26.8549 6.85549 26.7898 6.82852C26.7247 6.80156 26.6655 6.76203 26.6157 6.7122C26.5658 6.66237 26.5263 6.6032 26.4993 6.53809C26.4724 6.47297 26.4585 6.40318 26.4585 6.33271V5.82146Z" fill="#CDD8E3"/>
<path d="M26.5755 6.1708C26.7041 6.1708 26.8083 6.06655 26.8083 5.93794C26.8083 5.80933 26.7041 5.70508 26.5755 5.70508C26.4468 5.70508 26.3426 5.80933 26.3426 5.93794C26.3426 6.06655 26.4468 6.1708 26.5755 6.1708Z" fill="#515665"/>
<path d="M26.3425 5.00684L26.5754 5.35613H26.5742C26.4202 5.35644 26.2726 5.41775 26.1637 5.52664C26.0549 5.63553 25.9935 5.78313 25.9932 5.93712V6.28758L25.1782 6.40401L24.8289 6.75331V5.93829H25.5275C25.5584 5.93829 25.588 5.92602 25.6098 5.90419C25.6317 5.88235 25.6439 5.85274 25.6439 5.82186V5.47256H25.8768C25.9077 5.47256 25.9373 5.46029 25.9591 5.43846C25.981 5.41662 25.9932 5.38701 25.9932 5.35613V5.12327C25.9932 5.09239 25.981 5.06277 25.9591 5.04094C25.9373 5.0191 25.9077 5.00684 25.8768 5.00684H26.3425Z" fill="#B4D3E0"/>
<path d="M26.4593 1.28093L25.1785 2.56168V1.86309L26.11 0.931641L26.4593 1.28093Z" fill="#00B569"/>
<path d="M25.9928 6.28735V7.33524H22.9656V6.75308H24.8285L25.1778 6.40378L25.9928 6.28735Z" fill="#515665"/>
<path d="M25.6435 6.3373V6.65062C25.6435 6.73954 25.6081 6.82482 25.5453 6.88769C25.4824 6.95057 25.3971 6.98591 25.3082 6.98594H22.9656V7.33524H25.9928V6.28735L25.6435 6.3373Z" fill="#F5BC00"/>
<path d="M25.9933 5.12327V5.35613C25.9933 5.38701 25.981 5.41662 25.9592 5.43846C25.9374 5.46029 25.9077 5.47256 25.8769 5.47256H22.8496C22.8188 5.47256 22.7892 5.46029 22.7673 5.43846C22.7455 5.41662 22.7332 5.38701 22.7332 5.35613V5.12327C22.7332 5.09239 22.7455 5.06277 22.7673 5.04094C22.7892 5.0191 22.8188 5.00684 22.8496 5.00684H25.8769C25.9077 5.00684 25.9374 5.0191 25.9592 5.04094C25.981 5.06277 25.9933 5.09239 25.9933 5.12327Z" fill="#00B569"/>
<path d="M25.8769 5.00684H25.644V5.12327C25.644 5.15415 25.6317 5.18376 25.6099 5.2056C25.5881 5.22743 25.5584 5.2397 25.5276 5.2397H22.7332V5.35613C22.7332 5.38701 22.7455 5.41662 22.7673 5.43846C22.7892 5.46029 22.8188 5.47256 22.8496 5.47256H25.8769C25.9077 5.47256 25.9374 5.46029 25.9592 5.43846C25.981 5.41662 25.9933 5.38701 25.9933 5.35613V5.12327C25.9933 5.09239 25.981 5.06277 25.9592 5.04094C25.9374 5.0191 25.9077 5.00684 25.8769 5.00684Z" fill="#00B569"/>
<path d="M25.6443 5.47266V5.82195C25.6443 5.85283 25.632 5.88245 25.6102 5.90428C25.5884 5.92612 25.5588 5.93838 25.5279 5.93838H23.1993C23.1684 5.93838 23.1388 5.92612 23.1169 5.90428C23.0951 5.88245 23.0828 5.85283 23.0828 5.82195V5.58909C23.0828 5.55821 23.0951 5.52859 23.1169 5.50676C23.1388 5.48492 23.1684 5.47266 23.1993 5.47266H25.6443Z" fill="#515665"/>
<path d="M25.1786 5.47266V5.58909C25.1786 5.61997 25.1663 5.64958 25.1445 5.67142C25.1227 5.69325 25.093 5.70552 25.0622 5.70552H23.0828V5.82195C23.0828 5.85283 23.0951 5.88245 23.1169 5.90428C23.1388 5.92612 23.1684 5.93838 23.1993 5.93838H25.5279C25.5588 5.93838 25.5884 5.92612 25.6102 5.90428C25.632 5.88245 25.6443 5.85283 25.6443 5.82195V5.47266H25.1786Z" fill="#F5BC00"/>
<path d="M25.6443 4.07542V4.30828C25.6443 4.33916 25.632 4.36877 25.6102 4.39061C25.5884 4.41244 25.5588 4.42471 25.5279 4.42471H23.1993C23.1684 4.42471 23.1388 4.41244 23.1169 4.39061C23.0951 4.36877 23.0828 4.33916 23.0828 4.30828V4.07542C23.0828 4.04454 23.0951 4.01492 23.1169 3.99309C23.1388 3.97125 23.1684 3.95898 23.1993 3.95898H25.5279C25.5588 3.95898 25.5884 3.97125 25.6102 3.99309C25.632 4.01492 25.6443 4.04454 25.6443 4.07542Z" fill="#F5BC00"/>
<path d="M24.9444 0.81543V1.51402H23.7801V0.81543H23.8965H24.828H24.9444Z" fill="#515665"/>
<path d="M24.828 0.81543H24.5951V0.820436C24.5951 0.911747 24.5588 0.999318 24.4943 1.06388C24.4297 1.12845 24.3421 1.16472 24.2508 1.16472H23.7801V1.51402H24.9444V0.81543H24.828Z" fill="#393D48"/>
<path d="M24.8287 0.232642V0.8148H23.8973V0.232642C23.8973 0.201763 23.9095 0.172148 23.9314 0.150313C23.9532 0.128478 23.9828 0.116211 24.0137 0.116211H24.7123C24.7432 0.116211 24.7728 0.128478 24.7946 0.150313C24.8165 0.172148 24.8287 0.201763 24.8287 0.232642Z" fill="#EDF4FA"/>
<path d="M24.7123 0.116211H24.4794V0.275722C24.4794 0.356926 24.4471 0.434795 24.3897 0.492214C24.3323 0.549634 24.2544 0.581906 24.1732 0.581937H23.8973V0.8148H24.8287V0.232642C24.8287 0.201763 24.8165 0.172148 24.7946 0.150313C24.7728 0.128478 24.7432 0.116211 24.7123 0.116211Z" fill="#CDD8E3"/>
<path d="M25.3432 3.02696L25.1785 2.8623L25.0139 3.02696L25.1785 3.19162L25.3432 3.02696Z" fill="#2E2E39"/>
</g>
<g clip-path="url(#clip1_1434_28285)">
<path fill-rule="evenodd" clip-rule="evenodd" d="M42.0811 6.38184H42.8535V7.37146H42.0811V6.38184Z" fill="#DDD4D4"/>
<path fill-rule="evenodd" clip-rule="evenodd" d="M42.0811 6.68652H42.8535V7.10647H42.0811V6.68652Z" fill="#ECE4E3"/>
<path fill-rule="evenodd" clip-rule="evenodd" d="M43.1074 7.47682C43.1074 7.44878 43.0962 7.42189 43.0764 7.40207C43.0566 7.38224 43.0297 7.3711 43.0017 7.37109H41.9349C41.9069 7.37109 41.88 7.38223 41.8601 7.40206C41.8403 7.42189 41.8292 7.44878 41.8292 7.47682V9.54719C41.8292 9.89802 42.1136 10.1824 42.4644 10.1824H42.4721C42.823 10.1824 43.1074 9.89802 43.1074 9.54719V7.47682Z" fill="#03834D"/>
<path fill-rule="evenodd" clip-rule="evenodd" d="M42.8217 7.37109H41.9349C41.921 7.37109 41.9073 7.37383 41.8944 7.37914C41.8816 7.38445 41.87 7.39224 41.8601 7.40206C41.8503 7.41188 41.8425 7.42353 41.8372 7.43636C41.8319 7.44919 41.8292 7.46293 41.8292 7.47682V9.54719C41.8292 9.60705 41.8374 9.66496 41.8529 9.71982C41.9552 9.82841 42.1003 9.89621 42.2613 9.89621C42.5711 9.89621 42.8222 9.64509 42.8222 9.33531V7.38179C42.8222 7.37817 42.822 7.37461 42.8217 7.37109Z" fill="#00B569"/>
<path fill-rule="evenodd" clip-rule="evenodd" d="M39.7829 6.34766H38.8824L38.6208 9.41203C38.6124 9.50992 38.6245 9.60849 38.6562 9.70148C38.688 9.79447 38.7387 9.87985 38.8051 9.95222C38.8716 10.0246 38.9523 10.0824 39.0423 10.1219C39.1322 10.1614 39.2294 10.1818 39.3277 10.1818H39.3376C39.4358 10.1818 39.533 10.1614 39.623 10.1219C39.7129 10.0824 39.7937 10.0246 39.8602 9.95222C39.9266 9.87985 39.9773 9.79447 40.009 9.70148C40.0408 9.60849 40.0528 9.50993 40.0445 9.41203L39.7829 6.34766Z" fill="#DDD4D4"/>
<path fill-rule="evenodd" clip-rule="evenodd" d="M38.849 6.81641L38.6208 9.41227C38.6173 9.45344 38.6174 9.49484 38.6211 9.536C38.6808 9.6122 38.757 9.67383 38.844 9.71621C38.9311 9.75859 39.0266 9.78061 39.1234 9.78061C39.2118 9.78062 39.2992 9.76227 39.3801 9.72672C39.461 9.69117 39.5337 9.63921 39.5934 9.57412C39.6532 9.50902 39.6988 9.43222 39.7273 9.34858C39.7559 9.26494 39.7667 9.17629 39.7592 9.08823L39.5796 6.98517C39.3131 7.08431 39.0926 7.04627 38.849 6.81641Z" fill="#ECE4E3"/>
<path d="M39.3324 9.50743C39.4054 9.50743 39.4645 9.44827 39.4645 9.3753C39.4645 9.30232 39.4054 9.24316 39.3324 9.24316C39.2594 9.24316 39.2003 9.30232 39.2003 9.3753C39.2003 9.44827 39.2594 9.50743 39.3324 9.50743Z" fill="#B8B1B1"/>
<path fill-rule="evenodd" clip-rule="evenodd" d="M39.7813 4.71191L40.3523 5.04157C40.3845 5.06012 40.4111 5.08682 40.4297 5.11896C40.4483 5.1511 40.458 5.18756 40.458 5.22468V6.06668C40.458 6.10379 40.4483 6.14025 40.4297 6.1724C40.4111 6.20454 40.3845 6.23123 40.3523 6.24979L39.5425 6.71732C39.4782 6.75443 39.4053 6.77397 39.3311 6.77397C39.2569 6.77397 39.184 6.75443 39.1197 6.71732L38.3099 6.24979C38.2777 6.23123 38.251 6.20453 38.2325 6.17239C38.2139 6.14025 38.2042 6.10379 38.2042 6.06668V5.22468C38.2042 5.14913 38.2445 5.07934 38.3099 5.04157L38.8809 4.71191V5.57028C38.8809 5.64582 38.9212 5.71562 38.9866 5.75337L39.2254 5.89125C39.2575 5.90981 39.294 5.91958 39.3311 5.91958C39.3682 5.91958 39.4047 5.90981 39.4368 5.89125L39.6756 5.75337C39.7077 5.73482 39.7344 5.70813 39.753 5.67599C39.7716 5.64385 39.7813 5.60739 39.7813 5.57028V4.71191Z" fill="#DDD4D4"/>
<path fill-rule="evenodd" clip-rule="evenodd" d="M38.2042 5.8334V5.22468C38.2042 5.14913 38.2445 5.07934 38.3099 5.04157L38.8809 4.71191V5.57028C38.8809 5.64582 38.9212 5.71562 38.9866 5.75337L39.2254 5.89125C39.2575 5.90981 39.294 5.91958 39.3311 5.91958C39.3682 5.91958 39.4047 5.90981 39.4368 5.89125L39.6756 5.75337C39.7077 5.73482 39.7344 5.70813 39.753 5.67599C39.7716 5.64385 39.7813 5.60739 39.7813 5.57028V4.78211L40.1075 4.9704C40.1396 4.98896 40.1663 5.01565 40.1848 5.04779C40.2034 5.07993 40.2132 5.1164 40.2132 5.15351V5.8503C40.2132 5.92585 40.1729 5.99564 40.1075 6.03341L39.5405 6.36076C39.4762 6.39788 39.4033 6.41742 39.329 6.41742C39.2548 6.41742 39.1819 6.39788 39.1176 6.36076L38.2042 5.8334Z" fill="#ECE4E3"/>
<path fill-rule="evenodd" clip-rule="evenodd" d="M38.2042 5.8334V5.22468C38.2042 5.14913 38.2445 5.07934 38.3099 5.04157L38.8809 4.71191V5.57028C38.8809 5.64582 38.9212 5.71562 38.9866 5.75337L39.2254 5.89125C39.2575 5.90981 39.294 5.91958 39.3311 5.91958C39.3682 5.91958 39.4047 5.90981 39.4368 5.89125L39.6756 5.75337C39.7077 5.73482 39.7344 5.70813 39.753 5.67599C39.7716 5.64385 39.7813 5.60739 39.7813 5.57028V4.78211L40.1075 4.9704C40.1396 4.98896 40.1663 5.01565 40.1848 5.04779C40.2034 5.07993 40.2132 5.1164 40.2132 5.15351V5.8503C40.2132 5.92585 40.1729 5.99564 40.1075 6.03341L39.5405 6.36076C39.4762 6.39788 39.4033 6.41742 39.329 6.41742C39.2548 6.41742 39.1819 6.39788 39.1176 6.36076L38.2042 5.8334Z" fill="#ECE4E3"/>
<path fill-rule="evenodd" clip-rule="evenodd" d="M41.4541 4.85475C41.4541 4.82671 41.443 4.79982 41.4231 4.77999C41.4033 4.76016 41.3764 4.74902 41.3484 4.74902H41.0794C41.0514 4.74905 41.0245 4.7602 41.0047 4.78002C40.9849 4.79984 40.9737 4.82672 40.9737 4.85475V6.27611C40.9737 6.30415 40.9848 6.33103 41.0047 6.35086C41.0245 6.37069 41.0514 6.38183 41.0794 6.38183H41.3484C41.3764 6.38183 41.4033 6.37069 41.4231 6.35087C41.443 6.33104 41.4541 6.30415 41.4541 6.27611V4.85475Z" fill="#F5BC00"/>
<path fill-rule="evenodd" clip-rule="evenodd" d="M41.4541 4.85475C41.4541 4.82671 41.443 4.79982 41.4231 4.77999C41.4033 4.76016 41.3764 4.74902 41.3484 4.74902H41.0794C41.0514 4.74905 41.0245 4.7602 41.0047 4.78002C40.9849 4.79984 40.9737 4.82672 40.9737 4.85475V5.91757C40.9737 5.94561 40.9848 5.9725 41.0047 5.99232C41.0245 6.01215 41.0514 6.02329 41.0794 6.0233H41.3484C41.3764 6.0233 41.4033 6.01216 41.4231 5.99233C41.443 5.9725 41.4541 5.94561 41.4541 5.91757V4.85475Z" fill="#DEAB05"/>
<path fill-rule="evenodd" clip-rule="evenodd" d="M42.8164 4.74902H41.8855C41.8614 4.74904 41.8379 4.75732 41.8191 4.7725C41.8004 4.78767 41.7873 4.80882 41.7822 4.83243C41.7485 4.99425 41.6142 5.11468 41.4542 5.11468V6.01618C41.6142 6.01618 41.7485 6.13661 41.7835 6.29814C41.7886 6.32145 41.8014 6.34233 41.82 6.3573C41.8385 6.37228 41.8617 6.38045 41.8855 6.38044C42.1408 6.38183 42.8483 6.38183 43.0736 6.38183C43.0942 6.38181 43.1144 6.37577 43.1316 6.36445C43.1488 6.35313 43.1623 6.33702 43.1705 6.31811C43.3118 6.0012 43.579 5.76275 43.9017 5.67853C43.9164 5.6751 43.9303 5.66847 43.9423 5.65912C43.9542 5.64976 43.964 5.63791 43.9709 5.62438C43.9778 5.61085 43.9816 5.59598 43.9822 5.5808C43.9827 5.56563 43.9799 5.55052 43.974 5.53654C43.7661 5.07038 43.3259 4.74902 42.8164 4.74902Z" fill="#DEAB05"/>
<path fill-rule="evenodd" clip-rule="evenodd" d="M41.6842 6.1138C42.1207 6.114 42.6998 6.114 42.8981 6.114C42.9188 6.11398 42.939 6.10791 42.9562 6.09653C42.9735 6.08515 42.987 6.06897 42.9951 6.04999C43.1587 5.68 43.4824 5.40918 43.8688 5.34247C43.6363 4.98351 43.2516 4.74902 42.8164 4.74902H41.8855C41.8614 4.74904 41.8379 4.75732 41.8191 4.7725C41.8004 4.78767 41.7873 4.80882 41.7822 4.83243C41.7485 4.99425 41.6142 5.11468 41.4542 5.11468V6.01618C41.5429 6.01618 41.6238 6.05323 41.6842 6.1138Z" fill="#F5BC00"/>
</g>
<path fill-rule="evenodd" clip-rule="evenodd" d="M45.8744 21.1996V20.4428L45.1217 19.6558C45.1217 19.6558 41.6377 20.1236 41.2579 20.2419C40.8781 20.3603 40.486 20.8942 40.9648 21.234C41.4437 21.5739 45.873 21.1996 45.873 21.1996H45.8744Z" fill="#F0F4F6"/>
<path fill-rule="evenodd" clip-rule="evenodd" d="M41.3951 21.1998C41.1804 21.1998 41.0167 21.036 41.0167 20.8214C41.0167 20.6067 41.1804 20.443 41.3951 20.443H42.3225L42.5633 19.9394L41.9001 19.8568H41.3951C40.8653 19.8568 40.4291 20.293 40.4291 20.8228C40.4291 21.3525 40.8653 21.7873 41.3951 21.7873L43.5939 22.1699L46.1051 21.7873C46.2675 21.7873 46.3982 21.6552 46.3982 21.4942C46.3982 21.3333 46.2675 21.2012 46.1051 21.2012H41.3951V21.1998ZM45.1075 20.0797C45.5547 20.3095 46.3638 20.6136 46.9431 20.6136C47.4495 20.6136 47.8595 20.2036 47.8595 19.6972C47.8595 19.1908 47.4495 18.7808 46.9431 18.7808C46.3391 18.7808 45.5547 19.0835 45.1075 19.3147L44.8874 19.6504L45.1075 20.0811V20.0797Z" fill="#FD91BA"/>
<path fill-rule="evenodd" clip-rule="evenodd" d="M44.6843 20.3986H44.7875C44.9636 20.3986 45.1067 20.2568 45.1067 20.0793V19.3129C45.1067 19.1368 44.965 18.9937 44.7875 18.9937H44.6843L42.3203 19.09H42.2171C42.041 19.09 41.8979 19.2317 41.8979 19.4092V19.9032C41.8979 20.0793 42.0396 20.2224 42.2171 20.2224H42.3203L44.6843 20.3972V20.3986Z" fill="#9DACB9"/>
<path fill-rule="evenodd" clip-rule="evenodd" d="M44.6862 18.4501V20.942L43.5841 21.2007L42.3236 20.942V18.4501L43.5442 18.1763L44.6862 18.4501Z" fill="#FCE87B"/>
<path fill-rule="evenodd" clip-rule="evenodd" d="M46.9455 20.1455C47.1931 20.1455 47.3954 19.9446 47.3954 19.6956C47.3954 19.4465 47.1945 19.2456 46.9455 19.2456C46.6964 19.2456 46.4955 19.4465 46.4955 19.6956C46.4955 19.9446 46.6964 20.1455 46.9455 20.1455Z" fill="#F0F4F6"/>
<path fill-rule="evenodd" clip-rule="evenodd" d="M41.9018 21.3642C41.9018 21.1303 42.0903 20.9418 42.3242 20.9418H44.6882C44.9221 20.9418 45.1106 21.1303 45.1106 21.3642C45.1106 21.5982 44.9221 21.7867 44.6882 21.7867H42.3242C42.0903 21.7867 41.9018 21.5982 41.9018 21.3642ZM41.9018 18.0274C41.9018 17.7935 42.0903 17.605 42.3242 17.605H44.6882C44.9221 17.605 45.1106 17.7935 45.1106 18.0274C45.1106 18.2613 44.9221 18.4498 44.6882 18.4498H42.3242C42.0903 18.4498 41.9018 18.2613 41.9018 18.0274Z" fill="#9DACB9"/>
<path fill-rule="evenodd" clip-rule="evenodd" d="M45.8744 23.1303V22.3735L45.5373 22.0653C45.5373 22.0653 41.6377 22.0529 41.2579 22.1726C40.8781 22.291 40.486 22.8249 40.9648 23.1647C41.4437 23.5046 45.873 23.1303 45.873 23.1303H45.8744Z" fill="#F0F4F6"/>
<path fill-rule="evenodd" clip-rule="evenodd" d="M41.3951 21.7856C40.8653 21.7856 40.4291 22.2218 40.4291 22.7516C40.4291 23.2814 40.8653 23.7162 41.3951 23.7162H46.1051C46.2675 23.7162 46.3982 23.5855 46.3982 23.4231C46.3982 23.2607 46.2675 23.13 46.1051 23.13H41.3951C41.1804 23.13 41.0167 22.9663 41.0167 22.7516C41.0167 22.5369 41.1804 22.3732 41.3951 22.3732H46.1051C46.2675 22.3732 46.3982 22.2411 46.3982 22.0801C46.3982 21.9191 46.2675 21.787 46.1051 21.787H41.3951V21.7856Z" fill="#62D9FA"/>
<defs>
<clipPath id="clip0_1434_28285">
<rect width="7.45161" height="7.45161" fill="white" transform="translate(21.452)"/>
</clipPath>
<clipPath id="clip1_1434_28285">
<rect width="6.77419" height="6.77419" fill="white" transform="translate(37.71 4.06445)"/>
</clipPath>
</defs>
</svg>
