<svg width="43" height="42" viewBox="0 0 43 42" fill="none" xmlns="http://www.w3.org/2000/svg">
<path d="M25.0545 31.5191L25.0225 31.4945L17.9859 31.4937L17.954 31.5183C12.4284 32.0982 8.37524 34.0005 8.37524 36.2579C8.37524 38.9765 14.2511 41.1798 21.5001 41.1798C28.7491 41.1798 34.6249 38.9765 34.6249 36.258C34.6249 34.0013 30.5759 32.0999 25.0545 31.5191Z" fill="#85E374"/>
<path d="M21.5986 0.820686C28.8476 0.875647 34.6791 6.79576 34.6249 14.044C34.579 20.1823 30.927 23.7974 25.0225 31.4943C23.9232 32.9266 22.7461 34.4999 21.5 36.2578C20.2573 34.4982 19.0826 32.9248 17.9858 31.4935C12.0059 23.694 8.32844 20.1356 8.3752 13.8471C8.43016 6.59806 14.3504 0.766546 21.5986 0.820686ZM26.4219 13.9824C26.4424 11.2639 24.2555 9.04424 21.537 9.02373C18.8186 9.00322 16.5988 11.1902 16.5783 13.9086C16.5578 16.627 18.7448 18.8468 21.4632 18.8673C24.1817 18.8879 26.4014 16.701 26.4219 13.9824Z" fill="#FD6244"/>
<path d="M21.5682 4.92239C22.021 4.92567 22.3909 4.56145 22.3942 4.10864C22.3975 3.65582 22.0333 3.28586 21.5805 3.28176C21.1268 3.27848 20.7569 3.64352 20.7536 4.09633C20.7503 4.54914 21.1145 4.9191 21.5682 4.92239ZM21.5431 8.20363C18.3758 8.18116 15.7819 10.7363 15.758 13.9027C15.7341 17.0688 18.2907 19.664 21.457 19.6878L21.501 19.688C24.6471 19.688 27.2184 17.1404 27.2422 13.9888C27.2661 10.8228 24.7096 8.22751 21.5431 8.20363ZM21.5008 18.0475L21.4693 18.0473C19.2076 18.0302 17.3815 16.1765 17.3985 13.915C17.4155 11.6636 19.252 9.84401 21.4993 9.84401L21.5308 9.84418C23.7925 9.86124 25.6187 11.715 25.6016 13.9765C25.5846 16.2279 23.7481 18.0475 21.5008 18.0475ZM25.0792 3.90397C24.6525 3.75254 24.1833 3.97607 24.0319 4.40313C23.8805 4.83018 24.1041 5.29899 24.5311 5.45042C28.1443 6.73101 30.5523 10.1723 30.5234 14.0136C30.5201 14.4666 30.8845 14.8366 31.3376 14.84H31.3439C31.7939 14.84 32.1606 14.4768 32.1641 14.0259C32.1982 9.4857 29.351 5.41802 25.0792 3.90397Z" fill="black"/>
<path d="M35.4452 14.0501C35.503 6.31928 29.229 0 21.4987 0C13.8587 0 7.61299 6.18745 7.55491 13.841C7.50799 20.152 10.9811 23.8093 16.4749 30.8789C11.0096 31.6956 7.55491 33.7477 7.55491 36.2578C7.55491 37.9392 9.10908 39.448 11.9312 40.5062C14.4998 41.4694 17.8982 41.9999 21.5001 41.9999C25.102 41.9999 28.5003 41.4694 31.0689 40.5062C33.891 39.4479 35.4452 37.9391 35.4452 36.2577C35.4452 33.749 31.9937 31.6974 26.5333 30.88C31.9895 23.8569 35.3992 20.1947 35.4452 14.0501ZM33.8046 36.2579C33.8046 38.1941 28.5425 40.3595 21.5 40.3595C14.4574 40.3595 9.19537 38.1941 9.19537 36.2579C9.19537 34.822 12.3411 33.0081 17.6303 32.38C18.7995 33.9141 19.8246 35.3078 20.8299 36.7312C20.9056 36.8384 21.0059 36.9258 21.1224 36.9862C21.2388 37.0465 21.3681 37.0781 21.4992 37.0782H21.5C21.631 37.0782 21.7602 37.0468 21.8766 36.9866C21.9931 36.9264 22.0934 36.8392 22.1692 36.7323C23.1651 35.3274 24.2182 33.8993 25.3773 32.3809C30.6617 33.0096 33.8046 34.8229 33.8046 36.2579ZM24.3718 30.9949C23.3421 32.3366 22.3964 33.6051 21.5013 34.846C20.6088 33.6043 19.682 32.3585 18.6368 30.9944C12.6251 23.1536 9.15099 19.8292 9.19546 13.8534C9.24664 7.0998 14.7571 1.64062 21.4989 1.64062C28.3205 1.64062 33.8556 7.21777 33.8047 14.0379C33.7609 19.8731 30.1449 23.4691 24.3718 30.9949Z" fill="black"/>
</svg>
