<svg width="24" height="24" viewBox="0 0 24 24" fill="none" xmlns="http://www.w3.org/2000/svg">
<path d="M16 22.25H8C6.26991 22.25 4.97362 21.754 4.1098 20.8902C3.24598 20.0264 2.75 18.7301 2.75 17V7C2.75 5.26991 3.24598 3.97362 4.1098 3.1098C4.97362 2.24598 6.26991 1.75 8 1.75H16C17.7301 1.75 19.0264 2.24598 19.8902 3.1098C20.754 3.97362 21.25 5.26991 21.25 7V17C21.25 18.7301 20.754 20.0264 19.8902 20.8902C19.0264 21.754 17.7301 22.25 16 22.25ZM8 2.25C6.49651 2.25 5.28256 2.61533 4.44895 3.44895C3.61533 4.28256 3.25 5.49651 3.25 7V17C3.25 18.5035 3.61533 19.7174 4.44895 20.5511C5.28256 21.3847 6.49651 21.75 8 21.75H16C17.5035 21.75 18.7174 21.3847 19.5511 20.5511C20.3847 19.7174 20.75 18.5035 20.75 17V7C20.75 5.49651 20.3847 4.28256 19.5511 3.44895C18.7174 2.61533 17.5035 2.25 16 2.25H8Z" fill="#7C8FAC" stroke="#7C8FAC"/>
<path d="M18.5 8.75H16.5C15.2561 8.75 14.25 7.74386 14.25 6.5V4.5C14.25 4.36614 14.3661 4.25 14.5 4.25C14.6339 4.25 14.75 4.36614 14.75 4.5V6.5C14.75 7.46614 15.5339 8.25 16.5 8.25H18.5C18.6339 8.25 18.75 8.36614 18.75 8.5C18.75 8.63386 18.6339 8.75 18.5 8.75Z" fill="#7C8FAC" stroke="#7C8FAC"/>
<path d="M12 13.75H8C7.59 13.75 7.25 13.41 7.25 13C7.25 12.59 7.59 12.25 8 12.25H12C12.41 12.25 12.75 12.59 12.75 13C12.75 13.41 12.41 13.75 12 13.75Z" fill="#7C8FAC"/>
<path d="M16 17.75H8C7.59 17.75 7.25 17.41 7.25 17C7.25 16.59 7.59 16.25 8 16.25H16C16.41 16.25 16.75 16.59 16.75 17C16.75 17.41 16.41 17.75 16 17.75Z" fill="#7C8FAC"/>
</svg>
