<svg width="39" height="42" viewBox="0 0 39 42" fill="none" xmlns="http://www.w3.org/2000/svg">
<path d="M28.5077 23.1544L23.1408 21.2285H19.275L13.805 23.1591C13.3671 23.3136 12.9878 23.5999 12.7192 23.9786C12.4506 24.3573 12.3058 24.8099 12.3047 25.2742V40.8585H29.9971V25.2657C29.996 24.8033 29.8524 24.3526 29.5859 23.9748C29.3194 23.597 28.9429 23.3105 28.5077 23.1544Z" fill="#00B569"/>
<path d="M21.1823 19.1211C20.5084 19.118 19.8482 18.9303 19.2734 18.5784V21.0106C19.2734 21.5233 19.4771 22.0149 19.8396 22.3774C20.2021 22.7399 20.6937 22.9435 21.2064 22.9435C21.719 22.9435 22.2106 22.7399 22.5731 22.3774C22.9356 22.0149 23.1393 21.5233 23.1393 21.0106V18.5605C22.5578 18.9238 21.8865 19.1174 21.2009 19.1196L21.1823 19.1211Z" fill="#FCD3C4"/>
<path d="M21.1823 19.1215C20.5084 19.1184 19.8482 18.9307 19.2734 18.5788V20.1442C19.8799 20.3895 20.5281 20.5156 21.1823 20.5156H21.1986C21.8636 20.5156 22.5221 20.3853 23.1369 20.1318V18.5625C22.5555 18.9257 21.8842 19.1193 21.1986 19.1215H21.1823Z" fill="#FFC7B5"/>
<path d="M15.7898 31.3086H12.3047V40.7204H15.7898V31.3086Z" fill="#FCD3C4"/>
<path d="M29.9969 31.3086H26.5117V40.7204H29.9969V31.3086Z" fill="#FCD3C4"/>
<path d="M16.0492 28.0127H15.791V32.5911L16.0492 28.0127Z" fill="#0C7C4D"/>
<path d="M26.2539 28.0127H26.5121V32.5911L26.2539 28.0127Z" fill="#0C7C4D"/>
<path d="M27.3417 13.2566C27.2115 12.1208 26.2237 12.2789 25.2289 12.4921C25.2072 12.4968 25.1359 12.5053 25.0902 12.5107V15.4811C25.0898 15.7417 25.0617 16.0016 25.0064 16.2564C25.3895 16.2688 25.772 16.2163 26.1376 16.1013C26.9339 15.7943 27.4844 14.4948 27.3417 13.2566ZM17.5136 12.5107C17.4678 12.5053 17.3973 12.4968 17.3756 12.4921C16.38 12.2789 15.393 12.1208 15.2628 13.2566C15.1201 14.4972 15.6706 15.7943 16.4661 16.1052C16.8324 16.2172 17.2144 16.2695 17.5973 16.2603C17.5424 16.0055 17.5144 15.7456 17.5136 15.4849V12.5107Z" fill="#FFC7B5"/>
<path d="M24.7385 6.51519C24.5328 6.7628 22.4643 9.80011 24.0705 7.58173C21.949 9.16632 22.8871 7.93449 24.0705 6.51519C22.9075 6.28259 23.5802 7.58165 21.2929 7.58165C19.5957 7.58165 17.9109 5.60858 17.3744 8.21293C16.7386 11.3042 17.3744 12.4919 17.3744 12.4919V15.4816C17.3805 16.5148 17.7968 17.5032 18.5317 18.2295C19.2665 18.9558 20.2598 19.3604 21.2929 19.3544H21.3092C22.3424 19.3604 23.3356 18.9558 24.0705 18.2295C24.8053 17.5032 25.2216 16.5148 25.2278 15.4816V12.4927C25.9253 11.9717 26.5112 11.316 26.9506 10.5644C27.3234 9.83783 24.7588 9.02939 24.7385 8.21293C24.7894 6.98638 25.4682 7.50237 24.7385 6.51519Z" fill="#FCD3C4"/>
<path d="M11.4395 40.8037H21.1509H29.9968" stroke="black" stroke-width="0.2"/>
<g clip-path="url(#clip0_1434_36804)">
<path d="M6.03193 30.0996H8.62841C8.98802 30.0996 9.27752 30.3895 9.27752 30.7487V31.3978H5.38281V30.7487C5.38281 30.3895 5.67232 30.0996 6.03193 30.0996Z" stroke="#F9AA36" stroke-linecap="round" stroke-linejoin="round"/>
<path d="M0.623049 31.1816H14.0382V39.1874C14.0382 39.7868 13.5557 40.2693 12.9563 40.2693H1.70491C1.56276 40.2696 1.42195 40.2418 1.29056 40.1875C1.15918 40.1333 1.0398 40.0536 0.939284 39.9531C0.838767 39.8525 0.759088 39.7332 0.70482 39.6018C0.650552 39.4704 0.622764 39.3296 0.623049 39.1874V32.2635V31.1816Z" fill="#3DD9EB"/>
<path d="M4.52944 35.6532H1.27217C0.912554 35.6532 0.623047 35.3637 0.623047 35.0041V31.1816H14.0382V35.0041C14.0382 35.3637 13.7487 35.6532 13.389 35.6532H9.80894" fill="#0BBBCF"/>
<path d="M0.623047 35.0049V35.4368C0.623047 35.7964 0.912554 36.0859 1.27217 36.0859H13.389C13.7487 36.0859 14.0382 35.7964 14.0382 35.4368V35.0049C14.0382 35.3645 13.7487 35.654 13.389 35.654H1.27217C0.912554 35.654 0.623047 35.3645 0.623047 35.0049Z" fill="#058F9F"/>
</g>
<path d="M33.0786 40.3777C36.0063 40.3777 38.3797 38.0043 38.3797 35.0765C38.3797 32.1488 36.0063 29.7754 33.0786 29.7754C30.1509 29.7754 27.7775 32.1488 27.7775 35.0765C27.7775 38.0043 30.1509 40.3777 33.0786 40.3777Z" fill="#FFEB3B"/>
<path d="M33.0764 39.2424C35.3773 39.2424 37.2425 37.3771 37.2425 35.0763C37.2425 32.7754 35.3773 30.9102 33.0764 30.9102C30.7755 30.9102 28.9103 32.7754 28.9103 35.0763C28.9103 37.3771 30.7755 39.2424 33.0764 39.2424Z" fill="#FBC02D"/>
<path d="M36.116 38.1114V36.975C36.1179 36.9057 36.1243 36.8868 36.1372 36.8497C36.1841 36.7164 36.3102 36.6146 36.4526 36.5986C36.4935 36.5937 36.5029 36.5964 36.5162 36.5968C36.5851 36.6024 36.6037 36.61 36.6396 36.6252C36.7638 36.6763 36.8562 36.7978 36.8714 36.9326C36.8733 36.9512 36.8733 36.9561 36.8736 36.975V38.1114H38.01C38.0172 38.1117 38.0244 38.1117 38.0316 38.1121C38.1183 38.1193 38.1459 38.1326 38.1932 38.1587C38.4117 38.2795 38.4515 38.6415 38.2292 38.7994C38.1656 38.8444 38.088 38.8668 38.01 38.869H36.8736V40.0058C36.8657 40.2958 36.4825 40.5026 36.2424 40.2882C36.1735 40.2265 36.1288 40.1394 36.1182 40.0482C36.1163 40.0292 36.1167 40.0243 36.116 40.0058V38.869H34.9796C34.8925 38.8668 34.8641 38.855 34.8153 38.8316C34.5828 38.7195 34.5336 38.342 34.7604 38.1814C34.824 38.1364 34.9016 38.1136 34.9796 38.1114H36.116Z" fill="#5D87FF"/>
<path fill-rule="evenodd" clip-rule="evenodd" d="M33.094 30.9121C34.6734 30.9197 36.2073 31.8921 36.8737 33.3533C37.2387 34.153 37.3376 35.0701 37.1607 35.9289C37.1607 35.9289 37.1161 36.0868 37.0218 36.1614C36.859 36.2894 36.5882 36.2511 36.4705 36.0709C36.3546 35.894 36.4519 35.6441 36.4746 35.4048C36.6212 33.8607 35.6056 32.273 34.0539 31.811C32.8759 31.4604 31.5154 31.8035 30.6415 32.6982C29.6339 33.73 29.3734 35.4268 30.0974 36.7309C30.6013 37.6381 31.5362 38.2928 32.5612 38.4496C32.9626 38.5109 33.3742 38.4999 33.7737 38.4181L33.8063 38.4132C33.8354 38.4109 33.843 38.4094 33.8721 38.4113C34.0812 38.4238 34.2553 38.6366 34.2243 38.8449C34.1985 39.0183 34.0444 39.1383 33.8619 39.1732C32.2708 39.4757 30.5188 38.7657 29.5979 37.3674C28.9466 36.3783 28.7463 35.1114 29.0648 33.9641C29.54 32.2514 31.2174 30.9382 33.027 30.9125C33.0493 30.9125 33.0717 30.9121 33.094 30.9121Z" fill="#F57F17"/>
<path fill-rule="evenodd" clip-rule="evenodd" d="M32.7003 33.1447V32.8062C32.703 32.7267 32.7102 32.7134 32.7223 32.6793C32.7681 32.5494 32.8897 32.4499 33.0275 32.4309C33.0771 32.4241 33.0888 32.4275 33.1051 32.4283C33.2808 32.4461 33.4308 32.5824 33.4546 32.7543C33.4576 32.7774 33.4573 32.7831 33.458 32.8062V33.1439C33.9533 33.2371 34.41 33.5165 34.5561 34.0163C34.5807 34.1 34.5932 34.1871 34.5944 34.2746C34.5944 34.2746 34.5887 34.395 34.5429 34.4738C34.4277 34.6718 34.1138 34.7195 33.9457 34.5491C33.7768 34.3776 33.9188 34.1068 33.4944 33.9406C33.4826 33.9361 33.4701 33.9315 33.458 33.9274V34.7369C33.9325 34.8286 34.3694 35.094 34.5353 35.5453C34.6417 35.8343 34.5936 36.172 34.4202 36.428C34.207 36.7426 33.8511 36.9422 33.458 37.0191V37.3519C33.4546 37.4477 33.4417 37.4761 33.4156 37.5265C33.2986 37.7518 32.929 37.7964 32.7696 37.5704C32.7348 37.5212 32.7121 37.4636 32.7037 37.4038C32.7007 37.3807 32.7011 37.375 32.7003 37.3519V37.0164C32.4913 36.9744 32.2899 36.8971 32.1119 36.7835C31.8177 36.5965 31.5848 36.2883 31.5651 35.9263C31.5515 35.6745 31.7889 35.4416 32.0407 35.509C32.2032 35.5525 32.3115 35.7131 32.3217 35.8869C32.3342 36.0679 32.5246 36.1629 32.6636 36.2175C32.6757 36.222 32.6878 36.2265 32.7003 36.2307V35.4219C32.2088 35.3272 31.7469 35.0444 31.6022 34.5499C31.5072 34.225 31.6072 33.8584 31.837 33.6044C32.0627 33.3548 32.3755 33.2079 32.7003 33.1447ZM33.458 35.5192V36.2353C33.5568 36.2 33.6466 36.1497 33.7212 36.0834C33.7867 36.0251 33.8442 35.9467 33.8359 35.8581C33.8185 35.6646 33.6106 35.5715 33.458 35.5192ZM32.7003 33.9232C32.6011 33.9584 32.511 34.0088 32.4372 34.0747C32.3724 34.1326 32.3149 34.2098 32.3221 34.2984C32.338 34.4912 32.5451 34.5862 32.7003 34.6392V33.9232Z" fill="#FFF176"/>
<g clip-path="url(#clip1_1434_36804)">
<path d="M21.8168 12.0213C24.7106 11.8685 27.0309 11.0507 26.9994 10.1947C26.9679 9.33873 24.5964 8.76871 21.7026 8.92153C18.8088 9.07435 16.4884 9.89215 16.52 10.7481C16.5515 11.6041 18.9229 12.1741 21.8168 12.0213Z" fill="#6D6D6D"/>
<path d="M21.6215 6.67657C24.5153 6.52375 26.8356 5.70595 26.8041 4.84998C26.7726 3.994 24.4011 3.42398 21.5073 3.5768C18.6135 3.72963 16.2931 4.54742 16.3247 5.4034C16.3562 6.25937 18.7276 6.82939 21.6215 6.67657Z" fill="#6D6D6D"/>
<path d="M26.8042 4.84987L16.3242 5.40332L16.521 10.7481L27.001 10.1947L26.8042 4.84987Z" fill="#6D6D6D"/>
<path d="M29.4416 6.58783L24.2852 7.51263L23.1883 7.71179L20.1169 8.25719C19.2857 8.40933 18.4329 8.28108 17.6819 7.89096L13.1295 5.47344C12.7733 5.28485 12.8696 4.79107 13.2761 4.70801L22.1926 2.90206C23.0445 2.72625 23.9245 2.8462 24.6989 3.24367L29.6 5.81608C29.9629 6.00659 29.8595 6.51007 29.4416 6.58783Z" fill="#939393"/>
<path d="M21.402 5.36872C21.402 5.36872 22.761 7.04001 23.1911 7.70654L23.8252 8.52581L24.6649 8.28796C24.6649 8.28796 24.4752 6.69026 24.4157 6.68299C24.3563 6.67572 22.1634 5.19963 22.1634 5.19963L21.402 5.36872Z" fill="#6D6D6D"/>
<path d="M22.51 15.9023C22.51 15.9023 23.8008 17.1758 25.3605 16.251L24.6 14.1023L23.6727 13.9889L22.51 15.9023Z" fill="#FF9F1C"/>
<path d="M24.0803 14.4878C23.9559 14.4726 23.8429 14.4061 23.7662 14.3029C23.6895 14.1998 23.6554 14.0684 23.6714 13.9378L24.3368 8.40789C24.3662 8.16822 24.3326 7.92545 24.2396 7.70587C24.1466 7.4863 23.9978 7.2983 23.8093 7.16221L21.5291 5.50878C21.4265 5.43434 21.3568 5.31987 21.3353 5.19055C21.3138 5.06122 21.3423 4.92764 21.4145 4.81919C21.4867 4.71073 21.5967 4.63629 21.7203 4.61223C21.8439 4.58818 21.971 4.61648 22.0736 4.69092L24.3534 6.34374C24.6828 6.58198 24.9429 6.9109 25.1054 7.29495C25.2678 7.67899 25.3265 8.10354 25.2751 8.52268L24.6098 14.0526C24.5938 14.1832 24.529 14.3025 24.4297 14.3841C24.3304 14.4657 24.2048 14.503 24.0803 14.4878Z" fill="#FF9F1C"/>
<path d="M25.4403 13.7456C25.4374 13.7691 25.4345 13.7927 25.4291 13.8153C25.3633 14.1317 25.185 14.4112 24.9307 14.5967C24.6764 14.7822 24.3652 14.8597 24.0609 14.8134C23.7565 14.7671 23.4818 14.6004 23.293 14.3475C23.1042 14.0946 23.0155 13.7745 23.045 13.4526C23.0487 13.4225 23.0523 13.3929 23.059 13.3637C23.1271 13.0477 23.3073 12.7695 23.563 12.5859C23.8187 12.4024 24.1304 12.3273 24.4345 12.376C24.7386 12.4248 25.012 12.5937 25.199 12.8483C25.3859 13.1028 25.4723 13.4238 25.4403 13.7456Z" fill="#FF9F1C"/>
<path d="M25.4299 13.8153C25.364 14.1317 25.1857 14.4111 24.9314 14.5967C24.6771 14.7822 24.366 14.8597 24.0616 14.8134C23.7572 14.767 23.4826 14.6004 23.2938 14.3475C23.105 14.0945 23.0162 13.7744 23.0457 13.4525C23.0494 13.4224 23.053 13.3928 23.0598 13.3637C23.3653 13.6767 23.7535 13.8866 24.1753 13.967C24.5971 14.0474 25.0337 13.9946 25.4299 13.8153Z" fill="#ED8C18"/>
</g>
<defs>
<clipPath id="clip0_1434_36804">
<rect width="13.8479" height="13.8479" fill="white" transform="translate(0.189453 28.1523)"/>
</clipPath>
<clipPath id="clip1_1434_36804">
<rect width="18.9136" height="15.6527" fill="white" transform="translate(12.4746 0.456055) rotate(6.97461)"/>
</clipPath>
</defs>
</svg>
