<svg width="41" height="40" viewBox="0 0 41 40" fill="none" xmlns="http://www.w3.org/2000/svg">
<path d="M36.25 26.1781V16.9246C36.25 15.2551 35.8254 13.613 35.016 12.1527C34.2067 10.6924 33.0392 9.46201 31.6234 8.57715L31 8.1875V5.5625L31.6512 4.58567C32.0824 3.93889 32.3125 3.17894 32.3125 2.40159V2.28125C32.3125 1.93315 32.1742 1.59931 31.9281 1.35317C31.6819 1.10703 31.3481 0.96875 31 0.96875H25.75C25.4019 0.96875 25.0681 1.10703 24.8219 1.35317C24.5758 1.59931 24.4375 1.93315 24.4375 2.28125V2.40159C24.4375 3.17894 24.6676 3.93889 25.0988 4.58567L25.75 5.5625V8.1875L25.1266 8.57715C23.7108 9.46201 22.5433 10.6924 21.734 12.1527C20.9246 13.613 20.5 15.2551 20.5 16.9246V26.1781C20.5 26.4242 20.4022 26.6603 20.2281 26.8344L19.4594 27.6031C19.2853 27.7772 19.1875 28.0133 19.1875 28.2594V29.8438C19.1875 30.1918 19.3258 30.5257 19.5719 30.7718C19.8181 31.018 20.1519 31.1562 20.5 31.1562H36.25C36.5981 31.1562 36.9319 31.018 37.1781 30.7718C37.4242 30.5257 37.5625 30.1918 37.5625 29.8438V28.2594C37.5625 28.0133 37.4647 27.7772 37.2906 27.6031L36.5219 26.8344C36.3478 26.6603 36.25 26.4242 36.25 26.1781Z" fill="#31C292"/>
<path d="M25.75 5.5625H31V8.1875H25.75V5.5625ZM31.3844 12.5094L29.0312 10.1562L27.0625 12.125L29.4156 14.4781C29.5375 14.6 29.6822 14.6967 29.8415 14.7627C30.0007 14.8286 30.1714 14.8626 30.3438 14.8626C30.5161 14.8626 30.6868 14.8286 30.846 14.7627C31.0053 14.6967 31.15 14.6 31.2719 14.4781L31.3844 14.3656C31.5063 14.2437 31.603 14.099 31.6689 13.9398C31.7349 13.7805 31.7688 13.6099 31.7688 13.4375C31.7688 13.2651 31.7349 13.0945 31.6689 12.9352C31.603 12.776 31.5063 12.6313 31.3844 12.5094Z" fill="#00B378"/>
<path d="M21.8125 29.1875H15.25C14.5251 29.1875 13.9375 29.7751 13.9375 30.5V31.1562C13.9375 31.8811 14.5251 32.4688 15.25 32.4688H21.8125C22.5374 32.4688 23.125 31.8811 23.125 31.1562V30.5C23.125 29.7751 22.5374 29.1875 21.8125 29.1875Z" fill="#FFD168"/>
<path d="M21.8125 22.625H15.25C14.5251 22.625 13.9375 23.2126 13.9375 23.9375V24.5938C13.9375 25.3186 14.5251 25.9062 15.25 25.9062H21.8125C22.5374 25.9062 23.125 25.3186 23.125 24.5938V23.9375C23.125 23.2126 22.5374 22.625 21.8125 22.625Z" fill="#FFD168"/>
<path d="M21.8125 19.3438H15.25C14.5251 19.3438 13.9375 19.9314 13.9375 20.6562V21.3125C13.9375 22.0374 14.5251 22.625 15.25 22.625H21.8125C22.5374 22.625 23.125 22.0374 23.125 21.3125V20.6562C23.125 19.9314 22.5374 19.3438 21.8125 19.3438Z" fill="#FFE19E"/>
<path d="M21.8125 25.9062H15.25C14.5251 25.9062 13.9375 26.4939 13.9375 27.2188V27.875C13.9375 28.5999 14.5251 29.1875 15.25 29.1875H21.8125C22.5374 29.1875 23.125 28.5999 23.125 27.875V27.2188C23.125 26.4939 22.5374 25.9062 21.8125 25.9062Z" fill="#FFC542"/>
<path d="M27.0625 32.4688H20.5C19.7751 32.4688 19.1875 33.0564 19.1875 33.7812V34.4375C19.1875 35.1624 19.7751 35.75 20.5 35.75H27.0625C27.7874 35.75 28.375 35.1624 28.375 34.4375V33.7812C28.375 33.0564 27.7874 32.4688 27.0625 32.4688Z" fill="#FFD168"/>
<path d="M27.0625 22.625H20.5C19.7751 22.625 19.1875 23.2126 19.1875 23.9375V24.5938C19.1875 25.3186 19.7751 25.9062 20.5 25.9062H27.0625C27.7874 25.9062 28.375 25.3186 28.375 24.5938V23.9375C28.375 23.2126 27.7874 22.625 27.0625 22.625Z" fill="#FFE19E"/>
<path d="M27.0625 19.3438H20.5C19.7751 19.3438 19.1875 19.9314 19.1875 20.6562V21.3125C19.1875 22.0374 19.7751 22.625 20.5 22.625H27.0625C27.7874 22.625 28.375 22.0374 28.375 21.3125V20.6562C28.375 19.9314 27.7874 19.3438 27.0625 19.3438Z" fill="#FFD168"/>
<path d="M27.0625 29.1875H20.5C19.7751 29.1875 19.1875 29.7751 19.1875 30.5V31.1562C19.1875 31.8811 19.7751 32.4688 20.5 32.4688H27.0625C27.7874 32.4688 28.375 31.8811 28.375 31.1562V30.5C28.375 29.7751 27.7874 29.1875 27.0625 29.1875Z" fill="#FFC542"/>
<path d="M27.0625 25.9062H20.5C19.7751 25.9062 19.1875 26.4939 19.1875 27.2188V27.875C19.1875 28.5999 19.7751 29.1875 20.5 29.1875H27.0625C27.7874 29.1875 28.375 28.5999 28.375 27.875V27.2188C28.375 26.4939 27.7874 25.9062 27.0625 25.9062Z" fill="#FFD168"/>
<path d="M36.9397 27.0556L24.115 32.6985C23.4808 32.9775 22.7621 32.9945 22.1155 32.7458L14.5938 29.8528H20.8281C21.2632 29.8528 21.6805 29.6799 21.9882 29.3723C22.2959 29.0646 22.4688 28.6473 22.4688 28.2122C22.4688 27.777 22.2959 27.3597 21.9882 27.0521C21.6805 26.7444 21.2632 26.5715 20.8281 26.5715H12.9434C11.8992 26.5716 10.8977 26.9865 10.1593 27.7249L9.84078 28.0433C9.10234 28.7817 8.10083 29.1965 7.05655 29.1965L0.8125 29.1875V36.4063L9.16492 36.4153C9.28361 36.4153 9.40174 36.4314 9.5161 36.4632L17.5278 38.6887C19.8566 39.3356 22.3452 39.0596 24.4758 37.9183L38.5562 30.3752C38.9772 30.1496 39.2944 29.7697 39.4413 29.3153C39.5883 28.8609 39.5536 28.3673 39.3445 27.9379C39.1354 27.5085 38.7682 27.1768 38.3199 27.0123C37.8715 26.8478 37.3769 26.8633 36.9397 27.0556Z" fill="#FFE19E"/>
<path d="M14.5938 29.1965H13.2812C12.9188 29.1965 12.625 29.4903 12.625 29.8528C12.625 30.2152 12.9188 30.509 13.2812 30.509H14.5938C14.9562 30.509 15.25 30.2152 15.25 29.8528C15.25 29.4903 14.9562 29.1965 14.5938 29.1965Z" fill="#FFD168"/>
<path d="M11.6387 17.874C11.1037 17.9779 10.5601 18.0306 10.0151 18.0312C5.34858 18.0394 1.50878 14.2406 1.46907 9.57423C1.45922 8.44144 1.67506 7.31803 2.10402 6.26955C2.53298 5.22108 3.16646 4.26853 3.9675 3.4675C4.76853 2.66646 5.72108 2.03298 6.76955 1.60402C7.81803 1.17506 8.94144 0.959216 10.0742 0.969073C14.7227 1.00861 18.5144 4.82003 18.5312 9.46858C18.5401 11.1686 18.0386 12.8323 17.0915 14.2441C16.9804 14.4115 16.9094 14.6022 16.8842 14.8016C16.859 15.0009 16.8803 15.2033 16.9463 15.393L17.6655 17.4835C17.7452 17.7152 17.7585 17.9645 17.7038 18.2033C17.6492 18.4421 17.5288 18.6609 17.3563 18.8348C17.1838 19.0088 16.9661 19.1309 16.7277 19.1876C16.4894 19.2442 16.2399 19.2329 16.0076 19.1552L12.3083 17.9166C12.0925 17.8448 11.8619 17.8301 11.6387 17.874Z" fill="#FFD168"/>
<path d="M13.2812 6.21875H6.71875C5.99388 6.21875 5.40625 6.80638 5.40625 7.53125V11.4688C5.40625 12.1936 5.99388 12.7812 6.71875 12.7812H13.2812C14.0061 12.7812 14.5938 12.1936 14.5938 11.4688V7.53125C14.5938 6.80638 14.0061 6.21875 13.2812 6.21875Z" fill="#5B7BC3"/>
<path d="M11.9688 6.21875H10.6562V4.90625C10.6562 4.7322 10.5871 4.56528 10.464 4.44221C10.341 4.31914 10.174 4.25 10 4.25C9.82595 4.25 9.65903 4.31914 9.53596 4.44221C9.41289 4.56528 9.34375 4.7322 9.34375 4.90625V6.21875H8.03125V4.90625C8.03125 4.38411 8.23867 3.88335 8.60788 3.51413C8.9771 3.14492 9.47786 2.9375 10 2.9375C10.5221 2.9375 11.0229 3.14492 11.3921 3.51413C11.7613 3.88335 11.9688 4.38411 11.9688 4.90625V6.21875Z" fill="#486CBC"/>
<path d="M8.62269 22.5568C6.12231 22.3082 3.73807 21.3783 1.72961 19.8684L2.51793 18.8191C4.33448 20.1847 6.49086 21.0258 8.7523 21.2507L8.62269 22.5568ZM10 22.6248V21.3123C10.6263 21.3124 11.2518 21.2658 11.8712 21.1731L12.0663 22.471C11.3823 22.5734 10.6916 22.6249 10 22.6248Z" fill="#FFE7B1"/>
<path d="M13.2812 6.21875H6.71875C6.37065 6.21875 6.03681 6.35703 5.79067 6.60317C5.54453 6.84931 5.40625 7.18315 5.40625 7.53125V8.1875L5.86382 8.38355C7.17083 8.94371 8.57801 9.23254 10 9.23254C11.422 9.23254 12.8292 8.94371 14.1362 8.38355L14.5938 8.1875V7.53125C14.5938 7.18315 14.4555 6.84931 14.2093 6.60317C13.9632 6.35703 13.6293 6.21875 13.2812 6.21875Z" fill="#486CBC"/>
<path d="M4.94206 13.6296L14.1299 4.44245L15.0579 5.37056L5.87011 14.5577L4.94206 13.6296Z" fill="#94A9D8"/>
<path d="M27.0625 8.1875V8.25345C27.0625 8.85671 26.9437 9.45407 26.7128 10.0114C26.482 10.5687 26.1436 11.0752 25.717 11.5017L24.7094 12.5094C24.5875 12.6313 24.4908 12.776 24.4248 12.9352C24.3589 13.0945 24.3249 13.2651 24.3249 13.4375C24.3249 13.6099 24.3589 13.7805 24.4248 13.9398C24.4908 14.099 24.5875 14.2437 24.7094 14.3656L24.8219 14.4781C24.9438 14.6 25.0885 14.6967 25.2477 14.7627C25.407 14.8286 25.5776 14.8626 25.75 14.8626C25.9224 14.8626 26.093 14.8286 26.2523 14.7627C26.4115 14.6967 26.5562 14.6 26.6781 14.4781L28.342 12.8142C28.7686 12.3877 29.107 11.8812 29.3378 11.3239C29.5687 10.7666 29.6875 10.1692 29.6875 9.56595V8.1875H27.0625Z" fill="#00B378"/>
<path d="M39.052 26.6498C38.7476 26.4503 38.4032 26.3199 38.0431 26.2677C37.6829 26.2155 37.3156 26.2427 36.9671 26.3475C36.9279 26.2997 36.9064 26.2398 36.9062 26.178V16.9247C36.9062 15.1438 36.4533 13.3922 35.59 11.8346C34.7267 10.277 33.4814 8.96452 31.9712 8.02067L31.6562 7.82379V5.7612L32.1972 4.94975C32.7011 4.19552 32.9696 3.30865 32.9687 2.40161V2.28127C32.9682 1.7593 32.7605 1.25889 32.3915 0.8898C32.0224 0.520715 31.522 0.313105 31 0.312519H25.75C25.228 0.313105 24.7276 0.520715 24.3585 0.8898C23.9894 1.25889 23.7818 1.7593 23.7812 2.28127V2.40161C23.7804 3.30865 24.0489 4.19552 24.5527 4.94975L25.0937 5.7612V7.82379L24.7787 8.02067C23.2686 8.96453 22.0233 10.277 21.16 11.8346C20.2967 13.3922 19.8437 15.1438 19.8437 16.9247V18.8004C19.5327 18.911 19.2543 19.0978 19.0341 19.3438H17.7734C17.7898 19.3283 17.8063 19.313 17.8222 19.2969C18.0822 19.0368 18.2636 18.7087 18.3457 18.3502C18.4277 17.9917 18.407 17.6174 18.2861 17.2701L17.5668 15.1795C17.534 15.0855 17.5232 14.9852 17.5353 14.8863C17.5474 14.7875 17.5821 14.6928 17.6367 14.6095C18.657 13.089 19.1972 11.2972 19.1874 9.46614C19.1694 4.46166 15.0837 0.355421 10.0798 0.312847C8.8599 0.302246 7.65008 0.534708 6.52097 0.996668C5.39185 1.45863 4.36604 2.14084 3.5034 3.00349C2.64076 3.86613 1.95857 4.89195 1.49661 6.02107C1.03466 7.15018 0.802213 8.36 0.812825 9.57992C0.855563 14.6053 4.97534 18.6875 10.0002 18.6875H10.0162C10.6029 18.6866 11.1881 18.6299 11.7641 18.5182C11.876 18.4961 11.9917 18.5033 12.1 18.5389L14.7211 19.4165C14.3073 19.5325 13.9427 19.7804 13.6828 20.1227C13.4228 20.465 13.2818 20.8828 13.2812 21.3125V21.9688C13.2809 22.4534 13.46 22.9209 13.7841 23.2813C13.46 23.6416 13.2809 24.1092 13.2812 24.5938V25.25C13.2811 25.4768 13.3204 25.7019 13.3972 25.9153H12.9434C12.3399 25.9137 11.7421 26.0317 11.1845 26.2627C10.6269 26.4937 10.1207 26.8329 9.69509 27.2609L9.3768 27.5793C9.0728 27.8849 8.7112 28.1272 8.31293 28.2922C7.91466 28.4571 7.48763 28.5415 7.05655 28.5403H0.812497V29.8528H7.05655C7.66006 29.8544 8.25791 29.7363 8.81548 29.5054C9.37306 29.2744 9.8793 28.9352 10.3049 28.5073L10.6232 28.1889C10.9272 27.8832 11.2888 27.6409 11.687 27.4759C12.0853 27.3109 12.5124 27.2266 12.9434 27.2278H20.8281C21.0892 27.2278 21.3396 27.3315 21.5242 27.5161C21.7088 27.7007 21.8125 27.9511 21.8125 28.2122C21.8125 28.4732 21.7088 28.7236 21.5242 28.9082C21.3396 29.0928 21.0892 29.1965 20.8281 29.1965H12.625V30.509H14.4718L21.8799 33.3583C22.2799 33.5134 22.7066 33.588 23.1355 33.5778C23.5644 33.5676 23.9871 33.4729 24.3793 33.2991L37.2039 27.6562C37.3853 27.5765 37.5836 27.5431 37.7811 27.5593C37.9785 27.5755 38.1688 27.6407 38.3347 27.749C38.5007 27.8572 38.6369 28.0052 38.7313 28.1794C38.8256 28.3536 38.875 28.5486 38.875 28.7467C38.8752 28.9623 38.8168 29.1738 38.706 29.3588C38.5953 29.5437 38.4363 29.6951 38.2462 29.7967L24.166 37.3398C22.1855 38.4052 19.8693 38.662 17.7035 38.0563L9.69197 35.8309C9.52034 35.7832 9.34304 35.759 9.16492 35.759H0.812497V37.0715H9.16484C9.22419 37.0715 9.28328 37.0796 9.34046 37.0955L17.352 39.321C19.8433 40.0173 22.5075 39.7219 24.7857 38.4967L38.8661 30.9537C39.2492 30.7484 39.5723 30.4469 39.8036 30.0789C40.0349 29.7109 40.1664 29.289 40.1852 28.8547C40.2039 28.4204 40.1093 27.9888 39.9106 27.6022C39.712 27.2156 39.416 26.8873 39.052 26.6498ZM25.0937 2.28127C25.094 2.10729 25.1632 1.94049 25.2862 1.81747C25.4092 1.69445 25.576 1.62524 25.75 1.62502H31C31.174 1.62524 31.3408 1.69445 31.4638 1.81747C31.5868 1.94049 31.656 2.10729 31.6562 2.28127V2.40161C31.6568 3.0495 31.465 3.68297 31.1052 4.22172L30.6489 4.90627H26.1011L25.6447 4.22172C25.2849 3.68296 25.0931 3.04949 25.0937 2.40161V2.28127ZM30.3437 7.53127H26.4062V6.21877H30.3437V7.53127ZM29.8142 11.8673L30.9204 12.9735C31.0433 13.0967 31.1123 13.2636 31.1123 13.4375C31.1123 13.6115 31.0433 13.7783 30.9204 13.9015L30.8078 14.0141C30.6846 14.137 30.5177 14.206 30.3437 14.206C30.1698 14.206 30.0029 14.137 29.8797 14.0141L28.9709 13.1053C29.3098 12.7351 29.5938 12.3182 29.8142 11.8673ZM29.0312 9.56597C29.0327 10.0833 28.9315 10.5957 28.7335 11.0736C28.5355 11.5515 28.2448 11.9854 27.878 12.3502L26.214 14.0141C26.0909 14.137 25.924 14.206 25.75 14.206C25.576 14.206 25.4091 14.137 25.2859 14.0141L25.1733 13.9015C25.0504 13.7783 24.9814 13.6115 24.9814 13.4375C24.9814 13.2636 25.0504 13.0967 25.1733 12.9735L26.1811 11.9659C27.0239 11.1273 27.5546 10.0256 27.6849 8.84377H29.0312V9.56597ZM25.4744 9.13367L25.9382 8.84377H26.3624C26.2383 9.6754 25.8492 10.4448 25.253 11.0377L24.2453 12.0454C23.8766 12.4149 23.6696 12.9155 23.6696 13.4375C23.6696 13.9595 23.8766 14.4602 24.2453 14.8297L24.3579 14.9423C24.7271 15.3115 25.2279 15.5189 25.75 15.5189C26.2721 15.5189 26.7729 15.3115 27.1421 14.9423L28.0469 14.0375L28.9517 14.9423C29.3212 15.3109 29.8218 15.5179 30.3437 15.5179C30.8657 15.5179 31.3663 15.3109 31.7358 14.9423L31.8484 14.8297C32.2171 14.4602 32.4242 13.9595 32.4242 13.4375C32.4242 12.9155 32.2171 12.4149 31.8484 12.0454L30.2662 10.4631C30.3174 10.1668 30.3434 9.86669 30.3437 9.56597V8.84377H30.8118L31.2756 9.13367C32.6005 9.95583 33.6928 11.1034 34.4487 12.4672C35.2045 13.8309 35.5987 15.3655 35.5937 16.9247V26.178C35.5938 26.4149 35.6473 26.6487 35.7501 26.862L28.9255 29.8649C28.8399 29.6147 28.7049 29.3844 28.5284 29.1875C28.8525 28.8272 29.0316 28.3596 29.0312 27.875V27.2188C29.0316 26.7342 28.8525 26.2666 28.5284 25.9063C28.8525 25.5459 29.0316 25.0784 29.0312 24.5938V23.9375C29.0316 23.4529 28.8525 22.9853 28.5284 22.625C28.8525 22.2647 29.0316 21.7971 29.0312 21.3125V20.6563C29.0307 20.1343 28.823 19.6339 28.454 19.2648C28.0849 18.8957 27.5845 18.6881 27.0625 18.6875H21.1562V16.9247C21.1513 15.3655 21.5455 13.8309 22.3014 12.4672C23.0572 11.1034 24.1495 9.95584 25.4744 9.13367ZM22.424 26.5625H27.0625C27.2365 26.5627 27.4033 26.6319 27.5263 26.755C27.6493 26.878 27.7185 27.0448 27.7187 27.2188V27.875C27.7185 28.049 27.6493 28.2158 27.5263 28.3388C27.4033 28.4618 27.2365 28.5311 27.0625 28.5313H23.1024C23.1532 28.1728 23.1182 27.8075 23.0003 27.4652C22.8823 27.1229 22.6848 26.8136 22.424 26.5625ZM14.5937 24.5938C14.594 24.4198 14.6632 24.253 14.7862 24.13C14.9092 24.0069 15.076 23.9377 15.25 23.9375H18.5312V24.5938C18.5309 25.0782 18.71 25.5457 19.0339 25.9059L19.0336 25.9063H15.25C15.076 25.9061 14.9092 25.8368 14.7862 25.7138C14.6632 25.5908 14.594 25.424 14.5937 25.25V24.5938ZM20.5 20H27.0625C27.2365 20.0002 27.4033 20.0694 27.5263 20.1925C27.6493 20.3155 27.7185 20.4823 27.7187 20.6563V21.3125C27.7185 21.4865 27.6493 21.6533 27.5263 21.7763C27.4033 21.8993 27.2365 21.9686 27.0625 21.9688H20.5C20.326 21.9686 20.1592 21.8993 20.0362 21.7763C19.9132 21.6533 19.844 21.4865 19.8437 21.3125V20.6563C19.844 20.4823 19.9132 20.3155 20.0362 20.1925C20.1592 20.0694 20.326 20.0002 20.5 20ZM20.5 23.2813H27.0625C27.2365 23.2815 27.4033 23.3507 27.5263 23.4737C27.6493 23.5967 27.7185 23.7635 27.7187 23.9375V24.5938C27.7185 24.7678 27.6493 24.9345 27.5263 25.0576C27.4033 25.1806 27.2365 25.2498 27.0625 25.25H20.5C20.326 25.2498 20.1592 25.1806 20.0362 25.0576C19.9132 24.9345 19.844 24.7678 19.8437 24.5938V23.9375C19.844 23.7635 19.9132 23.5967 20.0362 23.4737C20.1592 23.3507 20.326 23.2815 20.5 23.2813ZM11.8931 17.1932C11.7657 17.1932 11.6386 17.2055 11.5135 17.2298C11.0194 17.3256 10.5172 17.3742 10.0139 17.375H10.0001C5.69344 17.3748 2.16183 13.8759 2.12516 9.56868C2.11609 8.52882 2.31307 7.49746 2.70472 6.53413C3.09637 5.5708 3.67493 4.69458 4.40702 3.95604C5.13911 3.2175 6.01022 2.63127 6.97007 2.23118C7.92993 1.83109 8.95952 1.62508 9.99942 1.62502C10.0224 1.62502 10.0456 1.6251 10.0686 1.62535C14.3576 1.66185 17.8595 5.1814 17.875 9.47098C17.8835 11.0401 17.4207 12.5757 16.5464 13.8788C16.3796 14.1305 16.2729 14.4173 16.2346 14.7169C16.1964 15.0165 16.2275 15.3209 16.3258 15.6065L17.0449 17.6971C17.0848 17.8129 17.0914 17.9376 17.0641 18.057C17.0368 18.1764 16.9767 18.2858 16.8904 18.3727C16.8042 18.4597 16.6953 18.5208 16.5761 18.5491C16.4569 18.5775 16.3322 18.5719 16.2161 18.533L12.5165 17.2943C12.3155 17.2273 12.1049 17.1931 11.893 17.1932H11.8931ZM14.5937 21.3125C14.594 21.1385 14.6632 20.9717 14.7862 20.8487C14.9092 20.7257 15.076 20.6565 15.25 20.6563H18.5312V21.3125C18.5309 21.7971 18.71 22.2647 19.0341 22.625H15.25C15.076 22.6248 14.9092 22.5556 14.7862 22.4326C14.6632 22.3095 14.594 22.1428 14.5937 21.9688V21.3125ZM23.8507 32.0978C23.6154 32.2021 23.3618 32.2589 23.1044 32.265C22.8471 32.271 22.5911 32.2263 22.3511 32.1333L18.1281 30.509H20.8281C21.1339 30.5092 21.4366 30.4481 21.7184 30.3293C22.0002 30.2105 22.2553 30.0365 22.4687 29.8175V29.8438H27.0625C27.219 29.8441 27.3702 29.9002 27.489 30.0021C27.6077 30.104 27.6862 30.245 27.7102 30.3996L23.8507 32.0978Z" fill="black"/>
<path d="M14.4671 5.96093L15.0577 5.3703L14.1297 4.4422L13.0094 5.5625H11.9687V4.90625C11.9687 4.38411 11.7613 3.88335 11.3921 3.51413C11.0229 3.14492 10.5221 2.9375 10 2.9375C9.47785 2.9375 8.97709 3.14492 8.60788 3.51413C8.23867 3.88335 8.03125 4.38411 8.03125 4.90625V5.5625H6.71875C6.19678 5.56309 5.69636 5.7707 5.32728 6.13978C4.95819 6.50887 4.75058 7.00928 4.75 7.53125V11.4688C4.75003 11.7732 4.82076 12.0736 4.95662 12.3461C5.09248 12.6186 5.28975 12.8558 5.5329 13.0391L4.94228 13.6297L5.8703 14.5578L6.9906 13.4375H13.2812C13.8032 13.4369 14.3036 13.2293 14.6727 12.8602C15.0418 12.4911 15.2494 11.9907 15.25 11.4688V7.53125C15.25 7.22676 15.1792 6.92644 15.0434 6.65394C14.9075 6.38144 14.7102 6.1442 14.4671 5.96093ZM13.9375 7.53125V7.75479L13.8776 7.78038C13.2969 8.02883 12.6935 8.22037 12.0758 8.3523L13.5109 6.91725C13.636 6.96406 13.7439 7.04792 13.8201 7.15763C13.8963 7.26733 13.9373 7.39767 13.9375 7.53125ZM9.34375 4.90625C9.34375 4.7322 9.41289 4.56528 9.53596 4.44221C9.65903 4.31914 9.82595 4.25 10 4.25C10.174 4.25 10.341 4.31914 10.464 4.44221C10.5871 4.56528 10.6562 4.7322 10.6562 4.90625V5.5625H9.34375V4.90625ZM6.71875 6.875H11.6969L9.99926 8.57264C8.66665 8.57356 7.34771 8.30403 6.1223 7.78038L6.0625 7.75479V7.53125C6.06271 7.35727 6.13192 7.19047 6.25495 7.06745C6.37797 6.94443 6.54477 6.87522 6.71875 6.875ZM6.0625 11.4688V9.16999C6.93034 9.49627 7.83553 9.7129 8.75706 9.81484L6.48906 12.0828C6.36395 12.0359 6.2561 11.9521 6.17988 11.8424C6.10367 11.7327 6.06272 11.6023 6.0625 11.4688ZM13.2812 12.125H8.3031L10.5574 9.8707C11.7136 9.81375 12.8539 9.57735 13.9375 9.16999V11.4688C13.9373 11.6427 13.8681 11.8095 13.745 11.9325C13.622 12.0556 13.4552 12.1248 13.2812 12.125ZM8.7523 21.2508C6.49086 21.0258 4.33447 20.1847 2.51793 18.8191L1.72961 19.8683C3.73806 21.3783 6.1223 22.3082 8.62269 22.5569L8.7523 21.2508ZM10 21.3124V22.6249C10.6916 22.6249 11.3823 22.5735 12.0663 22.471L11.8712 21.1731C11.2518 21.2659 10.6263 21.3125 10 21.3124Z" fill="black"/>
</svg>
